<svg id="Layer_1" data-name="Layer 1" xmlns="http://www.w3.org/2000/svg" viewBox="0 0 654.17 690.53"><defs><style>.cls-1,.cls-4{fill:#f4cebb;}.cls-2{fill:#d99b87;}.cls-3{fill:#231f1f;}.cls-10,.cls-12,.cls-15,.cls-18,.cls-4,.cls-5,.cls-6{stroke:#231f20;}.cls-10,.cls-12,.cls-15,.cls-18,.cls-19,.cls-4,.cls-5,.cls-6{stroke-miterlimit:10;}.cls-4{stroke-width:10px;}.cls-12,.cls-5,.cls-7{fill:#231f20;}.cls-18,.cls-19,.cls-5{stroke-width:3px;}.cls-19,.cls-6{fill:none;}.cls-8{fill:#edeee4;}.cls-15,.cls-18,.cls-9{fill:#fff;}.cls-10{fill:#107264;}.cls-11{fill:#00a79d;}.cls-13{fill:#742824;}.cls-14{fill:#d98382;}.cls-16{fill:#eb9f9c;}.cls-17{fill:#cdd1cd;}.cls-19{stroke:#be1e2d;stroke-dasharray:4;}</style></defs><title>mask</title><path class="cls-1" d="M710.33,439s-9.34-11.15-13.68-5.6-2.3,14.24,0,18.3,8,12.36,9.08,15.25,5,9.85,8.67,6.71C715.07,472.38,717.38,446.73,710.33,439Z" transform="translate(-61.13 -20.54)"/><path class="cls-2" d="M702.34,458.17s-3.52-7.52-5.55-11.48-.54-13.76,1.89-12.73a12.08,12.08,0,0,1,4.34,3.88s-2.41,13.61,0,21Z" transform="translate(-61.13 -20.54)"/><path class="cls-3" d="M710.33,448.43s-.36-.34-1-.95-1.45-1.52-2.43-2.64c-.48-.56-1-1.19-1.51-1.86s-1.12-1.33-1.62-2.14-1.06-1.61-1.58-2.47c-.1-.15-.23-.4-.35-.6l-.34-.52a8.81,8.81,0,0,0-.85-1,5.32,5.32,0,0,0-2-1.36,1.6,1.6,0,0,0-.36-.07s0,0,.1-.06a.46.46,0,0,0,.07-.07l0,0s0,0,0,0h0l0,0-.12.13a4.48,4.48,0,0,0-.68,1,9.12,9.12,0,0,0-.84,2.25,6.84,6.84,0,0,0-.22,1.15c-.06.38-.15.74-.18,1.09,0,.72-.09,1.38-.15,2s0,1.12,0,1.54c0,.86,0,1.36,0,1.36s-.14-.47-.36-1.31c-.09-.42-.25-.94-.35-1.54s-.17-1.29-.24-2a16.28,16.28,0,0,1,.08-2.48,8.91,8.91,0,0,1,.74-2.79,6.59,6.59,0,0,1,.83-1.37l.11-.14,0,0,0,0,0,0c.07-.07.15-.12.22-.18a1.66,1.66,0,0,1,.78-.25,3.08,3.08,0,0,1,1.06.13,7.26,7.26,0,0,1,2.86,1.79,9.53,9.53,0,0,1,1,1.26c.16.24.32.49.45.72l.36.66c.48.8.91,1.62,1.35,2.39s.93,1.53,1.35,2.25.84,1.4,1.22,2C709.4,446.67,710.33,448.43,710.33,448.43Z" transform="translate(-61.13 -20.54)"/><path class="cls-3" d="M710.33,452.33a7.16,7.16,0,0,0-.61,1.08c-.07.17-.15.34-.21.53s-.12.39-.18.6-.08.43-.13.65a4.91,4.91,0,0,0-.06.68,5.3,5.3,0,0,0,0,.69c0,.23,0,.46,0,.68s0,.44.05.65,0,.4.06.59c0,.37.1.68.11.9s0,.36,0,.36-.08-.1-.21-.29a5.67,5.67,0,0,1-.47-.81,6.29,6.29,0,0,1-.43-1.27,5.41,5.41,0,0,1-.13-1.57,4.69,4.69,0,0,1,.36-1.55,2.9,2.9,0,0,1,.35-.65,3.57,3.57,0,0,1,.4-.52A2.74,2.74,0,0,1,710.33,452.33Z" transform="translate(-61.13 -20.54)"/><path class="cls-3" d="M704.7,451.67c.57,2.72.87,5.38,1.47,7.9.15.63.32,1.23.52,1.81a8,8,0,0,0,.34.83,7.45,7.45,0,0,0,.41.74l.23.3.26.26a2.56,2.56,0,0,0,.58.33,1.77,1.77,0,0,0,.74.1,4.5,4.5,0,0,0,.86-.11l-.11,1a.91.91,0,0,1-.28-.41,1,1,0,0,1-.07-.3,1.83,1.83,0,0,1,0-.47,6.5,6.5,0,0,1,.14-.81,11.25,11.25,0,0,1,.53-1.51c0,.53.09,1.05.15,1.55a5.56,5.56,0,0,0,.12.73,2.57,2.57,0,0,0,.09.29s0,.08,0,.07,0-.06-.06-.1l-.11,1a4.22,4.22,0,0,1-1.09.44,3.45,3.45,0,0,1-1.29.08,3.16,3.16,0,0,1-1.26-.47,5.25,5.25,0,0,1-.53-.4l-.44-.45a5.75,5.75,0,0,1-.67-1,8.67,8.67,0,0,1-.46-1,11.55,11.55,0,0,1-.56-2.11,18.75,18.75,0,0,1-.24-2.1,20.81,20.81,0,0,1,0-2.09A17.84,17.84,0,0,1,704.7,451.67Z" transform="translate(-61.13 -20.54)"/><path class="cls-3" d="M704.31,440l-.17.14a2.88,2.88,0,0,1-.29.35c-.12.22-.26.49-.43.79s-.25.72-.4,1.13a7,7,0,0,0-.33,1.41c-.08.52-.2,1.05-.27,1.62s-.07,1.16-.1,1.76-.11,1.22-.07,1.83c0,1.23.08,2.46.12,3.61,0,.58.1,1.13.15,1.66s.11,1,.16,1.49c.2,1.84.34,3.07.34,3.07s-.2-1.22-.49-3c-.08-.46-.16-1-.24-1.48s-.2-1.08-.23-1.66c-.1-1.16-.21-2.39-.31-3.63-.07-.62,0-1.24,0-1.85s0-1.22,0-1.81.13-1.15.19-1.69a7.64,7.64,0,0,1,.28-1.51c.14-.46.23-.89.38-1.26l.46-.95c.2-.27.38-.48.5-.62l.17-.15Z" transform="translate(-61.13 -20.54)"/><path class="cls-3" d="M711.63,440.77s-.66-.87-1.92-2.28a33.13,33.13,0,0,0-2.39-2.43,22.42,22.42,0,0,0-3.47-2.68,6.51,6.51,0,0,0-4.73-1.14,4.1,4.1,0,0,0-2.15,1.38l-.88,1.19-.69,1.24a12.08,12.08,0,0,0-1,5.9,21.39,21.39,0,0,0,1.38,6.15,34.13,34.13,0,0,0,2.73,5.76l3.17,5.41c1,1.76,2,3.45,2.87,5.11L707,469a21.4,21.4,0,0,0,2.4,3.67,3.78,3.78,0,0,0,2.76,1.61,2.86,2.86,0,0,0,1.88-.93l.52-.57-.49.61a2.88,2.88,0,0,1-1.9,1.09,4.08,4.08,0,0,1-3-1.56,19.38,19.38,0,0,1-2.62-3.64l-2.62-4.55c-.9-1.63-2-3.28-3-5l-3.22-5.37a35.67,35.67,0,0,1-2.87-5.89,22.72,22.72,0,0,1-1.37-6.45,13.05,13.05,0,0,1,1.14-6.32c.25-.47.52-.93.79-1.39s.61-.78.92-1.16a4.83,4.83,0,0,1,2.63-1.6,5.44,5.44,0,0,1,2.85.22,10.42,10.42,0,0,1,2.34,1.16,20.09,20.09,0,0,1,3.43,2.88c.93.95,1.68,1.83,2.28,2.57A29.84,29.84,0,0,1,711.63,440.77Z" transform="translate(-61.13 -20.54)"/><path class="cls-4" d="M498.21,288.31s.77-.63,2.09-1.56c8.08-5.67,37-22.57,39.56,23.69,3,53.84-18.32,98.7-20.82,120.84s-17.77,40.43-24.5,28.59c-3.74-1.08-1.39-168.09-2.24-172.7S498.21,288.31,498.21,288.31Z" transform="translate(-61.13 -20.54)"/><path class="cls-5" d="M527.89,305.06s5.38,92.12-18.55,103.49c0,1.19.89-2.47,6.84-11.37s12.31-44.27,5.73-73.58C521.31,313.43,527.57,297.24,527.89,305.06Z" transform="translate(-61.13 -20.54)"/><path class="cls-6" d="M505.16,367.87s9.26,21.54-7,31.7c-.07,3.57.08-31.7.08-31.7S502.77,358.33,505.16,367.87Z" transform="translate(-61.13 -20.54)"/><path class="cls-7" d="M503,350.52s17.45,33.5-4.82,49.05C498.13,399.57,513.4,388.2,503,350.52Z" transform="translate(-61.13 -20.54)"/><path class="cls-4" d="M135,288.53s-.77-.62-2.09-1.55c-8.08-5.67-37-22.58-39.56,23.69-3,53.83,18.31,98.7,20.82,120.83s17.76,40.44,24.49,28.6c3.75-1.08,1.4-168.09,2.25-172.71S135,288.53,135,288.53Z" transform="translate(-61.13 -20.54)"/><path class="cls-2" d="M135.66,355.63s-4.93,99,12.3,150.64,82.43,166.09,174.7,185.78c43.06,1.22,89.82-30.76,102.12-48s28.29-38.14,41.83-97.19c6.15-24.61,29.53-62.75,28.29-112S549,218.38,440.77,174.09,134.43,99.19,135.66,355.63Z" transform="translate(-61.13 -20.54)"/><path class="cls-7" d="M135.66,355.63c-.37,8.67-.51,17.35-.51,26,0,4.34.08,8.67.19,13s.21,8.67.42,13c.4,8.67.92,17.33,1.72,25.95.36,4.32.89,8.62,1.32,12.93s1.14,8.57,1.69,12.86,1.4,8.52,2.1,12.78,1.71,8.44,2.6,12.64l1.6,6.22c.55,2.07,1,4.17,1.7,6.17l1.95,6.07.49,1.51.12.38.13.34.29.76,1.15,3c3,7.91,6.62,15.77,10.42,23.44s7.76,15.31,11.86,22.86,8.55,14.91,13.23,22.11S197.65,592,202.8,598.9l1.92,2.59,2,2.54c1.32,1.69,2.63,3.4,4,5.07,2.72,3.31,5.4,6.66,8.25,9.86s5.71,6.39,8.6,9.55c1.46,1.56,3,3.07,4.47,4.61l2.24,2.3,2.31,2.22a244.51,244.51,0,0,0,19.23,16.91l5.07,3.9c1.71,1.26,3.47,2.46,5.2,3.7l2.61,1.83,2.68,1.73c1.8,1.13,3.56,2.34,5.39,3.4a179.77,179.77,0,0,0,22.66,11.49,156.1,156.1,0,0,0,24.13,7.53l-.72-.08a102.67,102.67,0,0,0,31.89-4.63,161.31,161.31,0,0,0,57-31.32c2-1.79,4-3.63,5.8-5.55.89-1,1.77-1.95,2.58-2.94s1.51-2,2.36-3.16c3.3-4.57,6.42-9.09,9.4-13.7,6-9.18,10.69-19.13,15.11-29.2l2.9-7.75,1.45-3.87c.47-1.3,1-2.57,1.38-3.9l4.91-15.87L461.68,550l1.08-4.22,1.14-4c.37-1.34.89-2.77,1.34-4.16l.69-2.08.74-2c3.91-10.7,8.23-21,11.91-31.42a230.79,230.79,0,0,0,9.06-31.77,157.38,157.38,0,0,0,3.25-32.58v-5.25l0-1.13c0-.74,0-1.51.07-2.22.12-2.91.37-5.75.63-8.6.55-5.67,1.28-11.27,2-16.85l4.75-33.29c3-22.12,5.4-44.3,5.56-66.46a254.3,254.3,0,0,0-1.76-33,161.22,161.22,0,0,0-7-32A107.67,107.67,0,0,0,480.69,210a90.46,90.46,0,0,0-22.95-22.35,104.83,104.83,0,0,0-14.07-7.91c-4.85-2.2-10.2-4.25-15.32-6.22s-10.43-3.82-15.69-5.6-10.57-3.45-15.9-5a362.75,362.75,0,0,0-65.12-13.12c-5.5-.6-11-.94-16.53-1.22s-11-.33-16.54-.15a206.57,206.57,0,0,0-32.79,3.29,160.81,160.81,0,0,0-31.43,9.19,129.85,129.85,0,0,0-28.41,15.92c-1.09.81-2.15,1.67-3.22,2.49s-2.15,1.67-3.18,2.55l-3.13,2.62c-1,.88-2,1.83-3,2.73-2.06,1.78-3.94,3.75-5.89,5.66-1,.95-1.85,2-2.79,3s-1.87,2-2.73,3.05A159.92,159.92,0,0,0,163.36,226a192.29,192.29,0,0,0-13.3,30.44,238.74,238.74,0,0,0-8.55,32.35c-.6,2.73-1,5.5-1.47,8.26-.23,1.38-.49,2.75-.69,4.14l-.58,4.15c-.79,5.55-1.28,11.13-1.83,16.7C136,333.21,135.69,344.43,135.66,355.63Zm0,0q0-16.81.86-33.62c.4-5.59.75-11.19,1.38-16.77l.4-4.19c.15-1.4.35-2.79.51-4.18.38-2.78.65-5.58,1.13-8.35s.85-5.56,1.33-8.33l1.56-8.3,1.84-8.26,2.11-8.2a196.39,196.39,0,0,1,11.71-31.91,156.68,156.68,0,0,1,17.92-29.2,126.66,126.66,0,0,1,24.7-24.08,148.08,148.08,0,0,1,30.19-16.75,168.41,168.41,0,0,1,33-9.65,214.64,214.64,0,0,1,34.07-3.43c5.69-.18,11.39,0,17.07.16s11.36.64,17,1.25A371.33,371.33,0,0,1,399,155.22c5.43,1.59,10.82,3.31,16.18,5.09s10.69,3.71,16,5.71,10.47,4,15.84,6.43a113.51,113.51,0,0,1,15.2,8.55,98.55,98.55,0,0,1,25,24.32,116.07,116.07,0,0,1,15.56,31,170.25,170.25,0,0,1,7.38,33.58A262.83,262.83,0,0,1,512,304c-.16,22.7-2.59,45.21-5.63,67.5l-4.75,33.29c-.76,5.53-1.47,11.05-2,16.53-.25,2.74-.49,5.48-.59,8.17,0,.69-.05,1.32-.07,2l0,1v5.25a165.58,165.58,0,0,1-3.4,34.22,240.22,240.22,0,0,1-9.37,32.86c-3.76,10.68-8.15,21.1-11.93,31.46l-.71,1.94-.64,1.91c-.41,1.28-.86,2.48-1.24,3.84l-1.14,4-1,3.93-4.17,16.45-5,16.26c-.39,1.37-.94,2.68-1.43,4l-1.49,4-3,8c-4.58,10.45-9.47,20.86-15.76,30.46-3.11,4.8-6.37,9.5-9.62,14-.77,1.09-1.73,2.41-2.69,3.58s-1.95,2.28-3,3.37c-2,2.15-4.16,4.15-6.33,6.08a169.59,169.59,0,0,1-60,33,110.56,110.56,0,0,1-34.4,4.95h-.39l-.33-.07a166.12,166.12,0,0,1-25.51-8,187.48,187.48,0,0,1-23.74-12c-1.91-1.11-3.74-2.37-5.61-3.54l-2.8-1.8-2.71-1.9c-1.8-1.29-3.62-2.54-5.4-3.85l-5.25-4A251.44,251.44,0,0,1,231,643.38l-2.38-2.28-2.31-2.36c-1.52-1.58-3.08-3.14-4.59-4.74-3-3.24-6-6.44-8.81-9.8s-5.66-6.71-8.45-10.1c-1.38-1.71-2.71-3.45-4.06-5.18l-2-2.6-2-2.64c-5.27-7-10.22-14.25-15-21.61s-9.26-14.88-13.57-22.51-8.38-15.41-12-23.42S149,520,146.21,511.56l-1-3.1-.25-.78-.13-.43-.11-.4-.42-1.61-1.69-6.43c-.63-2.13-1-4.31-1.41-6.46L140,485.87c-.65-4.33-1.28-8.67-1.86-13s-.94-8.69-1.31-13-.68-8.69-.91-13-.48-8.69-.6-13c-.26-8.69-.51-17.37-.5-26.06s0-17.37.15-26S135.27,364.3,135.66,355.63Z" transform="translate(-61.13 -20.54)"/><path class="cls-1" d="M157.39,394.65c10.67,23.6,25.5,44,37.23,66.73,7.07,13.71,12.38,25.32,14.7,41.12a256,256,0,0,1,2.3,29.89c.76,27.6,12.65,50,21.93,75,8.35,22.52,24.31,34.08,41.75,49.56,15.53,13.78,29.32,19.79,50,22.39,11.79,1.49,24.29-2,36.15-2.48,8.21-.31,13.49-.83,18.77-6.49,6.19-6.62,9.89-10.28,18.07-15.4A43.41,43.41,0,0,0,410,644.83c10.37-12.5,19.37-21.08,22.41-37.48,2.29-12.37,6.63-20.53,6.91-33.58.32-14.87,7.14-28.16,9.28-42.56.67-4.5.3-9.08.93-13.58,2-14.51,8.42-27.81,13.72-41.11,7.69-19.32,17-38.51,19.34-59.43,1.1-9.89-.41-19.19-1.1-29-.62-8.85,2.88-15.15,4.21-23.73A214.79,214.79,0,0,0,488,340.23c.7-17.46,0-35,.76-52.57.77-18.8.26-31-7.49-47.88-10.59-23-22.59-43.44-46.44-53.48C422,180.89,411,172.81,397.6,168.08a158.38,158.38,0,0,0-40.2-8.45c-8-.69-16.11-1.1-24.11-1.54-18.79-1.05-46-4.31-64,2.54-17.19,6.58-36.92,13-52.11,22.88-11.92,7.79-27.06,16.56-34.15,28.69-5.07,8.66-7.46,17.56-11.39,26.13-5.57,12.16-10.09,21.7-12,35.34-2.75,19.33-6.28,38.61-8.91,57.93C147.9,352.48,148.59,375.18,157.39,394.65Z" transform="translate(-61.13 -20.54)"/><path class="cls-5" d="M105.33,305.28s-5.39,92.13,18.54,103.49c0,1.2-.88-2.46-6.83-11.37s-12.31-44.26-5.73-73.57C111.91,313.66,105.65,297.46,105.33,305.28Z" transform="translate(-61.13 -20.54)"/><path class="cls-2" d="M128.06,368.09s-9.26,21.54,7,31.71c.06,3.57-.08-31.71-.08-31.71S130.45,358.56,128.06,368.09Z" transform="translate(-61.13 -20.54)"/><path class="cls-5" d="M130.27,350.75s-17.46,33.5,4.82,49.05C135.09,399.8,119.82,388.43,130.27,350.75Z" transform="translate(-61.13 -20.54)"/><path class="cls-8" d="M336.22,331.35A34,34,0,0,1,305.1,349c-22.51-.41-89.65-2.45-114.62,18.42C219.55,342,246.15,333,278.9,329.71S336.22,331.35,336.22,331.35Z" transform="translate(-61.13 -20.54)"/><path class="cls-8" d="M363,333.31s21.8,18.9,40.87,16,58.59,2.55,69.24,9.7,19.13,12.16,19.13,12.16-3.16-23.95-32.43-31.81S375,326.88,363,333.31Z" transform="translate(-61.13 -20.54)"/><path class="cls-9" d="M397.33,380.62s-11.75,4.44-7.4-6.05,29.6-26.95,69.66,0C459.15,376.7,431.29,394.55,397.33,380.62Z" transform="translate(-61.13 -20.54)"/><path class="cls-7" d="M397.33,380.62a16.39,16.39,0,0,1-2.76.87,9,9,0,0,1-2.93.25,4.37,4.37,0,0,1-1.48-.41,2.72,2.72,0,0,1-1.16-1.12,4.9,4.9,0,0,1-.35-3.07,15,15,0,0,1,2.2-5.54,21.22,21.22,0,0,1,3.9-4.5,31.63,31.63,0,0,1,4.8-3.49,36.17,36.17,0,0,1,5.38-2.53,40.34,40.34,0,0,1,5.71-1.61c1-.22,1.95-.34,2.93-.5s2-.25,3-.28,2-.11,3-.07,2,0,3,.1l1.48.09,1.47.17c1,.1,2,.25,2.93.43l1.46.25,1.44.32c1,.2,1.92.43,2.86.71,1.9.51,3.76,1.15,5.61,1.8l2.74,1.06,2.69,1.17c.91.37,1.77.83,2.66,1.25s1.76.85,2.61,1.33l2.57,1.41,2.51,1.5c1.68,1,3.27,2.11,4.92,3.15l.88.56-.27.94a2.8,2.8,0,0,1-.32.73,3.83,3.83,0,0,1-.26.33,3.75,3.75,0,0,1-.48.49,11.74,11.74,0,0,1-.9.76c-.59.44-1.19.84-1.79,1.22a39.56,39.56,0,0,1-3.71,2,62.3,62.3,0,0,1-7.76,3.13,63,63,0,0,1-8.08,2.07q-2,.4-4.11.66c-1.37.19-2.75.3-4.13.41s-2.77.15-4.16.13-2.76-.06-4.14-.12-2.76-.19-4.13-.38-2.73-.42-4.08-.66-2.7-.55-4-.91-2.65-.7-3.95-1.14-2.6-.88-3.88-1.38S398.59,381.15,397.33,380.62Zm0,0c1.31.42,2.58.89,3.9,1.26s2.6.78,3.93,1.07,2.65.61,4,.87,2.67.43,4,.62,2.69.3,4,.37,2.69.13,4,.18,2.69,0,4-.09,2.68-.19,4-.3,2.66-.31,4-.55,2.64-.47,3.94-.77a72.5,72.5,0,0,0,7.72-2.21,59.75,59.75,0,0,0,7.35-3.15c1.17-.61,2.33-1.26,3.43-2,.55-.35,1.07-.72,1.58-1.09.22-.19.49-.39.66-.57a1.76,1.76,0,0,0,.24-.24l.06-.06a.45.45,0,0,0-.1.28l.62,1.49c-1.61-1-3.18-2.1-4.83-3l-2.45-1.45-2.5-1.35c-.83-.46-1.69-.87-2.53-1.29s-1.69-.86-2.56-1.23l-2.59-1.15-2.64-1c-1.77-.64-3.55-1.27-5.37-1.76-.9-.28-1.81-.5-2.73-.72l-1.37-.33-1.38-.27c-.92-.19-1.85-.35-2.78-.46l-1.39-.19-1.4-.12c-.93-.1-1.87-.14-2.8-.16s-1.87,0-2.81,0-1.86.13-2.8.18-1.85.2-2.77.37a38.89,38.89,0,0,0-5.44,1.33,40.09,40.09,0,0,0-5.15,2.17,29.66,29.66,0,0,0-4.68,3.06,22.88,22.88,0,0,0-3.89,4,14.11,14.11,0,0,0-1.45,2.38,15.14,15.14,0,0,0-.93,2.6,4.08,4.08,0,0,0,.09,2.57,2.61,2.61,0,0,0,2.08,1.35A13.06,13.06,0,0,0,397.33,380.62Z" transform="translate(-61.13 -20.54)"/><path class="cls-10" d="M407.47,361.13s-3.62,20.26,15.92,21.85c11.4.77,14.5-6.56,18-14C445.26,361,415.42,357.67,407.47,361.13Z" transform="translate(-61.13 -20.54)"/><path class="cls-9" d="M418.93,370.35a5.36,5.36,0,1,0,5.35-5A5.16,5.16,0,0,0,418.93,370.35Z" transform="translate(-61.13 -20.54)"/><path class="cls-7" d="M416.93,370.35a5.37,5.37,0,1,0,5.35-5A5.16,5.16,0,0,0,416.93,370.35Z" transform="translate(-61.13 -20.54)"/><path class="cls-11" d="M433.52,375c-.56-2.55-4.11-2.21-5.79-1.16-2.1,1.31-3.76,2.62-6.37,2.75S418,374.4,415.75,374c-2.93-.57-1.34,3.94-.07,5,2.68,2.21,7.58,2.48,10.91,1.56,1.89-.52,3.54-.72,5.16-1.92,1.06-.79,3-3,1.33-4.16" transform="translate(-61.13 -20.54)"/><path class="cls-7" d="M398.43,365.4S383.5,376.55,390.25,381c2.14,2.08,7.08-.4,7.08-.4s-6.54-.82-5.74-3.58,4.21-5.64,4.21-5.64-1.4,5.75,4,6.82C399.8,378.29,395.45,374.73,398.43,365.4Z" transform="translate(-61.13 -20.54)"/><path class="cls-7" d="M380.36,375.31s5.64-15.42,18.06-19.09,38.38-2,38.38-2-8.18,4.23-10.44,4.23,33.59,4,52.21,30.07c0,0-60.48-54.62-90.07-12.57.32.28.61-7.16,9.64-15.15C392.49,364.69,388.54,363.35,380.36,375.31Z" transform="translate(-61.13 -20.54)"/><path class="cls-9" d="M300.73,372.53s12,9.08,4.6,10-13.35.92-21.64,4.6-36.17,12.09-58.47-9.69C228.45,376.54,274,348.26,300.73,372.53Z" transform="translate(-61.13 -20.54)"/><path class="cls-7" d="M300.73,372.53a41.36,41.36,0,0,1,4.64,4.13,13.71,13.71,0,0,1,1.89,2.47,3.73,3.73,0,0,1,.51,1.48,1.52,1.52,0,0,1-.64,1.39,7,7,0,0,1-3,.78l-3.08.38c-2.06.25-4.11.52-6.14.88a48.51,48.51,0,0,0-6,1.57,58.52,58.52,0,0,0-5.71,2.34,61,61,0,0,1-24.56,5,46.49,46.49,0,0,1-6.34-.45,49.44,49.44,0,0,1-6.25-1.27,44.53,44.53,0,0,1-6.05-2.08,48.57,48.57,0,0,1-5.72-2.88,45.2,45.2,0,0,1-5.29-3.6c-.85-.64-1.63-1.36-2.46-2s-1.55-1.45-2.33-2.17l-1.69-1.56,2.31-.88c.16-.06.56-.24.91-.4l1.12-.55,2.26-1.11q2.28-1.1,4.59-2.15c1.55-.69,3.1-1.36,4.67-2s3.16-1.23,4.75-1.8,3.2-1.11,4.82-1.62,3.24-1,4.89-1.39c.81-.22,1.64-.42,2.46-.6s1.65-.39,2.48-.55c1.66-.35,3.34-.61,5-.87s3.36-.41,5-.51c.84-.07,1.69-.1,2.54-.11s1.68-.06,2.53,0,1.69,0,2.53.09l2.53.22c1.67.24,3.35.43,5,.83l1.23.26,1.22.35c.8.25,1.63.44,2.4.76s1.59.58,2.36.91l2.29,1.05c.76.37,1.47.82,2.2,1.23a19.57,19.57,0,0,1,2.12,1.36A43.63,43.63,0,0,1,300.73,372.53Zm0,0a43.48,43.48,0,0,0-4-3.07,19.62,19.62,0,0,0-2.13-1.35c-.74-.39-1.45-.84-2.21-1.19l-2.29-1c-.78-.3-1.58-.55-2.37-.83s-1.61-.46-2.41-.68l-1.22-.31-1.23-.23a46.28,46.28,0,0,0-5-.65l-2.5-.09c-.83,0-1.67,0-2.5,0s-1.67.08-2.5.14-1.66.12-2.49.24c-1.65.18-3.3.47-4.93.75s-3.27.67-4.88,1.1c-.81.19-1.61.42-2.41.65s-1.6.46-2.39.72c-1.59.49-3.16,1-4.72,1.6s-3.11,1.18-4.65,1.82q-4.6,1.92-9.1,4.12c-1.5.73-3,1.48-4.46,2.25l-2.24,1.15-1.14.58a12.13,12.13,0,0,1-1.4.6l.63-2.44c.75.68,1.48,1.37,2.24,2s1.53,1.31,2.34,1.9,1.6,1.22,2.45,1.76l1.25.85,1.29.78a46.62,46.62,0,0,0,5.34,2.78c.94.37,1.85.79,2.81,1.1s1.89.67,2.86,1a44,44,0,0,0,5.88,1.37,53,53,0,0,0,6,.69,59,59,0,0,0,24-3.71,58.23,58.23,0,0,1,5.91-2.07,48,48,0,0,1,6.12-1.3c2.07-.28,4.13-.51,6.2-.69l3.09-.29a6.7,6.7,0,0,0,3-.67,1.42,1.42,0,0,0,.62-1.28,3.74,3.74,0,0,0-.49-1.44,13.21,13.21,0,0,0-1.86-2.47A39.52,39.52,0,0,0,300.73,372.53Z" transform="translate(-61.13 -20.54)"/><path class="cls-10" d="M274.44,363.84S278,387.34,257.32,389c-12.06.82-16.43-9.46-20.09-17.32C236.94,370.88,264.15,358.54,274.44,363.84Z" transform="translate(-61.13 -20.54)"/><path class="cls-9" d="M262,375.67a5.67,5.67,0,1,1-5.66-5.24A5.46,5.46,0,0,1,262,375.67Z" transform="translate(-61.13 -20.54)"/><path class="cls-7" d="M264.15,375.67a5.67,5.67,0,1,1-5.65-5.24A5.45,5.45,0,0,1,264.15,375.67Z" transform="translate(-61.13 -20.54)"/><path class="cls-11" d="M246.61,380.6c.59-2.69,4.35-2.33,6.12-1.22,2.22,1.38,4,2.77,6.74,2.91S263,380,265.4,379.5c3.1-.6,1.42,4.16.07,5.28-2.83,2.33-8,2.61-11.53,1.64-2-.55-3.75-.76-5.46-2-1.12-.83-3.14-3.19-1.41-4.4" transform="translate(-61.13 -20.54)"/><path class="cls-7" d="M295.06,368.3s.9,10-3.76,12.61c-1.27,2.19,6-2.31,6.57-6.3.42,0,6.77,4.59,4,5.06s-9.95,4.2-9.95,4.2,17.81.41,15.79-4.2S295.06,368.3,295.06,368.3Z" transform="translate(-61.13 -20.54)"/><path class="cls-7" d="M321.68,372.59s-23.28-14.94-44.47-13.74c-21.26-.07-63.57,18-68,30.17,1.49-1.82,11.94-8.09,20.59-10.47.9-.3,47.91-29.1,78,1.12-6.94-8.89-13.51-14.26-18.28-15.75S301.08,362.46,321.68,372.59Z" transform="translate(-61.13 -20.54)"/><path class="cls-7" d="M353.67,479.8c-2,0-25.22,1.2-24-4.8s15.21-2,22,4.8" transform="translate(-61.13 -20.54)"/><path class="cls-12" d="M376.18,357.93s-7.57,14.06,0,33.54,14.07,30.29,15.69,43.81,7.56-10.82-12.72-43.27C377.81,380.11,373,385.43,376.18,357.93Z" transform="translate(-61.13 -20.54)"/><path class="cls-12" d="M401.43,397.47s40.32,16.49,57.63-5C453.11,407.2,423.86,414.23,401.43,397.47Z" transform="translate(-61.13 -20.54)"/><path class="cls-12" d="M302.4,397s-26.17,24.56-52.83,17.85C259.15,419.5,290,419.94,302.4,397Z" transform="translate(-61.13 -20.54)"/><path class="cls-12" d="M329.66,433.42S281.3,470.6,279.3,513C278.5,515,288.87,473.4,329.66,433.42Z" transform="translate(-61.13 -20.54)"/><path class="cls-12" d="M393.94,441.81s12.91,15.27,18.91,31.43,12,23.75,13.19,30.15S403,457,393.94,441.81Z" transform="translate(-61.13 -20.54)"/><path class="cls-12" d="M388.87,443.42s20.14,18.79,5.07,34.38C396.05,476.2,402.49,461,388.87,443.42Z" transform="translate(-61.13 -20.54)"/><path class="cls-12" d="M324.1,439.09s-19.24,33.11,5.56,44.71C329.68,483.8,312.11,477.15,324.1,439.09Z" transform="translate(-61.13 -20.54)"/><path class="cls-12" d="M388.87,446.21s11.58,52.38-35.2,35.59C364.87,486.6,391.54,487.32,388.87,446.21Z" transform="translate(-61.13 -20.54)"/><path class="cls-13" d="M290.1,549s8.34-8.4,14.36-9.2,93.59-13.19,99.59,0c-.4,6.8-15.19,59.18-55.18,53.18S290.1,549,290.1,549Z" transform="translate(-61.13 -20.54)"/><path class="cls-7" d="M306.49,565.36s-17.19-15.59-16.39-18,8.84-6.94,19-8.22,81-13.37,94.95.62c-.58,3.38-7.16,22.4-15.18,25.59s4.78-23.19-19.2-22.79S305.29,543.37,306.49,565.36Z" transform="translate(-61.13 -20.54)"/><path class="cls-14" d="M356.07,522.18s6,4,10.4,0,45.61-1,37.58,17.59c0,0-25.19-6.79-46.38,0-18.79-1.6-50-3.19-67.57,7.6C305.69,530.58,345.67,514.18,356.07,522.18Z" transform="translate(-61.13 -20.54)"/><path class="cls-15" d="M317,574.56s-1.61-14.36,6.34-11,47.38,8.58,60.06-4.61c1.89-3.82,8.22-.28,6.76,7.79C390.12,572.88,367.86,604.14,317,574.56Z" transform="translate(-61.13 -20.54)"/><path class="cls-14" d="M290.1,549.36s28.38,36.8,68.37,34.8c23.78-5.91,39.58-21.2,45.58-44.39,4,8,4.4,70.38-50.38,70C329.28,607,300.05,593.32,290.1,549.36Z" transform="translate(-61.13 -20.54)"/><path class="cls-16" d="M304.46,568.68s-3.25.77,1.63,11.08,41.58,29.18,69.17,19.19,23.12-30.2,20.39-30.27-13.78,35.44-52.38,24.75C321.68,588.15,305.29,564.31,304.46,568.68Z" transform="translate(-61.13 -20.54)"/><path class="cls-7" d="M326.48,609.75s34.78,8,54.38,0C374.86,617.34,354.87,622.94,326.48,609.75Z" transform="translate(-61.13 -20.54)"/><path class="cls-5" d="M246.91,585s13.15,90.48,100.15,97C353.46,681.93,256.1,694.08,246.91,585Z" transform="translate(-61.13 -20.54)"/><path class="cls-5" d="M442.5,568.15s-1.61,57-52.36,99.17C422.16,656.51,440.66,608.53,442.5,568.15Z" transform="translate(-61.13 -20.54)"/><path class="cls-17" d="M100.46,156.39C118.21,128.75,212.72-7.89,401.69,57c41.52,21.61,107.91,71.79,144.19,138.18.77-3.86-26.06-31.39-47.77-50.82-.09,6.05,19.41,54.46,56.46,69.9-7,1.54-36.77-16.76-45.12-28.34,2.47,4.63,28.5,53.26,19,41.68-3.37,1.55,11.3,28.57,29.05,36.29-.77,3.08-21.62-9.27-21.62-9.27s2.32,22.39,20.08,28.57c0,1.54-23.37-13.13-27.51-23.94s18.24,29.15,18.24,45.46c.78,9.35-12.56-26.93-18.24-30.79s16,13.92,11.73,51.72c3.43,3.09-1.18-30.1-21.26-40.91.75.77,3.84,27.54,17.74,32.3,0,4-12.12-1.56-20.44-12.32-.4,3.95,5.77,21,18.12,25.61-1.54.73-9.76-1.18-18.12-9.88s12.46,15.05,11.77,25.89-8.27-10.9-11.77-14.64c.37,4,.41,16.34,0,24.06s.3-24.51-8.93-31.55c0-.15,4.88,22-9.12,34.72.66-.08-1.17-38.68-9.13-62.61-.62,10-11.79,37.42-1.33,50,.07-1.27-23.62-33.81-14.35-83.21-11.58,16.21-9.27,50.73-1.55,65.51-1.54-.67-22.94-26.92-12.24-94.85-7.06,6.95-18.64,47-3.2,70.93-1.54,1.64-23.15-34.65-18.52-84.83-6.95,9.27-5.41,46.32-5.41,46.32a177,177,0,0,1-6.32-53.26c-6,26.24-17.82,53.62,12.5,81-13.9-3.86-26.67-23.16-29.55-50.95-1.33,11.58-9.85,60-30.29,61.67-3.46,3.18,13.41-12.26,20.8-55.49-4.19,20.84-28.87,46.9-45.87,55.49,10.8-.68,31.63-57.81,29.71-82.51-1.93,16.21-19,73.14-41.73,82.5.43-3.76,19-17.65,29.78-73.24-3.87.78-28.68,46.32-29.78,63.31-1.11-8.5-8.06-37.83,4.29-68.71-27,24.7-26.38,61.42-18.05,83.37,1.07,1.55-24.42-27.79-10.91-81.83-8.86,33.2-19.26,52.5-12.52,67.94-4.06-1.55-8.7-23.93-9.47-37.83-3.09,6.18-10.86,23.93-7,30.88s-7.84-17.76-8.93-27-9,20.07-6.95,26.25c-2.62,0-9.6-19.3-2.64-44-9.25,14.66-18.78,35.51-13.24,44s-10.95-.77,0-33.2c-4.5,1.55-26.91,21.62-23.81,55.58-1.53-3.08-12.34-20.07,9.28-68.7-17.76,21.62-30.11,46.32-25.48,71-2.32,1.54-10.81-33.19-2.32-57.13-19.29,32.43-20.84,70-15.43,82.47-6.95-13.76-12.94-49.27-8-83.24-6.65,15.44-12.83,56.15-5.11,74-5.4-3-17-16.88-16.21-40.81,0,1.54-10,52.51.77,64.85-.77,1.54-11.58-5.31-11.58-22.35s-9.1,40.93-9.1,40.93,4.78-40.58,0-50.81,6.65,21.15-13.74,38.65c.15-3.42-.12-10.5-5.24-30.46-2,5.51-2.24,27.29-2.24,27.29S108.15,330.24,114.34,287c-3.85,10.8-9.53,38.59-9.53,38.59s-8.78-26.25-5-39.37S85,317,85,317l8.06-24.58-15,15.44L87.33,287,76.52,300.08s10.81-9.21,9.27-29.29c-.77-4.63-12.35,4.64-12.35,4.64s8.49-2.32,12.35-36.29c-2.32-2.31,7.29-36.28,7.29-36.28s-11.92,37.83-21.19,37.83c-3.86,0,2.32.92,15.44-41.69,2.32-10.81,13.9-34,13.9-34L85.79,180.47S82.7,184,100.46,156.39Z" transform="translate(-61.13 -20.54)"/><path class="cls-6" d="M215.3,240.83s-11.55,41.53-2.71,62.16" transform="translate(-61.13 -20.54)"/><path class="cls-6" d="M507.25,324.16s4,24.13-3.46,31.47" transform="translate(-61.13 -20.54)"/><path class="cls-7" d="M83.26,176.87l.3-.29.84-.9c.37-.39.79-.92,1.31-1.53s1.12-1.31,1.76-2.15l2.18-2.76,2.52-3.38c1.86-2.41,3.87-5.29,6.17-8.46,1.16-1.58,2.32-3.29,3.56-5.07l3.89-5.57c2.7-3.88,5.53-8.14,8.61-12.65a192.12,192.12,0,0,1,23.76-28.42,245,245,0,0,1,33.76-28A243.11,243.11,0,0,1,239.3,45.25a241.61,241.61,0,0,1,80-9.68,280.25,280.25,0,0,1,53.56,7.81c2.17.54,4.32,1.11,6.47,1.67l3.19.86c1.05.28,2.18.65,3.26,1,4.31,1.36,8.48,2.94,12.55,4.68a185.19,185.19,0,0,1,23.07,12.09A244.4,244.4,0,0,1,442,77.83c6.5,5,12.67,10,18.5,15.15a416.44,416.44,0,0,1,31.23,30.52c9.21,9.9,17.17,19.4,24,28s12.43,16.34,16.9,22.81,7.75,11.71,10,15.3,3.29,5.55,3.29,5.55-1.22-1.89-3.6-5.35-6-8.47-10.73-14.71-10.72-13.65-17.81-21.94-15.4-17.37-24.8-26.93-20-19.49-31.73-29.36a301.87,301.87,0,0,0-39-28,178.18,178.18,0,0,0-22.44-11.39,125.26,125.26,0,0,0-12-4.29c-1-.28-2-.59-3-.86l-3.19-.82-6.35-1.58A273.54,273.54,0,0,0,319,42.51c-8.84-.35-17.7-.3-26.49.23a245.24,245.24,0,0,0-26.1,3.07,241.26,241.26,0,0,0-49,14.16,248.84,248.84,0,0,0-76,49,193.56,193.56,0,0,0-24.15,27.12c-3.33,4.36-6.4,8.46-9.31,12.2s-5.59,7.17-8.11,10.2c-5,6.09-9,10.79-11.93,13.83-.7.78-1.36,1.44-1.93,2s-1,1.06-1.44,1.42l-.91.84Z" transform="translate(-61.13 -20.54)"/><path class="cls-7" d="M100.89,162.74l-.29,1c-.19.62-.43,1.55-.8,2.68s-.74,2.57-1.25,4.15-1,3.37-1.62,5.33-1.19,4.07-1.89,6.27-1.32,4.58-2.06,7c-.34,1.21-.76,2.42-1.09,3.67s-.66,2.52-1,3.79-.7,2.55-1.08,3.83-.64,2.59-1,3.88l-1,3.88-.51,1.93-.57,2.07c-.35,1.29-.72,2.57-1.1,3.83s-.72,2.5-1.16,3.74c-1,2.5-2,4.9-2.94,7.14-1.15,2.16-2.25,4.17-3.33,6-1.26,1.74-2.31,3.36-3.46,4.66a30.64,30.64,0,0,1-3.14,3.18c-.46.4-.88.76-1.26,1.05l-1,.68a6,6,0,0,1-.65.38l-.22.11.16-.2a6.87,6.87,0,0,0,.44-.59l.67-1c.23-.41.5-.87.81-1.37.65-1,1.19-2.33,1.94-3.76a23.34,23.34,0,0,0,1-2.38c.35-.83.71-1.71,1.09-2.63.63-1.89,1.3-3.94,2-6.07.56-2.19,1.17-4.47,1.85-6.8s1.06-5.08,1.69-7.69c.29-1.27.59-2.56.89-3.86s.64-2.7,1-4.05.66-2.7,1.06-4,.85-2.62,1.27-3.92c.84-2.6,1.72-5.14,2.75-7.53s1.93-4.73,3-6.85,2-4.16,3.07-6,2-3.45,2.89-4.87,1.75-2.64,2.45-3.63,1.3-1.74,1.69-2.26Z" transform="translate(-61.13 -20.54)"/><path class="cls-7" d="M93.08,202.86l-.25,2.76c-.11.9-.17,1.82-.26,2.72l-.58,5.4-.6,5.35-.33,2.66-.28,2.67-.32,2.65c-.09.89-.24,1.77-.32,2.65-.16,1.77-.36,3.54-.58,5.3-.09.88-.24,1.76-.3,2.64L89,240.31c-.18,1.76-.38,3.53-.59,5.29l0,.36,0,.12c-.66,2.69-1.35,5.37-2.13,8-.4,1.34-.79,2.68-1.22,4s-.88,2.66-1.39,4-1,2.64-1.61,3.95a34.32,34.32,0,0,1-2,3.86,19.44,19.44,0,0,1-1.2,1.85,7.1,7.1,0,0,1-.7.88,9.82,9.82,0,0,1-.76.83l-.84.76c-.32.22-.63.43-1,.62a10,10,0,0,1-1,.42,8.65,8.65,0,0,1-1.08.14c.3-.2.6-.37.86-.57s.49-.46.69-.7.37-.55.55-.8l.44-.87a9.06,9.06,0,0,0,.36-.91c.11-.31.23-.6.32-.93.2-.63.38-1.26.53-1.91s.3-1.3.44-1.95.27-1.32.39-2c.26-1.33.48-2.67.71-4l1.36-8.1c.48-2.7,1-5.42,1.53-8.12l-.07.48q.24-2.75.51-5.49l.3-2.74c.08-.92.26-1.82.41-2.72q.45-2.72,1-5.42c.15-.91.39-1.8.61-2.69l.66-2.67.7-2.66c.26-.88.55-1.75.82-2.63.57-1.74,1.12-3.49,1.82-5.2l1-2.56c.33-.85.74-1.68,1.12-2.52A48.79,48.79,0,0,1,93.08,202.86Z" transform="translate(-61.13 -20.54)"/><path class="cls-7" d="M84.69,258.65a21.81,21.81,0,0,1,1.06,2,34.24,34.24,0,0,1,2,5.42,42.08,42.08,0,0,1,1.47,8c.07.75.12,1.51.13,2.28s0,1.56,0,2.36a44.25,44.25,0,0,1-.39,4.83,37.54,37.54,0,0,1-1.07,4.81c-.12.39-.23.78-.35,1.17s-.29.76-.43,1.14a20.65,20.65,0,0,1-1,2.2,23.44,23.44,0,0,1-2.4,3.92c-.45.58-.93,1.12-1.38,1.63s-1,1-1.46,1.38a16.31,16.31,0,0,1-2.87,1.94,15,15,0,0,1-2.42,1,14.32,14.32,0,0,1-1.63.37,5.71,5.71,0,0,1-.57.1l.38-.45,1.05-1.2c.4-.56.95-1.12,1.42-1.9a25.33,25.33,0,0,0,1.53-2.5l.73-1.46c.21-.53.46-1,.67-1.6.43-1.11.83-2.29,1.18-3.54a64,64,0,0,0,1.66-8.06c.42-2.82.72-5.7,1-8.45s.5-5.41.71-7.65.44-4.21.62-5.58S84.69,258.65,84.69,258.65Z" transform="translate(-61.13 -20.54)"/><path class="cls-7" d="M104.81,275.43s-.11.23-.28.65-.35,1.05-.56,1.84a12.18,12.18,0,0,0-.29,1.33c-.08.48-.2,1-.26,1.56-.18,1.1-.27,2.36-.39,3.71,0,.69-.06,1.4-.08,2.14,0,.36,0,.73,0,1.11s0,.77,0,1.16c0,.78,0,1.58,0,2.4s.08,1.66.11,2.51c0,1.69.26,3.47.33,5.26,0,.89.19,1.8.25,2.71s.17,1.82.25,2.74c.17,1.83.45,3.66.61,5.47s.47,3.6.64,5.34c.08.87.19,1.73.26,2.57s.22,1.66.31,2.47c.19,1.61.33,3.14.45,4.57s.27,2.73.35,3.9.13,2.2.17,3.05,0,1.54,0,2v.71l-.38-.6c-.22-.39-.6-1-1-1.72s-.92-1.67-1.44-2.73-1.14-2.27-1.68-3.62-1.09-2.83-1.65-4.41c-.29-.78-.55-1.6-.83-2.43s-.46-1.71-.7-2.59-.45-1.79-.67-2.7a25.57,25.57,0,0,1-.59-2.79c-.32-1.9-.63-3.83-.85-5.79s-.33-3.92-.32-5.87c0-1,0-1.95.06-2.9,0-.48,0-1,0-1.42l.15-1.42c.11-.93.2-1.84.33-2.73s.34-1.77.53-2.61c.1-.42.19-.83.28-1.24s.24-.81.36-1.2c.26-.78.47-1.53.75-2.24s.58-1.37.87-2,.64-1.21.94-1.74a10.79,10.79,0,0,1,.94-1.46,13.21,13.21,0,0,1,.91-1.15,10.52,10.52,0,0,1,1.47-1.44A4,4,0,0,1,104.81,275.43Z" transform="translate(-61.13 -20.54)"/><path class="cls-7" d="M119.23,261.27s-.17,1.54-.46,4.24-.66,6.52-1.07,11.08c-.19,2.28-.4,4.75-.57,7.35s-.33,5.34-.48,8.17c-.05,1.41-.09,2.84-.14,4.3s-.08,2.91-.07,4.39c0,.74,0,1.48,0,2.22s0,1.49,0,2.24c0,1.49.07,3,.12,4.47s.16,3,.23,4.47.25,2.95.37,4.41c.08.72.17,1.45.25,2.17s.14,1.44.26,2.15c.21,1.41.37,2.82.63,4.19s.47,2.72.76,4,.54,2.6.88,3.83.6,2.46,1,3.6.64,2.29,1,3.34L123,345c.38,1,.75,1.86,1.09,2.72s.73,1.63,1.05,2.37l.91,2c1.25,2.36,1.94,3.79,1.94,3.79l-.82-.77c-.52-.51-1.32-1.24-2.27-2.24s-2-2.28-3.16-3.84L120,346.51c-.58-.92-1.14-1.91-1.75-2.94a57.16,57.16,0,0,1-3.32-7c-.55-1.26-1-2.59-1.45-3.95s-.84-2.78-1.24-4.22a77.63,77.63,0,0,1-1.82-9c-.21-1.55-.4-3.11-.55-4.68s-.25-3.16-.3-4.74c-.1-3.16-.12-6.32.07-9.41s.45-6.13.83-9.05.87-5.71,1.44-8.34,1.18-5.1,1.8-7.35,1.29-4.3,1.93-6.09,1.26-3.34,1.77-4.6,1-2.24,1.3-2.9S119.23,261.27,119.23,261.27Z" transform="translate(-61.13 -20.54)"/><path class="cls-7" d="M125.44,272.8l.17,1c.08.67.27,1.66.42,2.91.36,2.5.82,6.06,1.28,10.32s1,9.18,1.55,14.48c.14,1.31.29,2.65.43,4s.34,2.71.48,4.08c.37,2.73.71,5.5,1.18,8.21s1,5.37,1.67,7.88a18.36,18.36,0,0,0,.59,1.77l.29.87.15.43,0,.11.09.23.1.24c.48,1.3,1,2.5,1.39,4a48.15,48.15,0,0,1,1.7,8,58.17,58.17,0,0,1,.09,13.17c-.2,1.77-.46,3.31-.7,4.56s-.51,2.23-.67,2.89-.3,1-.3,1-.13-1.45-.43-3.94c-.13-1.25-.36-2.75-.61-4.46s-.57-3.62-1-5.67-.94-4.25-1.55-6.53c-.36-1.12-.66-2.29-1.07-3.44-.21-.58-.42-1.16-.61-1.75s-.45-1.12-.67-1.69c-.41-1.07-1-2.35-1.61-3.6l-.11-.23,0-.06,0,0c0-.1,0,.11,0,.07l-.06-.13-.23-.53-.46-1.08c-.27-.72-.64-1.46-.83-2.18a60.75,60.75,0,0,1-2.09-8.75c-.2-1.45-.46-2.92-.61-4.37s-.29-2.89-.41-4.32c-.21-2.86-.33-5.68-.35-8.39s0-5.34.13-7.82.28-4.82.46-7,.43-4.13.67-5.87.5-3.27.7-4.52.43-2.23.57-2.89Z" transform="translate(-61.13 -20.54)"/><path class="cls-7" d="M208.51,205.45s-.95,2-2.38,5.52-3.3,8.63-5.17,14.83c-1,3.08-1.86,6.47-2.77,10s-1.74,7.38-2.44,11.33c-.4,2-.67,4-1,6-.14,1-.29,2.05-.43,3.08s-.31,2.06-.41,3.11c-.24,2.09-.49,4.19-.65,6.31-.09,1.06-.19,2.12-.28,3.19l-.17,3.19c-.27,4.26-.3,8.54-.29,12.74,0,1.05,0,2.1.07,3.14s.06,2.08.09,3.11c.06,2.07.26,4.1.35,6.11.31,4,.64,7.88,1.13,11.54.11.92.22,1.83.32,2.72s.27,1.76.41,2.63c.26,1.72.48,3.39.76,5s.56,3.13.82,4.58c.13.73.24,1.45.38,2.14s.29,1.35.42,2c.57,2.59.93,4.89,1.41,6.74s.74,3.33,1,4.34.32,1.55.32,1.55-.25-.49-.7-1.42-1.12-2.28-1.92-4-1.68-3.92-2.67-6.41-1.92-5.39-3-8.54c-.5-1.58-.92-3.26-1.41-5l-.7-2.64c-.2-.9-.41-1.82-.62-2.74-.86-3.72-1.54-7.69-2.12-11.82s-.95-8.43-1.12-12.81-.15-8.85.1-13.3l.2-3.34.33-3.32c.17-2.21.54-4.4.83-6.57.66-4.34,1.51-8.57,2.54-12.62s2.23-7.9,3.46-11.51,2.62-7,4-10,2.77-5.74,4.09-8.08,2.58-4.34,3.64-6,2-2.82,2.6-3.64S208.51,205.45,208.51,205.45Z" transform="translate(-61.13 -20.54)"/><path class="cls-7" d="M246.08,232.44l-.44.91c-.29.57-.68,1.45-1.24,2.52s-1.19,2.39-1.93,3.9-1.61,3.16-2.53,5c-1.85,3.64-4,7.88-6.25,12.41-1.13,2.27-2.25,4.62-3.4,7S228,269,227,271.45s-2.12,4.9-3.09,7.33-1.88,4.84-2.68,7.19A100.92,100.92,0,0,0,217.55,299c-.24,1-.34,1.92-.5,2.82-.08.45-.16.89-.22,1.32s-.1.85-.14,1.25c-.23,1.63-.3,3.06-.37,4.25s0,2.14,0,2.79,0,1,0,1l-.37-.93-.43-1.13a9.66,9.66,0,0,1-.51-1.57,32.72,32.72,0,0,1-1-4.36,24.83,24.83,0,0,1-.32-2.74c-.07-1-.17-2-.15-3.06a59.33,59.33,0,0,1,1.71-14.43c.29-1.3.64-2.6,1-3.91.19-.65.39-1.31.58-2s.45-1.3.67-2c.88-2.63,2-5.22,3.06-7.8.59-1.27,1.19-2.54,1.78-3.8s1.25-2.49,1.9-3.69,1.3-2.41,2-3.57,1.35-2.3,2.06-3.4a115.67,115.67,0,0,1,8.26-11.59c1.31-1.63,2.56-3.07,3.7-4.33s2.17-2.31,3-3.18,1.57-1.51,2-1.95S246.08,232.44,246.08,232.44Z" transform="translate(-61.13 -20.54)"/><path class="cls-7" d="M256.26,254.58l-.48.59-1.32,1.65c-1.12,1.42-2.65,3.46-4.36,5.91-.84,1.24-1.75,2.57-2.64,4s-1.8,3-2.68,4.54-1.72,3.27-2.54,5-1.56,3.48-2.21,5.28c-.33.89-.69,1.78-1,2.7l-.45,1.35-.4,1.36c-.53,1.81-1,3.62-1.36,5.39-.23.88-.34,1.77-.52,2.63s-.3,1.71-.42,2.55c-.29,1.66-.42,3.26-.62,4.75s-.31,2.87-.35,4.11-.22,2.33-.22,3.23-.11,1.63-.13,2.12-.07.76-.07.76-.12-.24-.33-.69-.52-1.11-.85-2-.7-1.92-1.09-3.16a42.77,42.77,0,0,1-1-4.23,44.58,44.58,0,0,1-.6-5.14c-.06-.93-.09-1.88-.07-2.85s0-2,.13-3,.17-2,.35-3.07a28,28,0,0,1,.58-3.12l.36-1.58c.13-.52.29-1,.45-1.55.29-1,.67-2.07,1-3.09s.84-2,1.25-3,1-1.94,1.47-2.88,1-1.85,1.62-2.72,1.15-1.73,1.76-2.54a44.51,44.51,0,0,1,7.56-7.93,36.17,36.17,0,0,1,6.43-4.23,20.81,20.81,0,0,1,2-.9C256,254.66,256.26,254.58,256.26,254.58Z" transform="translate(-61.13 -20.54)"/><path class="cls-7" d="M274.3,236.3l-1.4,2.54c-.44.8-.94,1.79-1.53,2.9s-1.23,2.35-1.9,3.72c-1.35,2.72-2.84,5.89-4.22,9.32-.36.86-.68,1.74-1,2.62s-.64,1.78-1,2.69-.6,1.83-.87,2.75l-.42,1.39-.36,1.41c-.52,1.86-.87,3.75-1.24,5.62L260,274c-.1.93-.19,1.84-.29,2.74s-.14,1.8-.18,2.68,0,1.74-.07,2.58,0,1.66,0,2.46.09,1.58.12,2.32.13,1.46.17,2.15.1,1.35.19,2c.19,1.22.25,2.34.41,3.23s.24,1.62.32,2.11.09.77.09.77l-.46-.61c-.29-.41-.75-1-1.26-1.78s-1.06-1.77-1.69-2.93a38.32,38.32,0,0,1-1.74-4.06l-.78-2.43c-.2-.86-.41-1.75-.63-2.66s-.3-1.88-.46-2.86-.17-2-.26-3a42.67,42.67,0,0,1,.2-6.36,47.64,47.64,0,0,1,1.19-6.44,48.89,48.89,0,0,1,2.08-6.19,47.49,47.49,0,0,1,2.77-5.63,50.88,50.88,0,0,1,3.16-4.89c1.12-1.47,2.21-2.83,3.3-4a41.2,41.2,0,0,1,5.71-5.22,19.89,19.89,0,0,1,1.78-1.24C274.06,236.43,274.3,236.3,274.3,236.3Z" transform="translate(-61.13 -20.54)"/><path class="cls-7" d="M314.54,236.3s0,.25-.05.71-.08,1.13-.18,2c-.18,1.69-.46,4.08-.9,6.9s-1,6.07-1.68,9.52c-.31,1.73-.69,3.5-1.05,5.29s-.76,3.62-1.11,5.44-.74,3.63-1.13,5.41-.69,3.53-1.06,5.23-.61,3.33-.95,4.9c-.19.78-.27,1.54-.4,2.27s-.25,1.46-.37,2.14-.22,1.35-.3,2-.17,1.23-.25,1.8-.16,1.11-.24,1.6-.08,1-.11,1.36c-.06.83-.16,1.51-.2,2s-.1.71-.1.71l-.3-.64c-.17-.42-.48-1-.78-1.84l-.53-1.35c-.18-.5-.28-1-.44-1.63a36.87,36.87,0,0,1-.81-4c-.15-1.46-.39-3.07-.43-4.76s-.1-3.48,0-5.3c.05-.91.13-1.84.21-2.78s.18-1.88.33-2.82c.25-1.9.57-3.82,1-5.71l.63-2.83c.23-.93.5-1.85.74-2.77.49-1.84,1.09-3.61,1.67-5.32s1.24-3.33,1.86-4.86,1.3-3,1.94-4.26,1.25-2.48,1.85-3.51,1.13-1.91,1.59-2.63.86-1.27,1.11-1.65S314.54,236.3,314.54,236.3Z" transform="translate(-61.13 -20.54)"/><path class="cls-7" d="M383.38,174.68s.05.51.09,1.46.13,2.35.1,4.12,0,3.93-.14,6.41c-.06,1.23-.14,2.55-.24,3.93s-.27,2.84-.41,4.36-.4,3.1-.61,4.73-.54,3.31-.82,5c-.64,3.44-1.39,7.08-2.42,10.79-.25.92-.47,1.87-.76,2.8s-.59,1.88-.89,2.82-.61,1.9-.91,2.86l-1.08,2.83c-.36.95-.73,1.91-1.1,2.86s-.82,1.89-1.25,2.83c-.87,1.87-1.69,3.78-2.74,5.59a59.57,59.57,0,0,1-3.17,5.4c-.57.87-1.15,1.74-1.73,2.61l-.83,1.22-.85,1.22c-.57.81-1.14,1.61-1.7,2.42l-.85,1.19-.77,1.17c-.51.78-1,1.56-1.52,2.33l-.75,1.15-.72,1.18c-.94,1.58-1.91,3.11-2.75,4.67s-1.72,3.05-2.47,4.56c-.39.75-.77,1.5-1.15,2.22s-.7,1.48-1,2.2-.68,1.42-1,2.12l-.91,2.08c-1.2,2.71-2.16,5.26-3,7.53s-1.48,4.3-2,6-.86,3-1.06,3.95-.31,1.42-.31,1.42-.06-.51-.09-1.46,0-2.36.09-4.14c0-.9.16-1.88.25-3s.28-2.22.46-3.46a83.09,83.09,0,0,1,1.79-8.2c.4-1.49.85-3,1.39-4.6.26-.79.52-1.6.81-2.4l.94-2.45a97.51,97.51,0,0,1,4.62-10.12c.83-1.74,1.92-3.43,2.91-5.18l.77-1.31.79-1.24,1.62-2.47.82-1.24.81-1.28,1.53-2.41a55.85,55.85,0,0,0,2.87-5c1-1.66,1.78-3.45,2.61-5.19.4-.89.86-1.74,1.23-2.63s.75-1.78,1.12-2.67l1.12-2.65,1-2.67,1-2.65c.31-.88.61-1.76.91-2.64,1.22-3.48,2.26-6.92,3.23-10.18l1.36-4.79c.42-1.55.82-3.06,1.21-4.5.73-2.9,1.4-5.57,2-8s1.06-4.46,1.43-6.18Z" transform="translate(-61.13 -20.54)"/><path class="cls-7" d="M411.59,212.21s0,.43,0,1.24,0,2-.13,3.51-.24,3.34-.53,5.43-.67,4.43-1.18,7-1.18,5.28-2,8.14-1.81,5.85-3,8.89c-.58,1.52-1.19,3.06-1.87,4.6s-1.35,3.09-2.1,4.63-1.53,3.08-2.33,4.62-1.69,3-2.57,4.55c-1.81,3-3.68,5.92-5.71,8.68l-1.51,2.07c-.51.68-1.05,1.33-1.57,2-1.05,1.32-2.08,2.61-3.19,3.82s-2.12,2.44-3.23,3.55-2.14,2.26-3.25,3.26-2.13,2-3.2,2.95l-3.1,2.61c-2,1.61-3.94,3-5.68,4.24s-3.27,2.19-4.59,2.94-2.35,1.33-3.05,1.72l-1.09.59.85-.91c.57-.57,1.37-1.45,2.43-2.49s2.25-2.43,3.69-3.9c.72-.73,1.44-1.57,2.21-2.42s1.61-1.73,2.42-2.7l2.57-3c.88-1,1.75-2.13,2.67-3.24s1.81-2.27,2.74-3.45,1.86-2.41,2.78-3.67c1.87-2.5,3.7-5.15,5.52-7.86s3.58-5.53,5.28-8.39c.85-1.42,1.67-2.87,2.5-4.3s1.62-2.88,2.36-4.34c1.53-2.9,3-5.78,4.32-8.61s2.6-5.58,3.73-8.23,2.16-5.18,3.1-7.52,1.75-4.53,2.44-6.47,1.32-3.64,1.78-5.06l1.09-3.3Z" transform="translate(-61.13 -20.54)"/><path class="cls-7" d="M383.38,222.16s0,.38.05,1.09.05,1.75,0,3.07-.06,2.94-.2,4.77-.32,3.91-.6,6.16-.66,4.67-1.14,7.23-1.06,5.24-1.79,8-1.54,5.57-2.49,8.41-2.05,5.69-3.25,8.5c-.61,1.4-1.23,2.79-1.91,4.16s-1.36,2.72-2.09,4a77.61,77.61,0,0,1-4.65,7.57c-.82,1.19-1.68,2.33-2.52,3.44s-1.76,2.12-2.63,3.13l-2.67,2.8L354.83,297a47,47,0,0,1-5.08,3.76,38.12,38.12,0,0,1-4.23,2.36c-1.19.6-2.21.91-2.86,1.19l-1,.38.81-.72c.53-.47,1.33-1.13,2.29-2s2.09-1.95,3.27-3.3,2.52-2.82,3.89-4.49l2-2.69,2.05-3,2.05-3.22c.64-1.14,1.36-2.24,2-3.43,1.32-2.36,2.63-4.82,3.88-7.38l.93-1.93.9-2c.63-1.3,1.19-2.64,1.76-4,1.18-2.66,2.24-5.37,3.3-8s2-5.33,3-7.92c1.85-5.18,3.51-10.07,4.9-14.29Z" transform="translate(-61.13 -20.54)"/><path class="cls-7" d="M426.08,212.9s-.23,1.43-.64,3.94c-.19,1.24-.42,2.75-.68,4.49s-.54,3.67-.79,5.78-.53,4.4-.77,6.81-.44,4.94-.56,7.55c-.08,1.31-.1,2.63-.15,4s0,2.69,0,4.05c.09,2.71.14,5.46.46,8.17a74.44,74.44,0,0,0,1.2,8l.48,1.93c.16.63.27,1.29.48,1.9.4,1.22.71,2.48,1.18,3.64.22.59.44,1.18.65,1.76s.5,1.12.74,1.68.49,1.11.73,1.65l.84,1.55.81,1.52.9,1.4q.44.71.87,1.38c.3.44.64.84.93,1.26a55.27,55.27,0,0,0,3.61,4.38c1.2,1.21,2.26,2.29,3.17,3.16s1.69,1.47,2.21,1.92l.78.71-1-.36c-.63-.26-1.58-.6-2.77-1.11s-2.56-1.3-4.12-2.23a38.91,38.91,0,0,1-4.88-3.74c-.42-.37-.87-.75-1.29-1.17l-1.23-1.33L426,284.17l-1.17-1.55c-.4-.52-.8-1.06-1.19-1.61l-1.07-1.75a33.07,33.07,0,0,1-2-3.73,48,48,0,0,1-3-8.29,59.05,59.05,0,0,1-1.56-8.89,69,69,0,0,1-.28-9,77.73,77.73,0,0,1,.8-8.55c.38-2.75,1-5.37,1.55-7.83s1.29-4.74,2-6.82,1.45-4,2.14-5.61,1.38-3,1.95-4.18,1.08-2,1.41-2.61S426.08,212.9,426.08,212.9Z" transform="translate(-61.13 -20.54)"/><path class="cls-7" d="M409,243s0,.29.08.83.11,1.34.12,2.34a75.9,75.9,0,0,1-.25,8.29A92.65,92.65,0,0,1,407.29,266c-.21,1.05-.45,2.12-.72,3.19s-.54,2.16-.86,3.24c-.59,2.18-1.33,4.36-2.1,6.54-.43,1.07-.85,2.15-1.28,3.22s-.91,2.11-1.41,3.15-1,2.06-1.56,3-1.08,2-1.69,2.89-1.18,1.85-1.83,2.71-1.28,1.69-1.94,2.47-1.38,1.51-2,2.21-1.43,1.29-2.1,1.88-1.45,1.05-2.12,1.52-1.42.8-2.07,1.14a14.67,14.67,0,0,1-3.61,1.19,9.41,9.41,0,0,1-2.39.25h-.82l.73-.4a11.75,11.75,0,0,0,1.95-1.14A17.92,17.92,0,0,0,384,301c.44-.49.93-.95,1.4-1.5s.95-1.13,1.41-1.77a46.44,46.44,0,0,0,2.75-4.3c.44-.8.92-1.59,1.33-2.47.21-.43.43-.86.66-1.3l.64-1.35c.86-1.8,1.65-3.74,2.48-5.7s1.59-4,2.33-6c1.52-4.09,2.94-8.24,4.28-12.17s2.63-7.62,3.71-10.78c.57-1.59,1.1-3.05,1.56-4.34l1.27-3.35c.34-.93.67-1.66.86-2.16Z" transform="translate(-61.13 -20.54)"/><path class="cls-7" d="M435.77,216.2l.17,1.09c.1.71.3,1.76.48,3.09.39,2.63.95,6.4,1.63,10.92l1.07,7.24c.4,2.56.82,5.25,1.26,8,.23,1.39.46,2.8.7,4.23s.49,2.86.74,4.32c.55,2.89,1.07,5.83,1.7,8.75.29,1.46.58,2.92.93,4.36s.64,2.88,1,4.3q1,4.27,2.18,8.3c.37,1.34.82,2.62,1.19,3.91l1.23,3.72c.43,1.2.86,2.37,1.27,3.49s.88,2.19,1.29,3.23c.88,2,1.7,3.93,2.54,5.55s1.59,3,2.22,4.21,1.22,2,1.59,2.66l.57,1-.87-.69c-.54-.48-1.43-1.1-2.39-2.06a46.17,46.17,0,0,1-3.38-3.59,54.49,54.49,0,0,1-3.85-5.12c-.63-1-1.29-2-2-3.11s-1.25-2.25-1.88-3.44-1.2-2.46-1.79-3.74-1.13-2.62-1.66-4c-1.05-2.73-2.05-5.59-2.88-8.54-.42-1.47-.85-3-1.19-4.47s-.71-3-1-4.53c-.61-3.05-1.13-6.1-1.54-9.12s-.7-6-.89-8.88-.3-5.68-.34-8.33,0-5.15.12-7.46.26-4.42.44-6.29.4-3.49.58-4.83.39-2.38.51-3.09S435.77,216.2,435.77,216.2Z" transform="translate(-61.13 -20.54)"/><path class="cls-7" d="M466.52,271.91s.09.31.28.9.45,1.44.75,2.54l1.11,3.93q.6,2.28,1.35,5.09c1,3.72,2,8.06,3.18,12.68l1.76,7.11c.62,2.41,1.21,4.86,1.87,7.29s1.3,4.85,2,7.22,1.38,4.69,2.1,6.91,1.46,4.35,2.2,6.36l1.14,2.88,1.16,2.66c.41.83.81,1.63,1.18,2.39s.8,1.45,1.17,2.11a34.65,34.65,0,0,0,2.19,3.29,20,20,0,0,0,1.66,2l.62.71-.86-.39a13.19,13.19,0,0,1-2.36-1.3,24.41,24.41,0,0,1-3.35-2.6c-.59-.57-1.19-1.2-1.84-1.87l-1.86-2.22-1.83-2.54c-.58-.91-1.18-1.86-1.77-2.84a71,71,0,0,1-3.25-6.41c-.5-1.13-1-2.29-1.45-3.48s-.92-2.39-1.32-3.62c-.87-2.44-1.58-5-2.27-7.49s-1.23-5.07-1.72-7.59-.9-5-1.22-7.43a127.81,127.81,0,0,1-1.1-13.27c-.12-3.89,0-7.15.16-9.43.06-1.14.18-2,.23-2.65S466.52,271.91,466.52,271.91Z" transform="translate(-61.13 -20.54)"/><path class="cls-7" d="M482.87,234.7c.32,2.06.65,4.11.93,6.16l.89,6.15,1.67,12.26c.27,2,.53,4.08.83,6.11s.52,4.08.83,6.11c.53,4.07,1.11,8.13,1.69,12.18l.89,6.07.44,3,.5,3c.34,2,.62,4,1,6.05s.74,4,1.07,6,.78,4,1.16,6l.57,3,.68,3,.65,3c.21,1,.44,2,.72,3l1.51,5.88.13.48v.11c.11,2.54.31,5.08.47,7.65s.35,5.17.4,7.81c0,1.32,0,2.65-.08,4-.06.67-.08,1.33-.18,2s-.17,1.33-.32,2a18.63,18.63,0,0,1-.47,2,14.5,14.5,0,0,1-.64,1.89,18.4,18.4,0,0,1-.83,1.8c-.3.59-.68,1.13-1,1.68.17-.63.37-1.24.52-1.86a17.73,17.73,0,0,0,.35-1.88,17.1,17.1,0,0,0,.19-1.88,14.71,14.71,0,0,0,0-1.88c0-.62-.06-1.25-.09-1.87s-.13-1.25-.19-1.87c-.16-1.24-.35-2.49-.58-3.73l-.74-3.75-.78-3.79c-.52-2.53-1-5.11-1.39-7.7l.13.59-2.13-5.95c-.36-1-.67-2-1-3l-.88-3-.87-3-.74-3.05c-.47-2-1-4.07-1.39-6.12s-.79-4.1-1.18-6.15-.68-4.11-1-6.17-.63-4.12-.85-6.19-.52-4.13-.71-6.2l-.55-6.22-.41-6.22c-.12-2.07-.19-4.14-.26-6.22s-.13-4.15-.13-6.23q-.06-6.22.19-12.45c.07-2.07.21-4.15.36-6.22S482.62,236.77,482.87,234.7Z" transform="translate(-61.13 -20.54)"/><path class="cls-7" d="M495.51,142.75s.19.32.54.94.9,1.51,1.53,2.66c1.31,2.26,3.19,5.48,5.45,9.36,1.13,1.91,2.36,4,3.68,6.15s2.73,4.43,4.2,6.76l2.26,3.52,2.38,3.56q1.22,1.78,2.48,3.56c.82,1.2,1.68,2.37,2.56,3.53,1.7,2.36,3.53,4.61,5.31,6.84l2.75,3.22c.94,1,1.84,2.08,2.77,3.06,1.86,2,3.7,3.83,5.53,5.52s3.61,3.22,5.31,4.6l2.48,1.92,2.33,1.64c.72.54,1.44,1,2.1,1.39l1.81,1.16c2.27,1.28,3.59,2.08,3.59,2.08L553.5,214c-.7-.14-1.75-.29-3-.61l-2.13-.61a22,22,0,0,1-2.49-.83c-.87-.33-1.81-.7-2.78-1.11l-3-1.45a61.63,61.63,0,0,1-6.4-3.89,69.72,69.72,0,0,1-6.56-5.18,81.7,81.7,0,0,1-6.33-6.3c-2-2.26-4-4.64-5.79-7.1s-3.54-5-5.11-7.58-3-5.14-4.33-7.68-2.47-5-3.49-7.45-1.91-4.7-2.68-6.84-1.38-4.14-1.88-5.92-.88-3.35-1.19-4.64-.48-2.33-.61-3S495.51,142.75,495.51,142.75Z" transform="translate(-61.13 -20.54)"/><path class="cls-7" d="M507.78,184.23s.67,1.07,1.77,2.94,2.66,4.53,4.49,7.69l3,5.09,3.31,5.61,1.78,2.93c.61,1,1.22,2,1.85,3s1.27,2,1.92,3,1.3,2,2,2.94c1.31,2,2.73,3.84,4.12,5.69l2.13,2.66c.75.83,1.45,1.71,2.19,2.5s1.45,1.59,2.2,2.31l1.1,1.08c.36.36.76.67,1.12,1l1.09,1,1.12.87c.36.28.72.59,1.08.85l1.09.74c.36.24.71.5,1.06.72l1,.6,1,.6c.33.18.67.31,1,.47.65.29,1.26.63,1.84.84l1.64.6c1,.37,1.82.52,2.38.7l.88.25L555,241l-1.08.16a6.76,6.76,0,0,1-1.49.12H550.6a21,21,0,0,1-2.2-.24c-.39-.06-.81-.1-1.22-.19l-1.26-.32-1.33-.36c-.45-.15-.89-.32-1.35-.49l-1.41-.55c-.47-.21-.93-.45-1.41-.68l-1.44-.73-1.42-.86a32,32,0,0,1-2.85-1.95c-1-.66-1.84-1.48-2.78-2.25a54.6,54.6,0,0,1-5.23-5.3,71.23,71.23,0,0,1-4.63-6c-1.44-2.1-2.76-4.25-4-6.42s-2.3-4.34-3.28-6.47a92.2,92.2,0,0,1-4.49-12,71.4,71.4,0,0,1-2.08-8.81c-.21-1.07-.29-1.93-.38-2.51S507.78,184.23,507.78,184.23Z" transform="translate(-61.13 -20.54)"/><path class="cls-7" d="M526.56,224l5,7.77c1.49,2.27,3.21,4.87,5.13,7.56.94,1.35,2,2.7,3,4.08s2.1,2.73,3.24,4,2.26,2.6,3.4,3.85c.58.63,1.19,1.21,1.75,1.82l1.76,1.73c.58.55,1.19,1.07,1.75,1.62l1.73,1.51c1.16.95,2.26,1.86,3.33,2.65.51.43,1,.8,1.54,1.15l1.42,1c.92.6,1.71,1.2,2.39,1.64s1.22.8,1.59,1l.57.4h-.69c-.44,0-1.1,0-1.94-.12s-1.83-.25-3-.46a34.55,34.55,0,0,1-8.11-2.92c-.74-.39-1.49-.81-2.25-1.25s-1.5-.95-2.25-1.46a41,41,0,0,1-4.37-3.54,45.18,45.18,0,0,1-4-4.19,50.29,50.29,0,0,1-3.43-4.63,52.24,52.24,0,0,1-2.76-4.8,48.07,48.07,0,0,1-3.5-9.11,38.37,38.37,0,0,1-1.23-6.77c-.09-.83-.09-1.49-.1-1.94S526.56,224,526.56,224Z" transform="translate(-61.13 -20.54)"/><path class="cls-7" d="M535.84,254.58l.29.35.76,1c.63.81,1.49,2,2.47,3.36.47.7,1,1.44,1.52,2.23s1,1.62,1.62,2.46c.29.42.55.86.82,1.3s.57.86.84,1.31c.54.89,1.13,1.76,1.68,2.66s1.11,1.77,1.67,2.61c.29.42.57.85.83,1.28s.57.8.82,1.22c.53.83,1.08,1.58,1.59,2.31a10.15,10.15,0,0,0,.77,1.07l.74,1c.12.17.24.33.35.5s.25.27.37.42l.67.83c.22.27.41.54.61.77l.56.6c.69.77,1.1,1.3,1.1,1.3a14.76,14.76,0,0,1-1.71,0,8.12,8.12,0,0,1-2-.32,13.47,13.47,0,0,1-2.43-.83,17.13,17.13,0,0,1-2.66-1.45,18.57,18.57,0,0,1-2.65-2.06,20.53,20.53,0,0,1-2.45-2.56,30.81,30.81,0,0,1-2.14-2.92,33.33,33.33,0,0,1-1.71-3.15,25.27,25.27,0,0,1-1.3-3.2,28.61,28.61,0,0,1-.88-3.1,27.68,27.68,0,0,1-.46-2.86,21.11,21.11,0,0,1,0-4.41,12.37,12.37,0,0,1,.21-1.24C535.81,254.74,535.84,254.58,535.84,254.58Z" transform="translate(-61.13 -20.54)"/><path class="cls-7" d="M177.38,232.44l-.17,1.41c-.12.92-.26,2.27-.5,4-.43,3.41-1.08,8.28-1.89,14.09s-1.75,12.56-2.76,19.8c-.48,3.61-1,7.35-1.48,11.14s-1,7.64-1.36,11.49c-.23,1.93-.45,3.85-.62,5.77s-.38,3.82-.54,5.72c-.33,3.79-.6,7.52-.8,11.13-.12,1.8-.14,3.57-.24,5.31s-.07,3.43-.1,5.09,0,3.25,0,4.81.13,3.05.18,4.49.22,2.81.32,4.12.3,2.54.45,3.71a58.86,58.86,0,0,0,1.16,6c.22.82.35,1.59.57,2.2s.38,1.17.53,1.61l.43,1.35s-.28-.4-.79-1.17a25.45,25.45,0,0,1-2.05-3.5,45.94,45.94,0,0,1-2.48-5.82c-.36-1.17-.75-2.42-1.15-3.73l-1-4.2c-.29-1.47-.54-3-.83-4.62s-.41-3.26-.63-5-.29-3.47-.41-5.27-.16-3.63-.19-5.5c0-3.73,0-7.59.24-11.49.1-1.95.21-3.91.4-5.88s.36-3.94.57-5.9c.89-7.87,2.18-15.68,3.7-22.92s3.25-13.92,4.92-19.59,3.28-10.34,4.49-13.58c.58-1.62,1.12-2.88,1.45-3.74Z" transform="translate(-61.13 -20.54)"/><path class="cls-7" d="M155.45,271.91l.12,1.1c.06.72.18,1.77.26,3.11.2,2.67.39,6.49.42,11.06s-.06,9.9-.39,15.59c-.15,2.85-.36,5.78-.63,8.77s-.59,6-.95,9-.79,6-1.27,9-1,5.88-1.58,8.68-1.2,5.51-1.84,8.07c-.35,1.27-.69,2.51-1,3.71s-.72,2.34-1.06,3.44-.72,2.15-1.08,3.14-.73,1.93-1.09,2.8-.72,1.68-1.08,2.42l-1,2a21.9,21.9,0,0,1-1.69,2.67l-.67.87s.11-.36.31-1.06.43-1.7.75-3c.12-.64.25-1.36.4-2.14s.26-1.63.4-2.53c.27-1.82.54-3.86.82-6.09.55-4.47,1.12-9.7,1.74-15.3.32-2.81.65-5.7,1-8.65s.7-5.93,1.06-8.92.77-6,1.15-8.92.8-5.84,1.22-8.65c.83-5.6,1.69-10.83,2.52-15.31s1.61-8.21,2.22-10.82c.28-1.31.56-2.33.72-3S155.45,271.91,155.45,271.91Z" transform="translate(-61.13 -20.54)"/><path class="cls-7" d="M518.88,284.69s.37.6,1,1.63,1.35,2.49,2.2,4.22,1.78,3.73,2.73,5.85c.24.52.48,1.06.72,1.6s.5,1.08.73,1.63c.51,1.09,1,2.2,1.5,3.28s1,2.17,1.52,3.23c.25.53.53,1,.77,1.56s.53,1,.77,1.5c.53,1,1,1.92,1.55,2.81s1,1.7,1.52,2.48,1,1.47,1.44,2.08.88,1.14,1.22,1.62c.73.89,1.18,1.46,1.18,1.46a4.49,4.49,0,0,1-.5,0c-.32-.05-.81-.08-1.41-.21a13.56,13.56,0,0,1-2.12-.67c-.39-.16-.82-.33-1.25-.55s-.87-.47-1.34-.73-.9-.6-1.37-.93-.91-.72-1.39-1.1-.89-.84-1.35-1.28-.86-.94-1.3-1.43a28.77,28.77,0,0,1-2.35-3.26,30.54,30.54,0,0,1-1.94-3.61,36.18,36.18,0,0,1-2.49-7.54,34.65,34.65,0,0,1-.78-6.84,28.33,28.33,0,0,1,.36-4.9A14.87,14.87,0,0,1,518.88,284.69Z" transform="translate(-61.13 -20.54)"/><path class="cls-7" d="M516.18,298.84s.06.17.16.48.26.73.44,1.27.42,1.19.71,1.91c.15.35.28.73.44,1.13l.51,1.21c.17.43.35.86.57,1.29s.39.9.62,1.35c.49.9.89,1.86,1.45,2.78.29.46.5.95.8,1.42s.6.92.88,1.41c.15.23.27.48.44.71s.33.45.49.68l.95,1.39,2.08,2.68c.78.81,1.46,1.71,2.19,2.53s1.5,1.57,2.18,2.35,1.45,1.41,2.09,2.1,1.24,1.34,1.82,1.85,1,1,1.44,1.48c.79.86,1.24,1.42,1.24,1.42a17.34,17.34,0,0,1-1.87-.17c-.59-.07-1.3-.19-2.12-.36a11.32,11.32,0,0,1-1.29-.3c-.44-.14-.89-.31-1.37-.48-.95-.37-2-.76-3-1.29s-2.09-1.22-3.17-1.94a16,16,0,0,1-1.54-1.23c-.52-.43-1-.88-1.54-1.35A40,40,0,0,1,519,320a28.34,28.34,0,0,1-2.16-3.62,20.22,20.22,0,0,1-1.49-3.8,23.76,23.76,0,0,1-.78-3.7,23.07,23.07,0,0,1-.1-3.38c0-.52.06-1,.12-1.48s.14-.92.22-1.33a17.77,17.77,0,0,1,.58-2.1A9.58,9.58,0,0,1,516.18,298.84Z" transform="translate(-61.13 -20.54)"/><path class="cls-7" d="M503.79,312.48a16.15,16.15,0,0,1,2.31.74c.72.29,1.57.67,2.52,1.16a33.06,33.06,0,0,1,3.09,1.85,39.18,39.18,0,0,1,3.4,2.58c.59.48,1.13,1,1.72,1.58a23.51,23.51,0,0,1,1.7,1.75,35.31,35.31,0,0,1,3.21,4c.49.73,1.06,1.41,1.49,2.19l1.32,2.31.63,1.17.55,1.21c.37.81.7,1.63,1,2.43a17,17,0,0,1,.84,2.46c.25.82.5,1.62.71,2.43a18.48,18.48,0,0,1,.5,2.39c.12.79.26,1.55.36,2.3a26.45,26.45,0,0,1,.26,4.25,25.38,25.38,0,0,1-.12,3.58c-.13,1.07-.27,2-.41,2.74-.28,1.51-.5,2.35-.5,2.35s-.37-.82-.9-2.24c-.27-.7-.56-1.56-.87-2.52l-.24-.75c-.1-.25-.21-.51-.31-.78-.21-.53-.42-1.09-.64-1.67-.45-1.15-.79-2.42-1.39-3.68-.27-.64-.52-1.31-.8-2s-.48-1.37-.83-2c-.66-1.34-1.2-2.78-1.9-4.16-.35-.7-.72-1.39-1-2.1L519,335l-.59-1-1.12-2.08c-.38-.69-.8-1.34-1.19-2s-.76-1.36-1.19-2-.84-1.27-1.23-1.91-.83-1.22-1.22-1.83l-1.19-1.76c-.83-1.11-1.56-2.23-2.31-3.19s-1.42-1.9-2-2.71l-1.64-2.11Z" transform="translate(-61.13 -20.54)"/><path class="cls-7" d="M299.72,202.86s-.57,1.32-1.58,3.62-2.34,5.57-3.86,9.49c-.76,2-1.56,4.09-2.36,6.35l-1.2,3.47c-.36,1.2-.81,2.39-1.17,3.64-.76,2.47-1.49,5-2.17,7.65-.36,1.3-.6,2.64-.94,4s-.58,2.66-.81,4-.51,2.68-.67,4c-.09.67-.19,1.34-.28,2s-.15,1.33-.22,2c-.3,2.66-.45,5.28-.51,7.83s0,5,.17,7.35c0,1.18.23,2.3.31,3.41s.27,2.16.42,3.18c.25,2.07.73,3.91,1,5.6s.74,3.12,1.06,4.32.63,2.14.82,2.78l.27,1-.63-.82c-.39-.55-1-1.34-1.72-2.39s-1.47-2.41-2.34-4A52.61,52.61,0,0,1,278.91,269a56.7,56.7,0,0,1-1.16-7.92c-.09-1.39-.21-2.81-.18-4.23V254.7c0-.73.08-1.45.12-2.18s.1-1.46.14-2.19.17-1.46.26-2.19c.15-1.47.43-2.91.66-4.37s.62-2.88.93-4.31.74-2.84,1.18-4.21.86-2.75,1.36-4.06,1-2.63,1.52-3.89c1.05-2.53,2.21-4.91,3.38-7.11s2.39-4.23,3.57-6.06,2.33-3.45,3.4-4.85,2.06-2.58,2.88-3.54,1.53-1.67,2-2.15S299.72,202.86,299.72,202.86Z" transform="translate(-61.13 -20.54)"/><path class="cls-7" d="M353.05,206.32l-7.17,15.76c-1.07,2.35-2.2,4.9-3.38,7.59s-2.39,5.55-3.63,8.49-2.45,6-3.64,9.13l-.9,2.35-.85,2.37c-.6,1.58-1.12,3.19-1.67,4.79s-1,3.2-1.56,4.8-.93,3.21-1.4,4.8c-.83,3.19-1.64,6.34-2.22,9.41-.15.77-.29,1.54-.44,2.29s-.22,1.51-.35,2.25-.22,1.48-.33,2.21-.14,1.45-.22,2.16-.17,1.42-.2,2.11-.06,1.37-.1,2.05c-.11,1.35-.06,2.64-.05,3.89,0,.62,0,1.25,0,1.84s.09,1.18.14,1.75.08,1.13.12,1.67.17,1.06.23,1.56c.17,1,.26,2,.47,2.85s.39,1.68.56,2.4a16.41,16.41,0,0,0,.56,1.93c.18.56.34,1,.46,1.42l.38,1.2-.73-1-.87-1.25a10.49,10.49,0,0,1-1.08-1.76q-.56-1-1.2-2.28c-.46-.84-.74-1.81-1.17-2.82-.19-.51-.41-1-.58-1.59s-.32-1.13-.48-1.72l-.5-1.83c-.16-.63-.24-1.28-.38-1.94a37.87,37.87,0,0,1-.59-4.16c-.07-.73-.14-1.47-.2-2.21s-.05-1.51-.08-2.28,0-1.56,0-2.35.07-1.59.1-2.4c0-1.62.22-3.26.41-4.92a88,88,0,0,1,1.77-10.14c.42-1.7.85-3.41,1.33-5.11s1-3.39,1.58-5.05c1.16-3.34,2.37-6.65,3.77-9.82s2.82-6.26,4.31-9.19a153.72,153.72,0,0,1,9.09-15.45c1.46-2.17,2.86-4.12,4.13-5.83s2.44-3.15,3.41-4.34,1.77-2.08,2.31-2.69Z" transform="translate(-61.13 -20.54)"/><path class="cls-18" d="M536.13,371.54A11.1,11.1,0,1,1,525,359.93,11.36,11.36,0,0,1,536.13,371.54Z" transform="translate(-61.13 -20.54)"/><path class="cls-18" d="M128.12,371.21A11.1,11.1,0,1,1,117,359.59,11.36,11.36,0,0,1,128.12,371.21Z" transform="translate(-61.13 -20.54)"/><path class="cls-8" d="M96.32,224S127.21,43.07,306,47c114.18,5.45,168,60.82,186.22,97.36,14.37,31.1,17.23,34.21,17.23,34.21l-18.77-15.79s20.52,52.06,28.2,56.67-9.54-3.21-9.54-3.21l17.54,29.51-14.06-11s11.5,15,15.59,39.18l3.09,12.86s-16.28-31.21-39.28-56.09c8.92,11.72,13.09,46.13,17.23,48.39s-11.34-7.13-11.34-7.13L498.5,294l-7.82-22.13s-10.2-51.56-27.51-63.52c5.27,6-2.42,36.05,0,65.45-.95-.33-16.12-36.75-15.55-80.43-1,3-4.11,52.3-4.11,52.3S425,202.92,426.08,182.16s-7,34-7,34l-5.89-29.5s-14,64.56-29.79,82.17c-.57-.81,16.2-73.77-4.64-98.4-4.5,1.83,3.32,48.56-25.69,75.24-5.27,9.89-11.4,20.19-11.4,20.19s5-31.25,11.4-43.74,3.69-35.46,3.69-35.46-41.09,52.61-37.62,76.71c-1.71-10.92-8.85-32.31,2.12-51.2-11.61,20-22.87,39-21.52,50.17-1-2.88,0-31.73,0-31.73l-9.46,23.93s3.17-64.28,14-79.9c-12.53,18.64-31.51,55.68-47.71,71l-16.2,15.34s13.77-24.12,17.78-41.64S262,206.32,262,206.32s-28.92,29.84-40.65,57.09c-2.85-3.91-7.52-31.83,4.16-58-6.23,7.34-30.21,56.91-26.78,66.46-1.25,2.38,4.13-61.46,13.51-80.14s-40.26,64.67-34.9,116.8c-3.11,6.08-8.78-53.37,5.68-96.37-5.78,13-15.77,44.24-18.95,56.67s-8.66-26-8.66-26-18,73.79-14.45,85.67-18.69-25.94-6-85.67c5.68-35.58-9.74,23.75-9.74,23.75l-1.5-32S104.66,280.16,106.68,294c3.65-12-2.09-49,0-57.74-1,6.85-13.6,47.23-13.6,47.23S90,248.17,96.32,224Z" transform="translate(-61.13 -20.54)"/><path class="cls-18" d="M315.25,377.92c0,10-19.63,18.08-43.84,18.08s-43.84-8.09-43.84-18.08,19.63-18.08,43.84-18.08S315.25,367.94,315.25,377.92Z" transform="translate(-61.13 -20.54)"/><ellipse class="cls-19" cx="209.48" cy="357.8" rx="37.12" ry="13.11"/><path class="cls-18" d="M462.81,374.22c0,9.52-18.72,17.24-41.81,17.24s-41.8-7.72-41.8-17.24S397.91,357,421,357,462.81,364.7,462.81,374.22Z" transform="translate(-61.13 -20.54)"/><path class="cls-19" d="M562.41,311.75h0a313,313,0,0,0,1.76-33C564.16,124.78,446.22,22,307.73,22S62.63,124.78,62.63,278.71A306,306,0,0,0,78,375.05q3.33,10,7.32,19.71c9.11,40.8,23.79,85.11,45.16,90.36-1.39,4,60.57,223,207.33,224.46,122.76-1.5,166-229.68,166-229.68S541.25,459.37,555.92,357c1.36-9.52,2.44-17,3.29-23q2-10.81,3.15-21.91Z" transform="translate(-61.13 -20.54)"/><ellipse class="cls-19" cx="360" cy="354.28" rx="35.97" ry="12.89"/></svg>