<svg id="Layer_1" data-name="Layer 1" xmlns="http://www.w3.org/2000/svg" viewBox="0 0 336.23 370.99"><defs><style>.cls-1{fill:#3f5169;stroke-width:5px;}.cls-1,.cls-18,.cls-22,.cls-5{stroke:#231f20;stroke-miterlimit:10;}.cls-2{fill:#f9fafb;}.cls-3{fill:#a3aac6;}.cls-4{fill:#616482;}.cls-5{fill:#3c8ebd;stroke-width:4px;}.cls-22,.cls-6{fill:#231f20;}.cls-7{fill:#2b3b52;}.cls-8{fill:#edebee;}.cls-9{fill:#f4cebb;}.cls-10{fill:#d99b87;}.cls-11{fill:#231f1f;}.cls-12{fill:#cdd1cd;}.cls-13{fill:#e2b4a2;}.cls-14{fill:#eb9f9c;}.cls-15{fill:#d28682;}.cls-16{fill:#edeee4;}.cls-17{fill:#f1f2f2;}.cls-18{fill:#107264;}.cls-19{fill:#fbfbfc;}.cls-20{fill:#00a79d;}.cls-21{fill:#c67d7a;}.cls-22{stroke-width:2px;}</style></defs><title>ooh_guy</title><path class="cls-1" d="M63.66,399.29s1.1-21.33,4-26.11,11-22,13.22-26.06,2.57-11.38,14-12.48,10.64-1.47,18-4.41,15-4,29.73-6.24,20.56-4.41,20.56-4.41l87-8.81s15.78,2.94,24.23,5.51,56.17,15.05,65.35,16.52,13.58,10.32,20.55,22.23,18,44.26,18,44.26Z" transform="translate(-45.54 -30.8)"/><polygon class="cls-2" points="125.13 368.49 125.13 295.99 206.63 279.98 217.29 287.47 215.16 368.49 125.13 368.49"/><path class="cls-3" d="M254.57,399.29s1.33-16.57-5.06-19.5-15.45-4.79-15.45-1.86v21.36s-2.93-21.92-4.79-22.84-4.53,1.48-4.53,1.48-5.86,2.93-6.39,6.66-7.46,7.72-8.26,7.45-10.65,5.6-10.65,5.6-5.59-26.37-8.26-24.51,0,21,0,21-4.26-18.64-7.19-19.71-4,18.12-4,22.38-1.07-25.23-3.73-23.8-2.13,26.25-2.13,26.25h-3.47V370.47L216.75,351l42.08,19.7v28.56Z" transform="translate(-45.54 -30.8)"/><path class="cls-4" d="M212.49,361.41l46.34,16.52v2.93s-31.69-8.53-34.89-7.2-7.19,8.79-7.19,8.79S204.5,368.07,200,369.14s-28.23,6-28.23,6l-1.07.9v-4.13Z" transform="translate(-45.54 -30.8)"/><polygon class="cls-5" points="169.21 355.12 175.43 368.49 152.5 368.49 156.3 353.52 169.21 355.12"/><path class="cls-5" d="M202.64,390.71l12.11-1.23,9.71-23.8-28,2.13S200.23,391,202.64,390.71Z" transform="translate(-45.54 -30.8)"/><polygon class="cls-6" points="217.29 283.74 243.13 315.43 234.6 330.62 258.31 344.36 254.84 368.49 267.65 368.49 267.65 334.88 249.56 327.77 262.04 317.19 228.85 285.48 217.29 283.74"/><polygon class="cls-6" points="97.05 293.19 75.86 320.39 86.31 330.62 63.83 341.14 72.51 368.49 84.92 368.49 80.65 344.36 102.62 330.39 88.91 318.1 107.84 291.3 97.05 293.19"/><path class="cls-1" d="M253.77,303.08s8.79,9.06,14.92,15.45,28.76,29,28.76,29l-10.78,12,20.91,12.38-3.2,27.36H258.83s1.26-82.69-5.9-88C252.18,310.77,253.77,303.08,253.77,303.08Z" transform="translate(-45.54 -30.8)"/><path class="cls-1" d="M151.76,322.09l-20,28.94,10,10.38L121.4,375.16l6.12,24.13h44.75s1.87-51.73-1.6-57.05-10.44-21.77-10.44-21.77Z" transform="translate(-45.54 -30.8)"/><path class="cls-6" d="M285.47,377.13c1.06.53,13.58,5.32,13.58,5.32l-1.6,3.73-12-6.12Z" transform="translate(-45.54 -30.8)"/><path class="cls-6" d="M344.18,334.24a24.63,24.63,0,0,1,5.75,10.66c1.33,6.12,9.58,54.39,9.58,54.39h-5.32S349.89,338.5,344.18,334.24Z" transform="translate(-45.54 -30.8)"/><path class="cls-6" d="M92.63,337.17s-3.19.8-4,12.26,0,49.86,0,49.86H83.58S82,337.44,92.63,337.17Z" transform="translate(-45.54 -30.8)"/><path class="cls-7" d="M70.26,371.93l8.52,27.36H75.85S65.73,372.33,70.26,371.93Z" transform="translate(-45.54 -30.8)"/><path class="cls-8" d="M221,368.23l35.86,10s3.14-63.07-4.1-68.74C250.16,310.77,241,348.49,221,368.23Z" transform="translate(-45.54 -30.8)"/><path class="cls-6" d="M221.55,368.07c1.37.19,2.75.4,4.12.64l4.59.84,4.57.92,4.55,1c1.52.32,3,.71,4.53,1.06s3,.7,4.53,1.11c3,.79,6,1.52,9,2.38l-2.85,2.05c.08-1.42.17-2.87.28-4.31s.21-2.88.35-4.32l.82-8.65c.14-1.44.24-2.88.35-4.33s.17-2.89.24-4.33c.14-2.89.16-5.79.07-8.68s-.21-5.77-.45-8.65-.59-5.75-1-8.59-.9-5.67-1.5-8.4c-.32-1.36-.65-2.7-1.07-3.94a13.43,13.43,0,0,0-.71-1.69,2.93,2.93,0,0,0-.65-.91l2.47.24c.28-.06.56-.46.44-.28s0,.06-.11.21l-.18.35-.18.42c-.25.57-.49,1.2-.73,1.84L251.61,318c-.94,2.63-1.85,5.3-2.87,7.94s-2.07,5.27-3.23,7.86c-.57,1.3-1.17,2.58-1.79,3.87s-1.23,2.56-1.91,3.81-1.34,2.51-2,3.76-1.39,2.48-2.15,3.69-1.52,2.42-2.31,3.61-1.61,2.35-2.46,3.51-1.7,2.29-2.63,3.38-1.85,2.17-2.81,3.22-2,2.07-3,3C223.49,366.5,222.51,367.28,221.55,368.07Zm-.75,0c.85-1.12,1.72-2.21,2.53-3.35s1.61-2.28,2.38-3.43,1.52-2.32,2.22-3.51,1.42-2.38,2.1-3.58,1.32-2.43,2-3.65,1.27-2.45,1.88-3.69l1.79-3.74c.58-1.25,1.17-2.51,1.71-3.78l1.65-3.8,1.6-3.84,3.14-7.72,3.13-7.78c.52-1.31,1.06-2.61,1.64-3.94.29-.66.58-1.33.93-2l.26-.52.33-.58a6,6,0,0,1,.45-.67,2.7,2.7,0,0,1,.4-.46,4.71,4.71,0,0,1,.77-.58l1.3-.76,1.17,1a7.09,7.09,0,0,1,1.87,2.6,17.48,17.48,0,0,1,.82,2.36,32.47,32.47,0,0,1,.86,4.53,80.26,80.26,0,0,1,.56,8.85c.06,2.92,0,5.84,0,8.75s0,5.81,0,8.71,0,5.81.14,8.71c.05,1.45.08,2.9.16,4.35l.22,4.36c.14,2.9.3,5.81.36,8.72.05,1.45.05,2.9,0,4.36s0,2.9-.09,4.37l-.1,2.79-2.74-.74c-3-.8-6-1.73-8.94-2.6-1.49-.43-3-.92-4.44-1.38s-3-.92-4.43-1.43L234,373.46l-4.39-1.57-4.37-1.65q-2.18-.84-4.34-1.77l-.32-.14Z" transform="translate(-45.54 -30.8)"/><path class="cls-8" d="M169,339.35s24.05,27.12,27.51,28.46l-25.84,5.72Z" transform="translate(-45.54 -30.8)"/><path class="cls-6" d="M169.19,339.18c1.4,1,2.68,2,4,3.09s2.53,2.16,3.74,3.28q3.66,3.36,7.06,6.94c1.14,1.19,2.24,2.41,3.28,3.69.53.63,1,1.29,1.54,1.94s1,1.31,1.5,2c1,1.32,2,2.62,3.08,3.87.55.61,1.1,1.21,1.68,1.77.29.28.59.54.89.79a5.13,5.13,0,0,0,.84.58l1.9,1-2,.42c-1.08.23-2.15.49-3.22.76s-2.13.57-3.18.91c-2.12.63-4.22,1.38-6.32,2.08-1,.36-2.1.71-3.16,1s-2.12.64-3.18.94L171.22,376l-2.8.75-.25-3.08-.36-4.27c-.1-1.42-.18-2.85-.23-4.27s-.08-2.85-.09-4.28,0-2.86,0-4.29.07-2.85.12-4.28.14-2.87.22-4.3c0-.71.11-1.43.16-2.15s.11-1.43.19-2.15c.14-1.43.32-2.87.54-4.31l.07-.43Zm.38,1.57c.22.95.45,1.88.64,2.82.15.71.28,1.42.4,2.12s.27,1.42.37,2.13c.22,1.42.46,2.83.64,4.25s.39,2.84.53,4.26.33,2.84.45,4.26.24,2.84.33,4.27.15,2.85.19,4.27l.06,4.28-3.05-2.33,6.52-1.13c1.1-.18,2.18-.37,3.28-.5s2.2-.28,3.3-.4c2.2-.26,4.42-.46,6.6-.78,1.1-.14,2.19-.36,3.28-.53s2.16-.42,3.24-.67l-.11,1.44a6.65,6.65,0,0,1-1.24-.75c-.36-.25-.7-.52-1-.78l-2-1.57-4-3.11c-.65-.52-1.31-1-1.95-1.58s-1.28-1.07-1.88-1.64q-1.84-1.68-3.51-3.53-3.34-3.69-6.35-7.66c-1-1.33-2-2.7-2.9-4.07C170.79,342.82,170.18,341.79,169.57,340.75Z" transform="translate(-45.54 -30.8)"/><path class="cls-6" d="M218.88,319.32s10,6.33,11.14,11.66C230.49,331.3,221.69,320.78,218.88,319.32Z" transform="translate(-45.54 -30.8)"/><path class="cls-6" d="M198.88,358.56s12-11.09,21.61-.86C211.58,353.38,209.68,352.86,198.88,358.56Z" transform="translate(-45.54 -30.8)"/><path class="cls-9" d="M100.85,186.25S82.28,168.38,75.69,179s-1.37,25.51,3.45,32.22S95.56,231.47,98,236.35s10.69,16.41,16.53,10.18C115.51,244.21,114.72,198.59,100.85,186.25Z" transform="translate(-45.54 -30.8)"/><path class="cls-10" d="M90.4,221.58s-7.63-12.57-12-19.18-3.55-24.13.94-22.77,8.37,6,8.37,6-1.67,24.43,4,37Z" transform="translate(-45.54 -30.8)"/><path class="cls-11" d="M102.63,202.92s-2.77-2.16-6.55-5.79c-.94-.91-2-1.91-3-3s-2.16-2.21-3.21-3.49l-1.63-1.92c-.53-.7-1.07-1.4-1.59-2.13l-.72-1c-.25-.32-.47-.58-.72-.87a13.62,13.62,0,0,0-1.71-1.6,9.76,9.76,0,0,0-3.91-2.06,2.35,2.35,0,0,0-.75-.05h0s0,0,.09-.07a.27.27,0,0,0,.08-.1l0,0s0-.07,0-.05v0l0,.06-.19.25a8.94,8.94,0,0,0-.58.93,5.75,5.75,0,0,0-.45,1,16.25,16.25,0,0,0-1,4.2,13.32,13.32,0,0,0-.15,2.08c0,.68-.09,1.33-.08,2,.09,1.27.13,2.45.17,3.5s.24,1.95.31,2.71c.17,1.51.25,2.39.25,2.39s-.32-.81-.83-2.26c-.24-.73-.58-1.61-.86-2.64s-.5-2.24-.76-3.56c-.11-.66-.14-1.36-.21-2.09a14,14,0,0,1-.08-2.26,23.27,23.27,0,0,1,.19-2.44,13.15,13.15,0,0,1,.62-2.53,9.19,9.19,0,0,1,.51-1.3c.22-.41.45-.91.67-1.23l.17-.26,0-.07v0l0-.07.07-.08a3.11,3.11,0,0,1,.32-.31,2.27,2.27,0,0,1,.64-.37,2.23,2.23,0,0,1,.57-.17,5.28,5.28,0,0,1,1.79,0,10.21,10.21,0,0,1,2.83,1,14.63,14.63,0,0,1,2.43,1.57,18.37,18.37,0,0,1,2.05,2c.3.38.63.78.9,1.15l.75,1.1c.48.67.93,1.34,1.37,2l1.46,2,2.85,3.69c.94,1.15,1.79,2.27,2.59,3.3,1.62,2,2.94,3.78,3.86,5S102.63,202.92,102.63,202.92Z" transform="translate(-45.54 -30.8)"/><path class="cls-11" d="M103.37,209.79l-.2.63c-.11.4-.25.93-.36,1.55,0,.31-.13.62-.15,1s-.07.68-.1,1,0,.73,0,1.1,0,.75,0,1.14,0,.77.07,1.15,0,.78.11,1.15.07.76.12,1.12.09.71.12,1c0,.67.13,1.23.13,1.66a6.06,6.06,0,0,1,0,.68,5.74,5.74,0,0,1-.53-.42c-.16-.14-.36-.31-.56-.52a4.77,4.77,0,0,1-.65-.74c-.21-.29-.43-.62-.65-1a11,11,0,0,1-.56-1.19,7.39,7.39,0,0,1-.4-1.36,8,8,0,0,1-.2-1.48,9.55,9.55,0,0,1,.07-1.51,8.3,8.3,0,0,1,.35-1.43,6.08,6.08,0,0,1,.59-1.26,5.35,5.35,0,0,1,1.49-1.68,3.56,3.56,0,0,1,.67-.42A2.9,2.9,0,0,1,103.37,209.79Z" transform="translate(-45.54 -30.8)"/><path class="cls-11" d="M93.33,209.68c.67,2.36,1.23,4.69,1.85,7s1.22,4.56,2,6.74c.2.54.39,1.08.6,1.6s.44,1,.67,1.53.51,1,.77,1.43l.44.65c.16.19.31.38.46.59l.51.51.53.41a3.72,3.72,0,0,0,1.19.48,3.8,3.8,0,0,0,1.39,0,9.22,9.22,0,0,0,1.51-.41v1.52a2.1,2.1,0,0,1-.35-.31.83.83,0,0,1-.17-.29,1.64,1.64,0,0,1-.17-.48,3.4,3.4,0,0,1-.09-.81,9.72,9.72,0,0,1,.07-1.44,17,17,0,0,1,.55-2.75c.16.92.29,1.83.47,2.71a9.82,9.82,0,0,0,.31,1.27,3.78,3.78,0,0,0,.2.52c0,.07.07.15.1.14s0,.06,0,0a.2.2,0,0,0-.09-.09v1.53a8.41,8.41,0,0,1-1.81.95,5.61,5.61,0,0,1-2.18.34,5.53,5.53,0,0,1-2.23-.57c-.33-.17-.65-.38-1-.58l-.83-.71c-.24-.25-.48-.51-.71-.77l-.61-.82a15.68,15.68,0,0,1-1-1.72A18.07,18.07,0,0,1,95,226.1c-.23-.6-.43-1.2-.61-1.8a30.7,30.7,0,0,1-.83-3.63c-.21-1.22-.35-2.44-.44-3.66s-.12-2.45-.08-3.67A26.46,26.46,0,0,1,93.33,209.68Z" transform="translate(-45.54 -30.8)"/><path class="cls-11" d="M90.79,189.69l-.08.05,0,0-.19.23-.27.41-.3.58-.3.76a14,14,0,0,0-.54,2,23.4,23.4,0,0,0-.38,2.49c-.09.9-.13,1.87-.17,2.87s0,2,0,3.11.09,2.14.21,3.22.23,2.16.34,3.23.3,2.1.45,3.12.34,2,.5,2.9.33,1.8.47,2.61c.7,3.21,1.16,5.35,1.16,5.35s-.64-2.1-1.61-5.24c-.22-.79-.45-1.65-.7-2.56s-.53-1.87-.75-2.88-.48-2-.72-3.1l-.63-3.23c-.21-1.09-.32-2.19-.49-3.27s-.21-2.17-.32-3.21-.09-2.07-.08-3a26.49,26.49,0,0,1,.18-2.77,16.86,16.86,0,0,1,.44-2.38c.1-.36.21-.7.3-1s.25-.6.35-.86.27-.49.38-.7.27-.38.37-.52a3.23,3.23,0,0,1,.38-.41l.08-.08Z" transform="translate(-45.54 -30.8)"/><path class="cls-11" d="M103.47,189.17s-1.42-1.31-4-3.41c-1.3-1.06-2.93-2.27-4.82-3.58-1-.65-2-1.31-3.1-1.93A31.61,31.61,0,0,0,88,178.47c-2.47-1-5.45-1.74-7.74-.81a5.52,5.52,0,0,0-1.58,1l-.68.7-.3.42-.15.21-.08.1,0,.05,0,0,.06-.09c-.43.75-.86,1.52-1.29,2.29-.27.68-.53,1.38-.8,2.08a20.69,20.69,0,0,0-.42,9.84,38.69,38.69,0,0,0,3.48,10.12,63.24,63.24,0,0,0,5.73,9.38c2.26,3,4.39,6.09,6.48,9s4.09,5.79,5.85,8.6,3.46,5.43,5,7.88a38.92,38.92,0,0,0,4.57,6.08c1.55,1.57,3.23,2.63,4.71,2.49a4.94,4.94,0,0,0,3.11-1.74c.3-.33.51-.6.66-.79l.21-.28-.15.32a6.74,6.74,0,0,1-.49.92,6.18,6.18,0,0,1-.44.64,5.51,5.51,0,0,1-.62.71,4.47,4.47,0,0,1-2.12,1.2,5.26,5.26,0,0,1-3.08-.26,11.3,11.3,0,0,1-3-1.77A33.84,33.84,0,0,1,99.17,241c-1.81-2.23-3.71-4.71-5.7-7.34s-4.21-5.31-6.41-8.17l-6.8-8.77a59.45,59.45,0,0,1-6.33-10.08A40.26,40.26,0,0,1,70.15,195a24.12,24.12,0,0,1,1-12.08c.41-1,.87-1.93,1.32-2.84l1.44-2.2c.16-.25.06-.09.11-.16l0,0,.06-.07.13-.15.25-.3.51-.58c.39-.36.78-.71,1.18-1a13.71,13.71,0,0,1,1.35-.84,9.16,9.16,0,0,1,1.46-.6,10.56,10.56,0,0,1,5.68-.07,19.24,19.24,0,0,1,4.52,1.83,35.44,35.44,0,0,1,6.57,4.78,56.78,56.78,0,0,1,4.34,4.36c1.14,1.25,2,2.31,2.52,3S103.47,189.17,103.47,189.17Z" transform="translate(-45.54 -30.8)"/><path class="cls-9" d="M297.05,167.21s14.36-21.4,23-12.44,6.75,24.64,3.46,32.22-11.74,23.3-13.1,28.59-7,18.3-14,13.46C295,227,286.11,182.22,297.05,167.21Z" transform="translate(-45.54 -30.8)"/><path class="cls-10" d="M314.76,199.53s4.78-13.91,7.61-21.28-1.64-24.34-5.75-22.06-6.9,7.65-6.9,7.65,6.82,23.52,4,37Z" transform="translate(-45.54 -30.8)"/><path class="cls-11" d="M298.84,183.88s.35-.81,1-2.19,1.56-3.37,2.71-5.71c.56-1.17,1.16-2.45,1.83-3.77l2-4.21q.5-1.09,1-2.22c.29-.75.59-1.51.91-2.26l.5-1.23c.19-.42.42-.89.64-1.32a17.54,17.54,0,0,1,1.58-2.38,13.63,13.63,0,0,1,2-2.05A10.35,10.35,0,0,1,315.6,155a5.25,5.25,0,0,1,1.75-.4,1.73,1.73,0,0,1,.58,0,2.28,2.28,0,0,1,.71.22,3,3,0,0,1,.38.24l.08.07s.08.06.07.05v0l.06.05.22.23a11.31,11.31,0,0,1,.92,1.06,9,9,0,0,1,.78,1.15A13,13,0,0,1,322.3,160a22.09,22.09,0,0,1,.7,2.34,12.93,12.93,0,0,1,.4,2.23c.08.72.2,1.42.24,2.09,0,1.33,0,2.55,0,3.63s-.2,2-.28,2.77c-.19,1.52-.32,2.38-.32,2.38s-.12-.87-.28-2.39c-.08-.75-.14-1.67-.26-2.71s-.39-2.2-.58-3.46c-.12-.62-.33-1.25-.49-1.91a15.13,15.13,0,0,0-.59-2,16.27,16.27,0,0,0-1.91-3.88,8.35,8.35,0,0,0-.64-.86c-.26-.25-.42-.48-.77-.77l-.23-.21-.06-.06h0l0,0,0,0a.2.2,0,0,0,.1.08c.12,0,.07,0,.1,0h0a3,3,0,0,0-.72.21,9.72,9.72,0,0,0-3.38,2.85A14.32,14.32,0,0,0,312,162.4c-.17.34-.34.65-.52,1l-.49,1.14c-.35.82-.72,1.62-1.09,2.41l-1.19,2.23c-.76,1.47-1.63,2.79-2.39,4.09s-1.58,2.47-2.3,3.56C301.1,181.19,298.84,183.88,298.84,183.88Z" transform="translate(-45.54 -30.8)"/><path class="cls-11" d="M299.58,190.76a2.63,2.63,0,0,1,.68.1,3.84,3.84,0,0,1,.75.27,6.08,6.08,0,0,1,.9.51,6.78,6.78,0,0,1,.92.82,6.22,6.22,0,0,1,.83,1.1,7.14,7.14,0,0,1,.65,1.33,8.06,8.06,0,0,1,.39,1.46,7.51,7.51,0,0,1,.12,1.48,7.3,7.3,0,0,1-.11,1.42,9.61,9.61,0,0,1-.29,1.28c-.14.39-.28.75-.43,1.08a5.06,5.06,0,0,1-.47.87c-.15.25-.32.46-.44.63a5.7,5.7,0,0,1-.44.52s-.07-.26-.14-.67-.11-1-.22-1.65c0-.33-.08-.68-.1-1s-.1-.73-.13-1.11-.1-.77-.13-1.15-.12-.77-.17-1.15-.17-.74-.21-1.12-.17-.72-.28-1.06-.2-.68-.32-1-.24-.62-.35-.92c-.24-.57-.49-1.06-.68-1.43Z" transform="translate(-45.54 -30.8)"/><path class="cls-11" d="M309.37,188.52a26.85,26.85,0,0,1,1.08,3.51c.3,1.18.51,2.39.71,3.6s.29,2.44.35,3.67a33.22,33.22,0,0,1-.05,3.73c0,.62-.11,1.25-.21,1.88a15.86,15.86,0,0,1-.39,1.89,14.64,14.64,0,0,1-.6,1.88l-.42.94q-.25.45-.54.9c-.2.3-.43.58-.65.87s-.53.53-.82.77a5.71,5.71,0,0,1-2.06,1,5.5,5.5,0,0,1-2.2.13,8.29,8.29,0,0,1-2-.54l-.32-1.49a.16.16,0,0,0-.08.1c0,.06,0,0,0,0s0-.08.06-.16a3.71,3.71,0,0,0,.09-.55,11.3,11.3,0,0,0,0-1.31c0-.9-.08-1.81-.12-2.74a17.71,17.71,0,0,1,1.12,2.56,9.89,9.89,0,0,1,.38,1.4,3,3,0,0,1,.08.81,1.61,1.61,0,0,1-.06.5.87.87,0,0,1-.11.32,1.46,1.46,0,0,1-.27.38l-.32-1.49a8.48,8.48,0,0,0,1.57.08,3.62,3.62,0,0,0,2.41-1l.44-.52.38-.61.33-.67.29-.73c.16-.5.33-1,.45-1.55s.24-1.09.33-1.64.17-1.13.25-1.7c.26-2.28.39-4.63.49-7S309.21,191,309.37,188.52Z" transform="translate(-45.54 -30.8)"/><path class="cls-11" d="M309,165.77l.09,0c.11.07.29.19.46.32s.3.27.47.44.34.38.52.6l.53.77.51.92a17.43,17.43,0,0,1,.93,2.23,25,25,0,0,1,.76,2.67c.22.95.4,2,.57,3s.3,2.11.37,3.2.19,2.19.21,3.3.05,2.21.08,3.29,0,2.15-.05,3.19-.08,2-.12,3-.1,1.84-.14,2.66c-.28,3.27-.47,5.46-.47,5.46v-5.47c0-.82-.06-1.71-.09-2.65s0-1.93-.13-3-.14-2.07-.22-3.14-.23-2.15-.35-3.23-.33-2.14-.48-3.19-.43-2.06-.62-3-.5-1.91-.78-2.77a21.69,21.69,0,0,0-.9-2.36,15.39,15.39,0,0,0-.94-1.83c-.17-.24-.32-.47-.46-.68l-.42-.5-.35-.34-.23-.19h0l-.08,0Z" transform="translate(-45.54 -30.8)"/><path class="cls-11" d="M295.1,170.63s.19-.45.58-1.27,1-2,1.83-3.48a52.6,52.6,0,0,1,3.31-5.18,34.82,34.82,0,0,1,5.41-6.07,19.13,19.13,0,0,1,4-2.75,10.55,10.55,0,0,1,5.56-1.13,9.15,9.15,0,0,1,1.55.27,14.17,14.17,0,0,1,1.5.54c.46.23.92.5,1.37.77l.62.46.31.24.16.12.08,0,0,0c.05.06-.08-.07.13.13l1.88,1.85c.63.8,1.28,1.64,1.89,2.49a24.06,24.06,0,0,1,3.56,11.59,40.16,40.16,0,0,1-1.24,12.09,59.38,59.38,0,0,1-4.05,11.19c-1.63,3.42-3.23,6.78-4.79,10s-3.18,6.35-4.53,9.35-2.72,5.81-4,8.37a34,34,0,0,1-4.27,6.91,11.36,11.36,0,0,1-2.61,2.37,5.33,5.33,0,0,1-2.95.91,4.62,4.62,0,0,1-2.33-.72,5.88,5.88,0,0,1-.75-.57,4.14,4.14,0,0,1-.56-.53,6.7,6.7,0,0,1-.68-.79l-.22-.28.27.23a9.39,9.39,0,0,0,.81.62,4.83,4.83,0,0,0,3.41,1c1.48-.17,2.89-1.56,4.07-3.42a39.12,39.12,0,0,0,3.18-6.92c1-2.72,2-5.67,3.23-8.76s2.51-6.32,3.9-9.64,2.84-6.75,4.41-10.2a62.32,62.32,0,0,0,3.61-10.39,38.55,38.55,0,0,0,1.26-10.62,20.8,20.8,0,0,0-2.5-9.54c-.41-.62-.82-1.24-1.22-1.86l-1.75-2c.19.19,0,0,.07.08l0,0-.05,0-.1-.08-.19-.17-.38-.35-.82-.54a5.58,5.58,0,0,0-1.74-.62c-2.44-.41-5.2.91-7.39,2.44a31.09,31.09,0,0,0-3.09,2.49c-.95.85-1.82,1.71-2.62,2.55-1.57,1.67-2.91,3.21-4,4.51C296.22,169,295.1,170.63,295.1,170.63Z" transform="translate(-45.54 -30.8)"/><path class="cls-10" d="M92.67,186.82s8.12,82.49,43.79,121.25c24.61,35,41.9,55.82,79.34,60.48,23.44-.32,60.34-36.43,77.53-125.39,2.45-19.5,3-91.07-9.65-107.38s-64.2-78.93-183.12-13.68C87.41,135.25,92.67,186.82,92.67,186.82Z" transform="translate(-45.54 -30.8)"/><path class="cls-6" d="M92.67,186.82c.3,2.71.67,5.41,1.06,8.1s.82,5.39,1.32,8.06c1,5.36,2.08,10.69,3.37,16q.94,4,2,7.9c.72,2.63,1.45,5.24,2.25,7.84q2.36,7.8,5.12,15.45c1.86,5.09,3.81,10.14,6,15.08,1,2.49,2.17,4.94,3.32,7.37s2.36,4.83,3.58,7.22a144.72,144.72,0,0,0,7.91,13.95,97.82,97.82,0,0,0,9.71,12.61l.11.12.09.13c5,7,9.95,14,15.24,20.73,2.65,3.35,5.38,6.62,8.23,9.76q2.13,2.36,4.37,4.6l2.27,2.21,2.33,2.13c1.58,1.39,3.18,2.74,4.84,4s3.35,2.51,5.11,3.64,3.54,2.21,5.37,3.21,3.71,1.9,5.61,2.75l2.9,1.2,2.94,1.07c1,.31,2,.65,3,.95s2,.58,3,.84q3,.78,6.15,1.36l3.11.53,3.13.44-.34,0a29.62,29.62,0,0,0,12.83-3.57,56.23,56.23,0,0,0,11.43-8,105,105,0,0,0,18.17-21.81,179.59,179.59,0,0,0,13.43-25.41,259.19,259.19,0,0,0,10-27.1c2.85-9.22,5.26-18.58,7.32-28,.51-2.36,1-4.72,1.48-7.09l.35-1.78.09-.44,0-.11c0-.2,0,.14,0,.06l0-.22.1-.9c.13-1.15.24-2.36.34-3.55.38-4.77.59-9.6.73-14.43.27-9.66.22-19.35-.11-29s-1-19.31-2.2-28.85c-.62-4.76-1.38-9.5-2.44-14.12s-2.41-9.21-4.6-13c-.28-.45-.57-.9-.87-1.3s-.73-.95-1.08-1.4c-.74-.93-1.49-1.87-2.25-2.78-1.52-1.83-3.1-3.62-4.73-5.35a107.32,107.32,0,0,0-10.42-9.7A100.53,100.53,0,0,0,239,103.64a103.1,103.1,0,0,0-13.47-4.56,106.87,106.87,0,0,0-14-2.67A124.94,124.94,0,0,0,183,96.27a166.63,166.63,0,0,0-28.16,5.57c-4.62,1.3-9.19,2.79-13.71,4.43s-8.95,3.53-13.43,5.29c-8.94,3.6-17.73,7.63-26.39,12l.36-.27a19.77,19.77,0,0,0-4.24,6.39,48.2,48.2,0,0,0-2.57,7.69c-.67,2.65-1.16,5.36-1.58,8.08s-.73,5.47-.94,8.23c-.47,5.51-.6,11.05-.54,16.59,0,2.77.12,5.54.26,8.31S92.42,184.06,92.67,186.82Zm0,0c-.56-5.51-.84-11-1.08-16.59-.12-2.77-.19-5.55-.21-8.32s0-5.56.06-8.33a117.35,117.35,0,0,1,1.5-16.68,49.32,49.32,0,0,1,2.1-8.24,22.22,22.22,0,0,1,4.38-7.7l.11-.13.25-.15a277.13,277.13,0,0,1,26-13.71c4.48-2,9.06-3.79,13.71-5.41s9.3-3.2,14-4.53a170.65,170.65,0,0,1,29-5.73,129.79,129.79,0,0,1,29.68.14,115.59,115.59,0,0,1,14.64,2.8A108.9,108.9,0,0,1,241,99a105.34,105.34,0,0,1,25.53,15.34,112.72,112.72,0,0,1,10.91,10.16c1.71,1.8,3.35,3.67,4.93,5.57.8,1,1.57,1.92,2.34,2.89.4.51.73.93,1.15,1.49s.8,1.15,1.16,1.73a37.78,37.78,0,0,1,3.16,7.15c.81,2.41,1.45,4.83,2,7.26,1.11,4.85,1.89,9.73,2.52,14.61,1.25,9.76,1.89,19.53,2.24,29.3s.39,19.55.12,29.33c-.14,4.89-.36,9.78-.75,14.7-.1,1.23-.21,2.45-.35,3.71l-.11.92,0,.22-.05.3,0,.11-.09.45-.36,1.8c-.47,2.4-1,4.79-1.5,7.18-2.08,9.56-4.53,19.05-7.42,28.42a263.63,263.63,0,0,1-10.17,27.63,183,183,0,0,1-13.81,26.11,109.5,109.5,0,0,1-19.07,22.86,61.46,61.46,0,0,1-12.45,8.67,34.7,34.7,0,0,1-15,4.11h-.18l-.16,0-3.27-.46L209,370c-2.17-.42-4.33-.89-6.48-1.44-1.07-.27-2.14-.59-3.2-.89s-2.12-.68-3.18-1L193,365.54l-3.09-1.28c-2-.9-4-1.87-6-2.93s-3.87-2.2-5.72-3.43-3.67-2.52-5.43-3.87-3.45-2.78-5.11-4.24l-2.44-2.23-2.36-2.31c-1.55-1.56-3.07-3.15-4.54-4.77-3-3.25-5.75-6.6-8.45-10-5.4-6.84-10.43-13.89-15.41-20.95l.21.25a102.57,102.57,0,0,1-10.22-13.25c-1.52-2.33-3-4.68-4.36-7.09s-2.72-4.83-3.92-7.32-2.34-5-3.38-7.57-2-5.11-3-7.7q-2.81-7.77-5-15.69c-3-10.56-5.25-21.26-7.23-32-.5-2.68-1-5.37-1.4-8.06s-.89-5.37-1.29-8.07C94,197.63,93.21,192.24,92.67,186.82Z" transform="translate(-45.54 -30.8)"/><path class="cls-9" d="M95.77,151s3.74,75.25,16.89,101.56,20.64,37.89,26.9,40.52,11.52,5.47,11.52,5.47-15.68-3.37-11.52,2.42,23.24,51.13,58.88,62.62c9.47,1.05,30.25,12.51,55.64-29,21.51-42.75,40.68-77.5,37.78-132C286.31,156.83,286.84,93.93,179,93,98.46,98.94,95.28,143,95.77,151Z" transform="translate(-45.54 -30.8)"/><path class="cls-12" d="M316.65,99.92c4.49.23-10.78.77-14.45-2.19,2.28-.21,7.54,2.81,10.34,3.83a51.87,51.87,0,0,0,9.35,2.9c-6.09,1-14,1.33-18.73-2.51,4,.68,8.64,3.89,12.12,5.83a30.06,30.06,0,0,1-15.55-4.18c4.09.67,7.8,4.78,11.87,6.74,4.41,2.12,9,4.56,14,4.84-7.13.07-11.73.28-18.34-2.9,5.6,1,13.62,5.27,18.12,7.44a33.82,33.82,0,0,1-11.72-1.66c5.55-.35,12.07,6.16,18.52,6.18-6.53,3.2-14.26,1.45-20.73.44,4.74.27,9.53,3.61,14,5.38-4.63.28-9.93,1.86-13.79-1.61,2.76.22,3.79,3.25,5.67,4.57a28,28,0,0,0,6.38,2.8c-2.31.63-6.94.74-8.41,0,4.27.07,8,3,12.31,3.74-3.09-.34-6.12.58-9.36.39-3.56-.22-6.1-1.72-9.3-2.92,2.67.71,4.32,4.55,6.62,5.91,1.84,1.09,4,1.73,5.88,2.69-4.34.31-7.59.13-11.31-1.58,2.05.19,2.33,2.93,3.88,4.25a18.55,18.55,0,0,0,3.62,1.87c-3.58.7-7-1-10-2.44,2.48,1.71,3.81,4.66,6.44,6.24,2.16,1.29,4.62,1.81,6.92,2.92a21.17,21.17,0,0,1-13.78-1.59c2.09.52,3.1,4.1,4.62,5.38,1.24,1,3.26,1.59,4.74,2.26,3.2,1.44,7.05,2.95,10.6,3-4.58,1.11-15.14,2.64-19.14-.23,4.19.7,9.78,4.56,13.15,5.61-4.22,0-11,1.18-14.07-1.57,2.09,1,3.69,2.87,5.76,3.94s4.4,1.44,6.14,2.5c-3.11.17-9.58,1.91-11.89-.27,4.13,1.4,6.08,5,10.6,6.15-4.22-.17-6.86,1.33-10.93-.46,1.92.69,1.91,3.33,3.5,4.71a17.86,17.86,0,0,0,3.36,1.5,57.9,57.9,0,0,1,5.27,2.5c-5.55-.09-9.27-.21-13.82-3.27,3.31.54,4.37,4.49,6.92,6.54a31.39,31.39,0,0,0,7.82,4.46c-6.55.45-11.48-1.81-16.77-5.29,3.88,0,4.21,5,6.58,7.38,1.89,1.9,5.33,3.42,7.79,4.21-5.47-.15-10.66-1.21-15.16-5.84,5.62,1.83,4.54,12.18,4.32,16.83-3.29.55-4.68-9.59-7.21-12.1,4.42,2.33,1.22,12.15-1.29,14.7-1.48-3.38-.66-6.81-2.53-9.85,3.85.56,1.35,11.14-1.41,12.54-.82-3.61-.23-7.9-.7-11.42a88.13,88.13,0,0,0-2.07-10.25c-1.08-4.23-2-9.47-4-13.15,2.45,4.28,2.68,13.17,1.08,17.88-3.38-2.87-3.75-12.12-4.56-16.22-1.76-8.92-2.59-18.79-6-26.91,0,3.65-.41,8.19-1.85,11.58-2.57-2.41-3.12-8-4.75-11.22-1.26-2.5-3.33-5.22-4.29-8.23-2.61,2.9-1.37,11.27-1.65,15.32-3-1.48-4.45-9.26-4-12.57A114.67,114.67,0,0,0,258.1,183c-4.27-2.78-4.71-14.63-5.4-19.52-.85-6-1.07-11.92-2.91-17.79C248.87,150,249.88,156,251,161c-4.45-2-5.34-11.75-6.05-15.94-.21,2.79-.09,5.7-.09,8.53,0,3.5,1.34,7.51,1.08,10.52-4.41-1.71-3.44-9.35-4.38-13.27.11,4.19-1.77,8.74-.15,12.51-2.6-1.75-2.9-5.68-3.24-8.52a35.18,35.18,0,0,0-.59,11.95c-3.05-1.72-4-5.58-5.22-8.66a150,150,0,0,1,.49,15.47c-7.36-4.39-4.95-14.65-5.87-21.52-.5-3.75-2.81-7.08-3.63-11-.86-4.16-.85-9.13-3.65-12.59V128c-2.65,12.21-1.41,26.62,3.65,37.81-5.21-2.7-6.6-11.27-8.1-16.14-.39,4.63-.86,9.79-.18,14.32.61,4.09,3.14,7.47,4.16,11-4.13-2.3-6-11.5-7.37-15.64a94.1,94.1,0,0,1-3.6-15.7c-2.38,5.44-1.47,15.7,1.07,20.91-4.74-4.78-3.52-14.57-6.66-19.95a83.61,83.61,0,0,0-1.94,9.14c-1-2.62-.41-5.74-1.15-8-2.87,9.92-6.58,22.62-2,32.12-3.23-4.3-4.11-12.45-5.17-17.71-1-4.91-.73-10.05-.74-15.14-.8,4-2,9.32-.79,13.39-2-3.86-.45-9.27-1.57-13.08-1.48,4-1.55,8.16-2.66,12.17-1.7-3.16-.76-6.83-1.57-10-1.31,6-4.8,11-3.29,17.45a54.65,54.65,0,0,1-1.33-13c-3.18,4.61-2,14.85,1.17,20-6-4.89-4.85-15.47-5.31-22.43-2,2.15-2.61,8.26-2.45,11.41-2.24-2.92-1.63-7-1.57-10.5-3.52,11-6.87,19.38-6.59,31.13-4.18-8.65-6.26-20.43-4.15-30l-.42-.41c-.43,1.8-1.61,3.27-2.06,5-.7,2.76,0,5.63-1.12,8.3-2-3.65-1.5-8.81-3.74-12.17.07,3-1.07,7.13-1.48,10.23-5.8-2.76-6.59-18.88-6.93-24.57-3.24,1.53-5.28,11.64-6.52,15.55-2.14,6.72-1.24,13.52-2.78,20.33-4-4.67-2.29-14.69-2.68-20.63a30.77,30.77,0,0,0-4.94,13.14c-2.66-2-.18-6.52-.41-9.42-3.14,3-5.55,8.21-7.69,12.35-2.31,4.49-2.11,9-3.79,13.44-1.23-3.12-.82-9.51-.41-13,.43-3.72,2.81-6.09,3.66-9.42-3.84.15-7,11.56-7.47,14.67-.91-3.07-.8-8.29.76-11.06-3.94,3.67-5.82,9.89-7.59,14.88a29.74,29.74,0,0,1,8.84-21.46c-4.22-.15-6.68,5-8.87,7.81,3.36-3.88,4.44-8.88,8.47-12.77-2.39-.19-5.42,1.9-6.41,4.08,2.81-.79,6.46-8.78,8.3-11.47,2.24-3.29,4.4-6.64,6.44-9.84-3.56,1.61-7.09,5.47-10.29,8,.43-3.76,3.54-8.13,5.65-11.34-7.12,2.51-12,15.06-14.29,21.47-2.84,7.89-3,16.73-2.86,25.3-1.45-4-.64-9-2.08-12.67-1.17,2.34-.68,6.7-1.23,9.57-.65,3.36-2.33,7.15-2.07,10.6a46.92,46.92,0,0,0-.83-10.66c-1.22,3-.75,7.41-1.63,10.81-.71,2.74-2.7,5.19-4,7.78a69.8,69.8,0,0,0,1.05-12.22c-.36,3.77-2.49,9.54-5.35,12.19A11.25,11.25,0,0,1,86,194c.88-4.66,0-11,2.05-14.8-1.56,5.48-4.29,12.39-8.45,16.5,4.43-.85,7-20.24,8.47-24.31-3.37,2.65-5.68,9.17-9,12.64,3.06.14,7.14-16.66,6.49-20.52-2.93,4.87-5.56,9.8-10.22,13.73,2.32.51,7.18-13.51,6.93-17-2.82,1-3.88,5.31-6.47,6.6-.65,1.93-1.84,4.29-3.65,5.34,3.78-.06,5.16-13.66,6.84-16.89-5.41-.69-13.26,22.49-14.85,27,2-4.81.73-13.29,1.63-18.38-2.83,1.11-4.15,7-6.54,9.48a14.17,14.17,0,0,1-7.39,3.76c4.64,1.79,9-12.64,10.23-16.12-2.39-.2-3.68,2-6.15,2.43-3,.51-6.24-1.18-8.51-2.93,7.77.13,14.41.08,17.54-7.75-3.6-.63-7.41,1.71-11.3,1.59C62,154.66,71,142.21,72,134.63c-2.46,1.81-4,4.6-6.77,6.53-3.15,2.21-5.8,2.94-9.16,4.57,4.55.21,11.61-9.3,13.62-12.68,2.92-4.92,5.11-9.57,8.17-14.43-1.52,3.42-5.64,5.76-8.47,8.11-4.87,4-9.94,9.43-12.88,14.82,4.14-7.6,6.22-13.43,13.31-19.18a74.65,74.65,0,0,1,12.13-8s-12,2.06-18.15,7.84,8.25-12.38,21-19.8c-4.54.82-15.26,7-15.26,7S79,99.1,85.2,95s15.68-13.61,15.68-13.61L84,90.84s9.11-6.18,11.78-9.48-11.36,2.47-11.36,2.47,12-7.43,15.26-11.14c-.82-.82-11.55,2.48-11.55,2.48s16.09-8.67,21.45-14c-.41-.41-13.8,5.78-13.8,5.78a211,211,0,0,0,21.64-16.09c11.14-9.49,45.38-25.17,94.06-12.38,8.67,2.89,39.2,17.33,52.4,21.45s20.22,5.78,20.22,5.78H271.68S284.77,76,294.73,76c-.77,0-14-.83-14-.83s8.25,6.61,15.68,5.37c1.65.41-11.55,1.24-11.55,1.24A49.82,49.82,0,0,0,308,93c-2.89.71-13.61-2.37-13.61-2.37S300.56,99.1,316.65,99.92Z" transform="translate(-45.54 -30.8)"/><path class="cls-13" d="M184.15,208.16c1.65-3.49,5.85-6.72,8.75-9.23a87.9,87.9,0,0,1,16.48-10.8c5.51-2.9,12.74-5.52,19.15-4.41a47.56,47.56,0,0,1,13.3,5.11c2.91,1.58,6,3.38,8.88,5.07,1.81,1.06,4.66,1.85,6,3.38-.2-2.18-2.2-5.2-3.88-6.69,2.15,1.29,3.26,3,4.93,4.84,1.23,1.38,2.87,2.4,3.84,4.2,2.55,4.75.1,11.64-1.48,16.07-2,5.49-4.26,9.15-9.13,12.86-3.76,2.85-8.44,6.27-13.2,6.74A39.74,39.74,0,0,1,213.1,230a163.11,163.11,0,0,0-17.61-8.9c-4.48-2-7-3.76-9.46-7.86-1.2-2-3-5.21-.25-6.89" transform="translate(-45.54 -30.8)"/><path class="cls-13" d="M161,195.11c3.35,1.9,5.49,7.6,6.58,10.95.67,2,1.59,3.66,1.8,5.78a33,33,0,0,1,0,5.45,3,3,0,0,0-2.4-1.38c-1.71-.07-1.43,0-1.89,1.75-.54,2-1,4.21-1.55,6.28a44.9,44.9,0,0,1-5.31,12.6c-2.59,4.39-4.79,7.36-9.52,9.28-9.64,3.92-20.15-3.1-28.54-7.42-6.8-3.5-11.07-10.59-15.58-15.94-1-1.22-2.57-2.49-2.82-4-.29-1.76,1.09-3.89,1.79-5.37a27.4,27.4,0,0,1,7.76-9.8,42.07,42.07,0,0,1,24.31-7.93c8.53-.14,17.29-1.6,25.62-.21" transform="translate(-45.54 -30.8)"/><path class="cls-6" d="M169.48,222.21s.18,25.22,9.5,37.73C178.4,261.4,166.09,245.6,169.48,222.21Z" transform="translate(-45.54 -30.8)"/><path class="cls-6" d="M169.48,255s1.8,4.6-.59,8.41-4.07,6.47-3.75,11.35C163.84,274.79,164.93,252.74,169.48,255Z" transform="translate(-45.54 -30.8)"/><path class="cls-6" d="M208.27,249.47s-.1,4.28,4.63,8.44a18.45,18.45,0,0,1,5.79,9S218.64,253.83,208.27,249.47Z" transform="translate(-45.54 -30.8)"/><path class="cls-10" d="M165.87,271.76s-2.37,10.53,10.75,13.47c4.19.57,6.91.11,9.17.79s9.5,6.91,16.52.68c7.47-6.34,17.76-11.09,15.39-19.24-1.36-1.47-12.22,2.72-15,8.72s-14.26,5.16-19.12,2.13-4.08-7.56-3.4-14.69c-1,.79-7.47,6.84-7.24,11.17C171.87,275.5,166.71,278.83,165.87,271.76Z" transform="translate(-45.54 -30.8)"/><path class="cls-6" d="M204.46,280.14s5.77-12.11,11-8.6c.45.68-3.14,6.48-8.6,6.45C205.68,277.89,204.46,280.14,204.46,280.14Z" transform="translate(-45.54 -30.8)"/><path class="cls-6" d="M184.09,284.33s-7.66-9.58-14-5.58c-1.45,2.44,6.72,5.24,12.26,4.9A7,7,0,0,0,184.09,284.33Z" transform="translate(-45.54 -30.8)"/><path class="cls-6" d="M180.13,263.62s-4.9,19.8,10.22,22.4c8.79,1.13,10.38-1.81,14.11-5.88-2.6,2.49-11.09,8.94-19.24,2.71C181.24,279.58,179.11,277.08,180.13,263.62Z" transform="translate(-45.54 -30.8)"/><path class="cls-6" d="M169.48,262.28s-10.71,11.16.48,20.05C170.2,282.51,161.32,275.88,169.48,262.28Z" transform="translate(-45.54 -30.8)"/><path class="cls-6" d="M211.75,256.78s11.07,7.91,5.06,17.27C216.9,273.89,221.52,266.69,211.75,256.78Z" transform="translate(-45.54 -30.8)"/><path class="cls-14" d="M173.3,314.85s20-7.41,22.88-4.23,4.1,2.78,5.82,2.51.79-3,3.57-3.83,6.22-2.52,24.47-2.78C230.7,308,219.85,329,204.91,330,191.82,331.65,178.59,322.79,173.3,314.85Z" transform="translate(-45.54 -30.8)"/><path class="cls-15" d="M174.76,315.12a140.17,140.17,0,0,1,16.4.52c6.48.8,10.71.53,14.68-1.19s16.66-6.42,14.28-6.38-2.79-1-2.79-1l12.71-.56a22.91,22.91,0,0,1-3.8,7.91c-.1.16,3-5.27-3.87-1.7s-11.51,11.11-18.52,10.45S186.13,323.45,174.76,315.12Z" transform="translate(-45.54 -30.8)"/><path class="cls-6" d="M165.14,282.34s-12.65,17.49-12.06,24.18C153.08,306.51,150.9,294,165.14,282.34Z" transform="translate(-45.54 -30.8)"/><path class="cls-16" d="M186.5,189.66s8.46,1.75,22.65-3.73,35.09-5.47,49.77,8c-5.22-8.22-8.7-17.67-33.84-20.16C212.88,173.49,184.51,180.71,186.5,189.66Z" transform="translate(-45.54 -30.8)"/><path class="cls-16" d="M162.12,193.9s1.67,9-10.7,4.23c-29.46-11.43-44,16.17-44,16.17s-.09-24.14,17.08-26.38S158.14,188.17,162.12,193.9Z" transform="translate(-45.54 -30.8)"/><path class="cls-6" d="M95.74,65.41c1.55-1,3.08-2.07,4.59-3.14s3.07-2.08,4.55-3.2c3-2.22,6-4.3,9-6.56l8.81-6.75.55-.42.27-.21.33-.24,1.14-.81c.77-.53,1.48-1.09,2.29-1.59l2.5-1.44a23.83,23.83,0,0,1,2.54-1.34l2.58-1.2,1.29-.6c.44-.19.88-.34,1.32-.51,1.78-.64,3.53-1.38,5.33-1.93l5.45-1.57c1.84-.43,3.69-.78,5.54-1.17s3.71-.64,5.58-.9l2.81-.37,1.4-.19,1.41-.09a112,112,0,0,1,11.29-.33c1.88,0,3.77,0,5.65.13l5.62.5c3.77.22,7.45,1,11.16,1.6l2.78.46,2.74.65,5.47,1.32,2.74.66,2.68.86,5.35,1.72c3.61,1,7,2.57,10.52,3.92,1.73.71,3.48,1.38,5.19,2.13l5,2.44c3.34,1.66,6.78,3.14,10,5.1l9.7,5.57-.17-.08c1,.4,2,.81,2.89,1.24l2.82,1.24c.94.4,1.89.78,2.84,1.17l2.87,1.09c1,.36,1.95.64,2.92,1,.49.15,1,.34,1.47.45l1.49.39,1.49.39c.5.15,1,.23,1.51.33l3,.59-3.09-.3c-.51,0-1-.08-1.54-.18l-1.53-.26-1.54-.26c-.51-.08-1-.23-1.51-.34-1-.25-2-.45-3-.74s-2-.56-3-.87l-2.95-1L263,60.66c-1-.36-1.92-.7-2.86-1l-.05,0-.13-.06-9.88-5c-1.65-.84-3.28-1.69-5-2.39L240,50l-5.06-2.22c-1.71-.68-3.45-1.27-5.17-1.91-3.46-1.26-6.86-2.68-10.41-3.62l-5.28-1.57-2.63-.78-2.68-.62L203.4,38l-2.67-.61L198,36.94c-3.62-.55-7.22-1.26-10.87-1.49l-5.46-.53c-1.82-.11-3.65-.1-5.47-.16s-3.66-.18-5.47,0l-5.47.25-1.37.06-1.36.15-2.71.31a51.54,51.54,0,0,0-5.42.74c-1.79.34-3.59.64-5.37,1l-5.29,1.37c-1.76.47-3.45,1.12-5.19,1.67-.43.15-.87.28-1.29.44l-1.25.53-2.51,1.05a21.77,21.77,0,0,0-2.43,1.17l-2.38,1.22c-.79.43-1.57,1-2.35,1.46l-1.18.75-.24.15-.29.2-.57.4L114.86,54c-3.1,2.06-6.29,4-9.44,5.94-1.57,1-3.2,1.89-4.81,2.82S97.38,64.55,95.74,65.41Z" transform="translate(-45.54 -30.8)"/><path class="cls-6" d="M109.54,61.14a10.58,10.58,0,0,1-.57,1,25.35,25.35,0,0,1-1.74,2.5,34.78,34.78,0,0,1-6.56,6.25,30.94,30.94,0,0,1-4.16,2.57,19.52,19.52,0,0,1-4.07,1.58,11.69,11.69,0,0,1-1.76.31,7.5,7.5,0,0,1-1.4,0,4.23,4.23,0,0,1-.89-.16l-.3-.09.28-.14a5,5,0,0,0,.74-.39c.31-.18.66-.42,1-.69s.83-.61,1.29-1c1.86-1.44,4.3-3.41,6.86-5.28,1.29-.93,2.6-1.84,3.86-2.66s2.49-1.54,3.57-2.13,2-1,2.71-1.33S109.54,61.14,109.54,61.14Z" transform="translate(-45.54 -30.8)"/><path class="cls-6" d="M99.64,72.69a7,7,0,0,1-.29.87,14.88,14.88,0,0,1-1,2.1,19,19,0,0,1-1.85,2.61,22.2,22.2,0,0,1-2.55,2.59,19.91,19.91,0,0,1-3,2.12,12.76,12.76,0,0,1-3.12,1.26,6.65,6.65,0,0,1-1.41.2,3.91,3.91,0,0,1-1.14-.12,1.66,1.66,0,0,1-.67-.32,1.62,1.62,0,0,1-.18-.17l.23,0a2.27,2.27,0,0,0,.55-.25,11.16,11.16,0,0,0,1.56-1.35l2.09-2.07c.39-.37.79-.76,1.22-1.14s.87-.77,1.31-1.15A33.27,33.27,0,0,1,96.71,74a18.79,18.79,0,0,1,2.07-1C99.31,72.79,99.64,72.69,99.64,72.69Z" transform="translate(-45.54 -30.8)"/><path class="cls-6" d="M99.64,82.57s-.37.54-1.06,1.43-1.71,2.12-3,3.54-2.8,3-4.49,4.68-3.55,3.37-5.43,5S81.83,100.51,80,102s-3.65,2.76-5.18,3.87c-.77.55-1.5,1-2.15,1.46s-1.17.81-1.64,1.13c-.92.63-1.49,1-1.49,1s.29-.56.9-1.52a19.62,19.62,0,0,1,1.17-1.69c.48-.62,1-1.32,1.63-2.06s1.29-1.54,2-2.33,1.53-1.64,2.37-2.48,1.7-1.72,2.62-2.55,1.85-1.69,2.8-2.54C85,92.58,86.91,91,88.8,89.55s3.7-2.71,5.3-3.76,3-1.85,4-2.39S99.64,82.57,99.64,82.57Z" transform="translate(-45.54 -30.8)"/><path class="cls-6" d="M84.79,102.4s-.29.39-.81,1-1.29,1.51-2.23,2.52c-1.89,2-4.5,4.46-7.16,6.82l-2,1.75c-.66.57-1.29,1.14-1.94,1.67l-3.45,3-1.39,1.21c-.43.37-.78.69-1.08,1-.6.55-1,.86-1,.86a12.29,12.29,0,0,1,.32-1.28,7.47,7.47,0,0,1,.5-1.43c.23-.52.48-1.15.82-1.77s.75-1.29,1.2-2,1-1.36,1.53-2,1.15-1.37,1.81-2,1.31-1.32,2-1.93,1.4-1.22,2.14-1.76,1.45-1.08,2.18-1.56a36.21,36.21,0,0,1,4.12-2.38,29.06,29.06,0,0,1,3.15-1.3A11.4,11.4,0,0,1,84.79,102.4Z" transform="translate(-45.54 -30.8)"/><path class="cls-6" d="M81.9,114.36s-.47.38-1.31,1l-1.44,1.2c-.56.46-1.16,1-1.82,1.58s-1.36,1.21-2.09,1.89-1.49,1.38-2.25,2.15-1.54,1.55-2.34,2.35-1.55,1.67-2.34,2.5L66,129.62c-.7.89-1.42,1.73-2.13,2.56s-1.32,1.67-2,2.45-1.18,1.55-1.74,2.24-1.09,1.31-1.5,1.9-.84,1.08-1.16,1.5c-.67.82-1.09,1.28-1.09,1.28s.1-.6.37-1.64c.14-.51.3-1.14.52-1.85a22.88,22.88,0,0,1,.85-2.35c.36-.84.72-1.77,1.21-2.7s1-1.9,1.61-2.89,1.29-1.94,2-2.92,1.53-1.9,2.33-2.83,1.68-1.8,2.6-2.59a33.1,33.1,0,0,1,2.74-2.26,31.25,31.25,0,0,1,2.76-1.87c.9-.55,1.79-1,2.62-1.41s1.61-.72,2.32-1a17.74,17.74,0,0,1,1.85-.58A12.25,12.25,0,0,1,81.9,114.36Z" transform="translate(-45.54 -30.8)"/><path class="cls-6" d="M75.07,122.2a13.57,13.57,0,0,1,0,1.45,24.62,24.62,0,0,1-.53,3.74,26.46,26.46,0,0,1-1.68,5.09,25.38,25.38,0,0,1-3.18,5.36,20.1,20.1,0,0,1-4.63,4.36,16,16,0,0,1-2.62,1.42,13.59,13.59,0,0,1-2.52.81c-.41.07-.79.16-1.16.19l-1,.08a14,14,0,0,1-1.68-.06c-.93-.14-1.43-.27-1.43-.27s.5-.22,1.33-.52l1.43-.64c.54-.27,1.12-.58,1.73-1A17.78,17.78,0,0,0,61,141a22.33,22.33,0,0,0,1.91-1.59c.32-.28.62-.61,1-.91l.93-1c.59-.69,1.21-1.38,1.77-2.14a88.15,88.15,0,0,0,5.88-8.83l1.91-3.13C74.78,122.65,75.07,122.2,75.07,122.2Z" transform="translate(-45.54 -30.8)"/><path class="cls-6" d="M72,134.63a8,8,0,0,1,.15,1.29c0,.42,0,.92,0,1.49a16.41,16.41,0,0,1-.22,1.92,16,16,0,0,1-.54,2.23,20,20,0,0,1-.9,2.42c-.18.41-.41.8-.63,1.21a8.87,8.87,0,0,1-.72,1.22,17.45,17.45,0,0,1-1.75,2.3c-.33.36-.65.72-1,1.06s-.74.64-1.1.95a14.77,14.77,0,0,1-2.32,1.6,13,13,0,0,1-2.36,1.12,11.05,11.05,0,0,1-1.13.41l-1.09.25a11.7,11.7,0,0,1-1.92.31c-.58,0-1.09,0-1.5,0-.82,0-1.29-.06-1.29-.06s.4-.29,1.09-.71c.34-.21.75-.46,1.23-.71s.95-.66,1.5-1a13.92,13.92,0,0,0,1.69-1.17,22,22,0,0,0,1.77-1.39,23.49,23.49,0,0,0,1.75-1.59c.29-.28.57-.57.87-.84s.54-.61.81-.92c.58-.57,1-1.25,1.58-1.87s1-1.31,1.42-1.93.89-1.28,1.26-1.92.77-1.22,1.1-1.78.64-1.09.93-1.56.51-.89.69-1.24Z" transform="translate(-45.54 -30.8)"/><path class="cls-6" d="M64.93,152.79a3.79,3.79,0,0,1,0,1.06,7.93,7.93,0,0,1-.25,1.21,8.38,8.38,0,0,1-.61,1.49A10,10,0,0,1,63,158.14a10.84,10.84,0,0,1-1.59,1.49,10.67,10.67,0,0,1-1,.62,5.74,5.74,0,0,1-1,.55,11.32,11.32,0,0,1-2.23.77l-1.16.25c-.38.06-.76.07-1.14.1a9.59,9.59,0,0,1-2.21,0,11.42,11.42,0,0,1-2-.29c-.62-.15-1.21-.32-1.74-.49a9.37,9.37,0,0,1-1.41-.58c-.41-.2-.76-.4-1-.56a10.2,10.2,0,0,1-.88-.56s.38-.11,1-.23c.32,0,.71-.13,1.14-.18s.91-.09,1.43-.19,1.06-.16,1.64-.21,1.16-.19,1.77-.25l.91-.12c.3-.07.61-.13.91-.18l.93-.15.89-.23a15.87,15.87,0,0,0,1.74-.48c.57-.17,1.09-.41,1.63-.61s1-.46,1.46-.74.88-.54,1.31-.8a21.29,21.29,0,0,0,1.9-1.54c.21-.23.42-.4.52-.53Z" transform="translate(-45.54 -30.8)"/><path class="cls-6" d="M63.75,159.43a10.14,10.14,0,0,1,.06,1.21,19.6,19.6,0,0,1-.28,3.11A21.93,21.93,0,0,1,62.37,168,20.78,20.78,0,0,1,60,172.53a15.35,15.35,0,0,1-3.71,3.83,10.19,10.19,0,0,1-2.28,1.2,7.78,7.78,0,0,1-2.27.51,6.52,6.52,0,0,1-1.93-.14,6.28,6.28,0,0,1-1.37-.45,7,7,0,0,1-.79-.46l-.26-.18,1.17-.15c.36-.09.77-.14,1.22-.29a9,9,0,0,0,2.83-1.5A11.89,11.89,0,0,0,54,173.62l.69-.75.68-.82c.44-.58.9-1.16,1.32-1.8,1.73-2.48,3.32-5.25,4.66-7.32.66-1,1.24-1.91,1.67-2.53S63.75,159.43,63.75,159.43Z" transform="translate(-45.54 -30.8)"/><path class="cls-6" d="M79.54,152.79l-.72,1.35L77,157.6c-.38.71-.82,1.45-1.23,2.26l-.67,1.23c-.21.43-.44.85-.66,1.29-.48.85-.89,1.78-1.38,2.68s-.87,1.85-1.32,2.79-.85,1.87-1.2,2.81-.78,1.86-1,2.78-.66,1.79-.85,2.64c-.12.43-.24.85-.36,1.25-.06.21-.12.4-.18.6l-.12.58c-.15.77-.33,1.48-.49,2.12s-.19,1.21-.26,1.67c-.16.95-.29,1.51-.29,1.51s-.22-.51-.51-1.45c-.13-.47-.34-1.05-.47-1.72s-.21-1.45-.29-2.31a19.39,19.39,0,0,1,0-2.75,19.6,19.6,0,0,1,.39-3.05,23.23,23.23,0,0,1,.82-3.18c.31-1.08.8-2.1,1.21-3.16s1-2,1.56-3a31.46,31.46,0,0,1,1.77-2.7,26,26,0,0,1,1.88-2.36c.62-.74,1.27-1.37,1.86-2a27,27,0,0,1,3.11-2.58A12.32,12.32,0,0,1,79.54,152.79Z" transform="translate(-45.54 -30.8)"/><path class="cls-6" d="M118.05,131.75l-.42.44c-.29.28-.66.73-1.16,1.27s-1.06,1.23-1.69,2l-1,1.27-1,1.44a17.8,17.8,0,0,0-1.07,1.6c-.35.56-.75,1.11-1.1,1.71-.68,1.24-1.48,2.47-2.12,3.85-.32.69-.71,1.35-1,2.07s-.6,1.45-.91,2.17c-.16.37-.33.73-.47,1.1l-.38,1.14-.79,2.28c-.45,1.55-.84,3.12-1.26,4.65-.27,1.57-.6,3.11-.87,4.61s-.35,3-.54,4.39c-.13.7-.08,1.39-.15,2.05s-.08,1.32-.12,1.94c-.08,1.24-.2,2.39-.16,3.41s0,1.91,0,2.65c0,1.48-.1,2.35-.1,2.35s-.28-.8-.69-2.24c-.19-.72-.45-1.6-.69-2.62-.11-.51-.3-1-.37-1.62s-.16-1.2-.25-1.83c-.14-1.28-.4-2.68-.44-4.16s0-3.06,0-4.69.36-3.3.6-5,.77-3.39,1.24-5.07c.3-.83.6-1.65.89-2.47l.46-1.23c.17-.4.37-.78.55-1.17.37-.78.76-1.55,1.14-2.31s.85-1.44,1.28-2.14a33.86,33.86,0,0,1,5.63-6.91c.48-.44.93-.88,1.37-1.26l1.33-1a23,23,0,0,1,2.24-1.54A14.6,14.6,0,0,1,118.05,131.75Z" transform="translate(-45.54 -30.8)"/><path class="cls-6" d="M81.3,160.77a5.38,5.38,0,0,1,.31.81,11.43,11.43,0,0,1,.46,2.13,14.34,14.34,0,0,1,0,3,12.4,12.4,0,0,1-.26,1.66c-.11.57-.29,1.12-.45,1.69s-.39,1.1-.65,1.63a13.57,13.57,0,0,1-.82,1.51,11,11,0,0,1-1,1.31,13.23,13.23,0,0,1-1,1.07c-.35.3-.68.56-1,.78a6.71,6.71,0,0,1-.86.49,6,6,0,0,1-.78.35,8,8,0,0,1,.16-.84c.13-.5.27-1.22.49-2,.11-.39.19-.83.32-1.26s.23-.91.38-1.37.26-1,.43-1.44.31-1,.48-1.48a40.49,40.49,0,0,1,2.21-5.48,19.84,19.84,0,0,1,1-1.84C81.1,161,81.3,160.77,81.3,160.77Z" transform="translate(-45.54 -30.8)"/><path class="cls-6" d="M85.89,165.53a8.1,8.1,0,0,1,.27,1.12,19.92,19.92,0,0,1,.34,3,23.73,23.73,0,0,1-.23,4.16,22.83,22.83,0,0,1-1.13,4.69,22.21,22.21,0,0,1-1,2.31c-.19.37-.38.74-.6,1.09s-.43.7-.67,1a13,13,0,0,1-1.54,1.81c-.29.26-.57.5-.86.73s-.58.42-.88.59a7.3,7.3,0,0,1-1.73.7c-.27.05-.52.11-.75.14s-.46,0-.65,0a3.49,3.49,0,0,1-.87-.11l-.29-.07.26-.16a5.1,5.1,0,0,0,.69-.42l.44-.33c.14-.15.31-.27.47-.42a9.69,9.69,0,0,0,.92-1.11,12.59,12.59,0,0,0,.89-1.43c.28-.53.57-1.1.83-1.72.54-1.22,1.06-2.58,1.56-4,1-2.79,2-5.7,2.84-7.9.45-1.1.85-2,1.16-2.68S85.89,165.53,85.89,165.53Z" transform="translate(-45.54 -30.8)"/><path class="cls-6" d="M88,179.17a3.58,3.58,0,0,1,.49.6,7.54,7.54,0,0,1,.91,1.75,10.67,10.67,0,0,1,.41,5.74,9.91,9.91,0,0,1-.43,1.53,8.63,8.63,0,0,1-.63,1.42,7.48,7.48,0,0,1-.78,1.22,7.15,7.15,0,0,1-.87,1,9.91,9.91,0,0,1-.85.72c-.28.19-.55.33-.76.45a6.29,6.29,0,0,1-.7.33s0-.31,0-.78.12-1.1.21-1.82c.07-.35.12-.73.17-1.12s.14-.78.2-1.2.15-.82.22-1.25.18-.84.25-1.27.16-.86.27-1.28.18-.85.3-1.26.21-.82.31-1.21l.32-1.11c.22-.7.44-1.3.62-1.74S88,179.17,88,179.17Z" transform="translate(-45.54 -30.8)"/><path class="cls-6" d="M122.69,135.06a10.41,10.41,0,0,1-.24,1.23,26.35,26.35,0,0,1-.93,3.09,36.48,36.48,0,0,1-1.83,4.11,40.37,40.37,0,0,1-2.68,4.39c-.51.71-1,1.43-1.6,2.09s-1.13,1.32-1.72,1.92a19.27,19.27,0,0,1-3.61,3,11.21,11.21,0,0,1-1.73.87,6.14,6.14,0,0,1-1.48.37,2.76,2.76,0,0,1-1-.07l-.32-.1.31-.13a3.16,3.16,0,0,0,.71-.45,9.49,9.49,0,0,0,.91-.9c.33-.38.67-.82,1-1.32.73-1,1.54-2.19,2.42-3.48s1.82-2.68,2.79-4a80.48,80.48,0,0,1,5.79-7.39c.88-1,1.66-1.76,2.23-2.3S122.69,135.06,122.69,135.06Z" transform="translate(-45.54 -30.8)"/><path class="cls-6" d="M148.27,116.05s-.29.81-.84,2.21c-.28.69-.6,1.55-1,2.5s-.81,2.06-1.33,3.22c-1,2.36-2.13,5.07-3.38,8-.62,1.45-1.26,3-1.92,4.47s-1.32,3.06-2,4.61-1.27,3.09-1.92,4.61-1.19,3-1.79,4.48-1.09,2.88-1.6,4.23-.92,2.64-1.34,3.82c-.23.59-.36,1.18-.53,1.72l-.48,1.56c-.33,1-.54,1.85-.71,2.57-.35,1.45-.61,2.29-.61,2.29s-.09-.85-.18-2.36a17.66,17.66,0,0,1,0-2.74c.07-1.05.08-2.26.28-3.54s.37-2.69.68-4.14.68-3,1.13-4.54l.73-2.35c.24-.8.5-1.6.81-2.39.58-1.59,1.18-3.21,1.86-4.78s1.36-3.15,2.12-4.66,1.5-3,2.26-4.41,1.57-2.74,2.31-4,1.53-2.43,2.24-3.49c1.43-2.14,2.71-3.86,3.66-5S148.27,116.05,148.27,116.05Z" transform="translate(-45.54 -30.8)"/><path class="cls-6" d="M122.69,157.32s-.16.41-.45,1.12c-.13.35-.29.77-.48,1.25s-.35,1-.56,1.6-.4,1.21-.61,1.86-.43,1.35-.61,2.07-.38,1.45-.58,2.2-.32,1.52-.51,2.28-.29,1.55-.43,2.31-.23,1.53-.36,2.27-.17,1.47-.28,2.16-.14,1.36-.23,2-.19,1.19-.23,1.7-.11,1-.17,1.35c-.11.76-.22,1.21-.22,1.21s-.23-.39-.56-1.09c-.17-.35-.37-.77-.57-1.28a11.44,11.44,0,0,1-.56-1.71,21,21,0,0,1-.47-2.09c-.1-.75-.19-1.55-.25-2.39s0-1.69,0-2.57.22-1.76.36-2.65a25.26,25.26,0,0,1,.72-2.58,16.93,16.93,0,0,1,1-2.39,18.29,18.29,0,0,1,1.2-2.1,18,18,0,0,1,1.33-1.72,13.1,13.1,0,0,1,1.3-1.29,9.79,9.79,0,0,1,1.1-.88A7.22,7.22,0,0,1,122.69,157.32Z" transform="translate(-45.54 -30.8)"/><path class="cls-6" d="M143,144.37s-.07.55-.21,1.49c-.08.46-.16,1-.29,1.67s-.23,1.37-.39,2.15c-.3,1.56-.69,3.35-1.1,5.25s-.87,3.92-1.27,5.93c-.25,1-.39,2-.61,3l-.53,2.9c-.14.95-.28,1.86-.41,2.72s-.17,1.69-.28,2.46-.08,1.47-.14,2.11a16.14,16.14,0,0,0,0,1.66c0,.94,0,1.51,0,1.51s-.3-.45-.75-1.31a8.48,8.48,0,0,1-.71-1.61c-.2-.64-.48-1.37-.66-2.19s-.31-1.71-.42-2.67-.13-2-.11-3,.07-2.11.22-3.17.29-2.16.53-3.23.48-2.13.8-3.15.64-2,1-3,.76-1.85,1.13-2.7.8-1.62,1.19-2.34a31.29,31.29,0,0,1,2.12-3.33A14.12,14.12,0,0,1,143,144.37Z" transform="translate(-45.54 -30.8)"/><path class="cls-6" d="M155.13,144.37a2.51,2.51,0,0,0,.08.24c0,.16.14.39.21.67s.19.62.3,1,.22.82.34,1.28.27,1,.38,1.48.25,1.07.37,1.64.23,1.15.32,1.75.23,1.19.33,1.8.15,1.21.24,1.81.17,1.2.23,1.78.09,1.15.11,1.7.07,1,.09,1.54a18.73,18.73,0,0,1-.08,2.41c-.05.6-.12,1-.12,1a7.68,7.68,0,0,1-.63-.72,14.72,14.72,0,0,1-1.4-2,14.37,14.37,0,0,1-.78-1.42c-.22-.52-.45-1.08-.65-1.67s-.41-1.19-.58-1.82a18,18,0,0,1-.38-1.94c-.09-.66-.18-1.31-.23-2s0-1.31,0-1.93a16.1,16.1,0,0,1,.48-3.41c.13-.5.29-.95.43-1.34a7.6,7.6,0,0,1,.44-1A4.75,4.75,0,0,1,155.13,144.37Z" transform="translate(-45.54 -30.8)"/><path class="cls-6" d="M168.89,182.68l-.33-.31a7.28,7.28,0,0,1-.89-.92,10.54,10.54,0,0,1-1.16-1.68,11.49,11.49,0,0,1-.58-1.11,10.06,10.06,0,0,1-.52-1.3,12.46,12.46,0,0,1-.45-1.46,13,13,0,0,1-.33-1.58,22.69,22.69,0,0,1-.33-3.47,28.8,28.8,0,0,1,.14-3.69c.13-1.24.32-2.49.57-3.72a45.32,45.32,0,0,1,4.8-12.81,35.59,35.59,0,0,1,2.44-3.79,17.05,17.05,0,0,1,1.07-1.35s-.11.62-.35,1.68-.58,2.55-1,4.32-.94,3.79-1.48,6-1.09,4.48-1.55,6.78c-.25,1.14-.45,2.3-.65,3.42s-.34,2.25-.45,3.32-.2,2.12-.21,3.11a13.89,13.89,0,0,0,0,1.44,21.86,21.86,0,0,0,.17,2.58,9.31,9.31,0,0,0,.16,1.13c.13.71.27,1.3.41,1.81s.31.92.4,1.2Z" transform="translate(-45.54 -30.8)"/><path class="cls-6" d="M200.25,141.32s0,.61-.09,1.65-.21,2.51-.4,4.26c-.39,3.49-1.09,8.05-1.7,12.57-.18,1.12-.31,2.25-.45,3.36s-.26,2.2-.37,3.25-.18,2.07-.24,3-.09,1.88-.09,2.72,0,1.62.07,2.31.13,1.3.23,1.79a11.57,11.57,0,0,0,.25,1.17l.09.43-.29-.32a5.85,5.85,0,0,1-.78-1,11.37,11.37,0,0,1-1-1.69c-.15-.35-.31-.72-.47-1.11s-.27-.82-.42-1.27a24.68,24.68,0,0,1-.63-2.91,30.54,30.54,0,0,1-.29-3.28,42.32,42.32,0,0,1,.39-7.06,52.22,52.22,0,0,1,3.43-12.61c.7-1.64,1.37-3,1.88-3.9S200.25,141.32,200.25,141.32Z" transform="translate(-45.54 -30.8)"/><path class="cls-16" d="M219.46,117.44s14.29,14.39,5.25,42" transform="translate(-45.54 -30.8)"/><path class="cls-6" d="M219.46,117.44a11.19,11.19,0,0,1,1.54,1.22,17.79,17.79,0,0,1,1.56,1.62,24.83,24.83,0,0,1,1.8,2.32,28.83,28.83,0,0,1,1.76,3l.83,1.72c.27.59.47,1.23.71,1.86a31.71,31.71,0,0,1,1.16,4c.31,1.39.49,2.83.68,4.26s.19,2.88.13,4.3c0,.71-.08,1.41-.14,2.1a16.82,16.82,0,0,1-.19,2c-.23,1.33-.47,2.6-.71,3.8s-.67,2.28-1,3.3l-.48,1.44c-.17.45-.38.87-.55,1.26-.35.79-.69,1.47-1,2-.55,1.11-.9,1.71-.9,1.71s0-.72.14-1.94c.06-.61.12-1.34.24-2.17s.18-1.78.24-2.8.19-2.11.28-3.27.08-2.38.15-3.63,0-2.54,0-3.85-.17-2.61-.23-3.93c-.06-.66-.17-1.31-.24-2s-.11-1.31-.26-1.94c-.26-1.27-.42-2.54-.75-3.74-.15-.6-.27-1.2-.43-1.77s-.33-1.14-.49-1.69-.35-1.07-.52-1.59-.32-1-.52-1.48c-.37-.93-.69-1.82-1-2.57s-.65-1.41-.9-2-.49-1-.66-1.26Z" transform="translate(-45.54 -30.8)"/><path class="cls-6" d="M250.53,142.93s.2.69.48,1.88.66,2.89,1.08,4.92.86,4.4,1.33,6.92q.36,1.89.72,3.87c.26,1.32.49,2.66.77,4s.54,2.65.81,3.94c.15.64.3,1.28.44,1.91s.31,1.25.46,1.86c.32,1.2.64,2.37,1,3.44s.72,2.09,1.12,3a13.69,13.69,0,0,0,.61,1.27c.11.2.21.39.3.58s.23.35.33.52l.32.49.33.41a5.27,5.27,0,0,0,.63.73l.57.54.48.34.42.3-.5-.08-.62-.13c-.23-.08-.5-.19-.79-.32a5.47,5.47,0,0,1-.95-.5c-.17-.11-.34-.21-.52-.34l-.5-.42-.54-.45-.52-.53a12.55,12.55,0,0,1-1-1.21,20,20,0,0,1-1.9-3,33.14,33.14,0,0,1-1.62-3.55,49.94,49.94,0,0,1-2.25-8,67.91,67.91,0,0,1-1.2-15.35c.09-2.1.26-3.85.43-5.07S250.53,142.93,250.53,142.93Z" transform="translate(-45.54 -30.8)"/><path class="cls-6" d="M263.93,139.78s.22.53.56,1.45c.16.46.38,1,.59,1.66s.49,1.35.74,2.14.52,1.62.82,2.52.57,1.82.88,2.79.61,2,.93,3,.64,2,1,3,.69,2,1,3,.69,1.95,1,2.89l1,2.67c.37.82.73,1.61,1,2.36l1,2a16.91,16.91,0,0,0,.84,1.5c.5.83.76,1.36.76,1.36s-.49-.26-1.34-.81a8.69,8.69,0,0,1-1.45-1.09c-.51-.48-1.13-1-1.71-1.64s-1.15-1.39-1.74-2.19-1.11-1.7-1.63-2.64-1-1.94-1.43-3-.86-2.09-1.19-3.17-.67-2.17-.9-3.25a32.15,32.15,0,0,1-.64-3.19c-.19-1-.28-2.06-.39-3s-.13-1.87-.15-2.71a35,35,0,0,1,.16-4.09A13.66,13.66,0,0,1,263.93,139.78Z" transform="translate(-45.54 -30.8)"/><path class="cls-6" d="M278,160.79s.21.69.52,1.88.75,2.9,1.22,4.94,1,4.42,1.48,7c.28,1.27.52,2.59.79,3.91s.51,2.69.81,4,.54,2.69.82,4c.14.66.27,1.32.41,2s.29,1.28.43,1.9c.26,1.26.58,2.45.86,3.59s.59,2.19.86,3.19.57,1.87.84,2.67c.13.4.27.76.37,1.12s.28.64.39.92c.49,1.11.75,1.8.75,1.8s-.53-.46-1.41-1.37c-.22-.23-.49-.47-.73-.76s-.46-.64-.72-1a18.06,18.06,0,0,1-1.62-2.48,28.15,28.15,0,0,1-1.57-3.11,33.73,33.73,0,0,1-1.42-3.6c-.45-1.26-.87-2.58-1.21-3.93s-.68-2.74-1-4.13-.5-2.78-.71-4.16-.33-2.73-.47-4a72.21,72.21,0,0,1-.27-7.22c0-2.12.15-3.89.28-5.13S278,160.79,278,160.79Z" transform="translate(-45.54 -30.8)"/><path class="cls-6" d="M299.65,180.16s.37.31,1,.86c.3.27.68.59,1.08,1s.87.79,1.35,1.26l3.29,3.13,1.82,1.73c.62.59,1.27,1.14,1.89,1.73l1.93,1.67c.67.49,1.27,1.09,1.91,1.54s1.23,1,1.85,1.38,1.17.86,1.73,1.18,1.07.67,1.53,1,.89.49,1.24.69c.71.39,1.13.67,1.13.67s-.47.07-1.3.11a12.78,12.78,0,0,1-1.52,0c-.58-.07-1.23-.16-1.95-.29a16.27,16.27,0,0,1-2.24-.66,17,17,0,0,1-2.38-1.06,10.19,10.19,0,0,1-1.19-.69c-.39-.24-.78-.5-1.17-.76-.78-.54-1.49-1.16-2.23-1.77s-1.39-1.3-2-2a25.09,25.09,0,0,1-1.71-2.11,20.94,20.94,0,0,1-1.41-2.11c-.43-.68-.76-1.37-1.09-2a23.52,23.52,0,0,1-1.23-3.19A8.49,8.49,0,0,1,299.65,180.16Z" transform="translate(-45.54 -30.8)"/><path class="cls-6" d="M273.58,70.48l1.18.52,3,1.35,4.05,1.87,2.27,1c.78.29,1.54.69,2.34,1s1.56.64,2.35.9l1.16.44,1.14.36c.38.13.75.25,1.11.39l1.09.3c.7.21,1.38.44,2,.57s1.22.33,1.75.48,1,.21,1.39.3c.78.18,1.25.34,1.25.34s-.43.19-1.21.45c-.39.13-.87.3-1.43.44s-1.2.21-1.91.3a14.05,14.05,0,0,1-2.29.1l-1.26,0c-.42,0-.85-.11-1.29-.17a16,16,0,0,1-2.68-.56,22.14,22.14,0,0,1-2.68-.89,28,28,0,0,1-2.54-1.19,24.9,24.9,0,0,1-2.31-1.41,23.4,23.4,0,0,1-3.66-3.07,18.48,18.48,0,0,1-1.26-1.43c-.36-.44-.65-.85-.88-1.19A8.13,8.13,0,0,1,273.58,70.48Z" transform="translate(-45.54 -30.8)"/><path class="cls-6" d="M283.23,83.94l1.6.94c.49.31,1.13.64,1.8,1.07L289,87.28c.86.48,1.77,1,2.76,1.54s2,1.07,3.07,1.65l3.32,1.66c.57.27,1.15.52,1.72.8s1.15.55,1.74.77c1.17.5,2.34,1,3.52,1.43.59.22,1.17.44,1.74.67l1.72.56,1.67.56,1.63.44c1.07.29,2.07.61,3,.77s1.83.42,2.61.61,1.48.23,2.05.33c1.15.21,1.83.37,1.83.37s-.65.19-1.81.43c-.58.12-1.3.27-2.12.4s-1.76.13-2.79.17a19.8,19.8,0,0,1-3.31-.12l-1.82-.17c-.6-.1-1.22-.24-1.85-.36s-1.28-.25-1.93-.41-1.27-.37-1.92-.58A34.77,34.77,0,0,1,300,97.37c-1.27-.51-2.46-1.19-3.66-1.8-.59-.31-1.15-.68-1.71-1s-1.13-.66-1.64-1c-1-.74-2.05-1.44-2.94-2.2s-1.72-1.47-2.45-2.18-1.36-1.4-1.92-2-1-1.17-1.37-1.65A13.82,13.82,0,0,1,283.23,83.94Z" transform="translate(-45.54 -30.8)"/><path class="cls-6" d="M302.3,102.4l.3.18c.18.13.48.29.82.52.71.43,1.68,1.07,2.87,1.76s2.52,1.5,4,2.32c.73.39,1.47.82,2.24,1.2s1.55.8,2.34,1.18,1.6.72,2.37,1.1,1.59.65,2.34,1,1.53.58,2.24.88,1.41.52,2,.76,1.23.51,1.77.67,1,.35,1.4.49c.78.29,1.23.51,1.23.51s-.46.13-1.3.28c-.41.08-.92.18-1.51.24a17,17,0,0,1-2,.1,14.75,14.75,0,0,1-2.35-.12,23.36,23.36,0,0,1-2.6-.42c-.44-.1-.89-.23-1.35-.35a9.73,9.73,0,0,1-1.36-.43,25,25,0,0,1-2.69-1.11l-1.3-.67c-.44-.22-.83-.51-1.24-.76a22,22,0,0,1-2.3-1.63,26,26,0,0,1-1.95-1.76,21.71,21.71,0,0,1-1.56-1.76A16.54,16.54,0,0,1,303.6,105a13.64,13.64,0,0,1-.77-1.33A8.06,8.06,0,0,1,302.3,102.4Z" transform="translate(-45.54 -30.8)"/><path class="cls-6" d="M308.7,117.44l.2.22.59.52c.28.21.62.44,1,.71s.84.53,1.29.84l.7.48.81.47c.55.33,1.11.69,1.67,1.07s1.23.71,1.84,1.11,1.22.81,1.84,1.21,1.27.78,1.88,1.2,1.21.84,1.77,1.26,1.13.84,1.66,1.22,1,.79,1.46,1.16a23.27,23.27,0,0,1,2.11,2c.49.51.75.84.75.84s-.41,0-1.11-.13a22.89,22.89,0,0,1-2.83-.61,23.7,23.7,0,0,1-3.8-1.35c-.67-.32-1.35-.65-2-1s-1.36-.77-2-1.16-1.29-.93-1.91-1.42-1.22-1-1.77-1.47-1-1.09-1.49-1.62c-.22-.26-.44-.51-.65-.77s-.36-.56-.53-.82a10.73,10.73,0,0,1-.82-1.49c-.2-.48-.34-.9-.45-1.25a6.21,6.21,0,0,1-.13-.86A1.64,1.64,0,0,1,308.7,117.44Z" transform="translate(-45.54 -30.8)"/><path class="cls-6" d="M305.67,131.7s.37.2,1,.58,1.43.94,2.37,1.64,2,1.54,3.08,2.48c.55.46,1.09.95,1.64,1.45l1.66,1.52,3.16,3c.49.51,1,1,1.44,1.4s.9.86,1.3,1.25.8.72,1.15,1a10.7,10.7,0,0,0,.93.79c.54.41.88.7.88.7a7.92,7.92,0,0,1-1.15,0,6,6,0,0,1-1.31-.14,9.77,9.77,0,0,1-1.66-.44,13.49,13.49,0,0,1-1.85-.77,16.07,16.07,0,0,1-1.92-1.08,17.81,17.81,0,0,1-1.9-1.36c-.64-.48-1.22-1-1.81-1.55a28.85,28.85,0,0,1-5.38-6.86,19.81,19.81,0,0,1-1.24-2.65A8.92,8.92,0,0,1,305.67,131.7Z" transform="translate(-45.54 -30.8)"/><path class="cls-6" d="M305.67,141.18l.6,1c.18.31.45.67.69,1.09s.57.87.92,1.34.71,1,1.1,1.5.84,1,1.28,1.55.92,1,1.46,1.5c.26.24.51.49.78.72l.83.67.41.34.44.29c.3.19.59.4.88.61.59.37,1.22.68,1.8,1.05s1.24.57,1.82.87a5.5,5.5,0,0,0,.88.37l.85.33a15.54,15.54,0,0,0,1.52.61c.47.14.88.3,1.22.43.69.27,1.1.46,1.1.46s-.4.15-1.13.34c-.37.09-.81.2-1.33.29a8,8,0,0,1-1.77.16,12.8,12.8,0,0,1-2.11-.08c-.75-.13-1.55-.26-2.36-.48-.4-.13-.79-.29-1.2-.45a8.08,8.08,0,0,1-1.21-.53c-.39-.22-.78-.44-1.16-.68l-.58-.36-.54-.43-1-.88c-.34-.3-.61-.67-.92-1a13.06,13.06,0,0,1-1.52-2.11,14.76,14.76,0,0,1-1-2.17,12.77,12.77,0,0,1-.59-2,12.6,12.6,0,0,1-.24-1.77,10.38,10.38,0,0,1,0-1.37A5.2,5.2,0,0,1,305.67,141.18Z" transform="translate(-45.54 -30.8)"/><path class="cls-6" d="M314.09,158.49l.17.18.44.47c.4.38.91.9,1.55,1.42.32.25.66.52,1,.77.19.11.36.24.55.37l.59.34c.38.26.85.4,1.24.64.22.09.45.16.67.26a4,4,0,0,0,.68.26,13,13,0,0,0,1.42.44c.49.11,1,.3,1.46.37s1,.26,1.43.33.93.18,1.36.29.83.18,1.19.26.69.17.95.24c.54.15.87.28.87.28a8.26,8.26,0,0,1-.74.51,9.79,9.79,0,0,1-2.1,1c-.46.14-1,.29-1.51.42a12,12,0,0,1-1.76.18,7.84,7.84,0,0,1-1.92-.1,8.88,8.88,0,0,1-2-.48,11.51,11.51,0,0,1-1.88-.89c-.29-.19-.56-.4-.83-.61a3.67,3.67,0,0,1-.75-.67,8.52,8.52,0,0,1-.65-.71c-.19-.26-.37-.51-.53-.76a8.16,8.16,0,0,1-.71-1.51,6.3,6.3,0,0,1-.32-1.34,5.84,5.84,0,0,1-.05-1.06A3.81,3.81,0,0,1,314.09,158.49Z" transform="translate(-45.54 -30.8)"/><path class="cls-6" d="M305,172.11s.27.35.68,1,1,1.46,1.66,2.46c1.32,2,2.94,4.65,4.73,7,.43.59.9,1.15,1.36,1.69s.95,1,1.42,1.51,1,.89,1.46,1.27a17.26,17.26,0,0,0,1.44,1,14.69,14.69,0,0,0,1.36.75c.43.2.83.36,1.16.51.67.23,1.09.41,1.09.41a10.69,10.69,0,0,1-1.14.39,9.9,9.9,0,0,1-1.37.2l-.87,0c-.31,0-.63,0-1-.08a10.85,10.85,0,0,1-2.13-.56,12.61,12.61,0,0,1-2.2-1.11,14.3,14.3,0,0,1-2-1.63,15.59,15.59,0,0,1-1.76-2,21.38,21.38,0,0,1-1.42-2.18,20.58,20.58,0,0,1-1.07-2.23,19.47,19.47,0,0,1-1.2-4.18,15.76,15.76,0,0,1-.26-3.06A8.38,8.38,0,0,1,305,172.11Z" transform="translate(-45.54 -30.8)"/><path class="cls-6" d="M218.93,128.53s.12.66.29,1.8.38,2.75.6,4.68c.44,3.86.84,9,1.32,14,.24,2.52.52,5,.85,7.34.16,1.16.35,2.28.56,3.32s.43,2,.67,2.93A24.77,24.77,0,0,0,224,165c.12.37.31.65.43,1a6.74,6.74,0,0,0,.42.81,8.32,8.32,0,0,0,.7,1.1l.28.39-.42-.22a5.31,5.31,0,0,1-1.16-.75,9,9,0,0,1-1.55-1.51,14.91,14.91,0,0,1-1.61-2.3,23.45,23.45,0,0,1-1.43-3,31.17,31.17,0,0,1-1.14-3.46,37.58,37.58,0,0,1-.83-3.77c-.24-1.29-.39-2.61-.53-3.92s-.21-2.63-.24-3.93,0-2.57,0-3.8a61.84,61.84,0,0,1,.58-6.7c.3-1.95.64-3.56.92-4.68S218.93,128.53,218.93,128.53Z" transform="translate(-45.54 -30.8)"/><path class="cls-6" d="M208.27,136.36s.2.61.49,1.66.69,2.55,1.11,4.35c.86,3.58,1.78,8.35,2.73,13.06.24,1.17.49,2.34.73,3.5s.49,2.27.76,3.35.52,2.13.8,3.1.57,1.88.87,2.71a22.4,22.4,0,0,0,.9,2.23c.15.33.33.61.47.89a5.56,5.56,0,0,0,.45.74c.15.21.29.41.4.58l.35.4.29.35-.42-.16a5.64,5.64,0,0,1-1.17-.6,6.58,6.58,0,0,1-.77-.55,6.32,6.32,0,0,1-.83-.75,14,14,0,0,1-1.72-2,20.79,20.79,0,0,1-1.61-2.69,31.47,31.47,0,0,1-1.4-3.15c-.42-1.12-.81-2.28-1.14-3.48s-.62-2.42-.88-3.64a59.2,59.2,0,0,1-1.1-13.63c.08-1.87.24-3.43.39-4.52S208.27,136.36,208.27,136.36Z" transform="translate(-45.54 -30.8)"/><path class="cls-17" d="M158.16,221.31s15.92-.25,0-7c-6.69-2.42-27-11.17-44.06,13C117.33,228.79,144.32,238,158.16,221.31Z" transform="translate(-45.54 -30.8)"/><path class="cls-11" d="M158.16,221.26a27.18,27.18,0,0,0,4.13-.57,7.57,7.57,0,0,0,1.91-.66,1.55,1.55,0,0,0,.67-.58.76.76,0,0,0,0-.74,4.6,4.6,0,0,0-1.41-1.32,16.41,16.41,0,0,0-1.77-1c-1.22-.63-2.51-1.2-3.76-1.72s-2.62-.95-3.95-1.35c-.66-.22-1.32-.41-2-.59s-1.33-.39-2-.52c-1.34-.35-2.71-.54-4.07-.76a33.57,33.57,0,0,0-4.13-.28c-.69,0-1.39,0-2.08,0l-2.06.2a14.18,14.18,0,0,0-2,.36c-.67.17-1.36.27-2,.49l-2,.69-1,.34-.93.47-1.86.94-.46.24-.44.29-.86.58-1.73,1.16c-.57.4-1.06.9-1.59,1.34l-1.57,1.37a18.7,18.7,0,0,0-1.45,1.5l-1.4,1.53-.7.77-.63.83-2.51,3.32-.17-.64c.88.36,1.81.67,2.74,1s1.88.56,2.83.8c1.9.48,3.82.88,5.75,1.18s3.88.55,5.83.66c1,.07,1.95.09,2.93.1s1.95,0,2.92-.09,1.95-.14,2.91-.28,1.93-.27,2.88-.49,1.9-.46,2.83-.73,1.84-.63,2.74-1a13.2,13.2,0,0,0,1.33-.6,13.4,13.4,0,0,0,1.3-.68,27.85,27.85,0,0,0,2.48-1.56,26.72,26.72,0,0,0,2.29-1.84,29.29,29.29,0,0,0,2.08-2.09h0Zm0,.1c-.64.74-1.25,1.52-2,2.2a26.34,26.34,0,0,1-2.21,2,27.47,27.47,0,0,1-2.46,1.69,12.89,12.89,0,0,1-1.3.75c-.44.23-.87.48-1.33.67s-.91.43-1.38.61l-1.4.52c-1,.3-1.91.61-2.88.83s-2,.42-2.94.58-2,.27-3,.34-2,.11-3,.11-2,0-3-.08a53.68,53.68,0,0,1-5.94-.66q-2.94-.51-5.83-1.29a42,42,0,0,1-5.67-1.91l-.51-.22.33-.42,2.63-3.3L117,223l.74-.75,1.48-1.51a21,21,0,0,1,1.52-1.46l1.63-1.33c.56-.43,1.07-.92,1.66-1.3l1.77-1.15.88-.58.44-.28.47-.24,1.89-.93.94-.47,1-.37,2-.72c.66-.24,1.36-.35,2-.53a14.26,14.26,0,0,1,2.06-.45l2.09-.29c.7-.11,1.41-.08,2.11-.12a35.15,35.15,0,0,1,4.23.11c1.4.19,2.8.39,4.18.72.69.13,1.37.32,2.05.51s1.35.39,2,.62c1.34.43,2.65.94,3.95,1.43a40.86,40.86,0,0,1,3.83,1.83,19,19,0,0,1,1.81,1.14,5.24,5.24,0,0,1,1.54,1.6,1.31,1.31,0,0,1,0,1.26,2,2,0,0,1-.9.75,7.41,7.41,0,0,1-2.07.6A24.38,24.38,0,0,1,158.19,221.36Z" transform="translate(-45.54 -30.8)"/><path class="cls-18" d="M148.16,221c0,5.12-4.5,9.27-10.07,9.27S128,226.09,128,221s4.51-9.28,10.07-9.28S148.16,215.85,148.16,221Z" transform="translate(-45.54 -30.8)"/><path class="cls-19" d="M139.83,220.78a4,4,0,1,1-4-4.11A4.05,4.05,0,0,1,139.83,220.78Z" transform="translate(-45.54 -30.8)"/><path class="cls-6" d="M142.08,220.57a4,4,0,1,1-4-4.11A4.06,4.06,0,0,1,142.08,220.57Z" transform="translate(-45.54 -30.8)"/><path class="cls-6" d="M159.71,228.75S141.27,248,120.3,232.47c3,3.8,10.68,8.09,17.79,7.92A53,53,0,0,1,131,242S144.89,245.32,159.71,228.75Z" transform="translate(-45.54 -30.8)"/><path class="cls-20" d="M133.6,227.42c-.18-1.81,2.15-2.36,3.43-2,1.6.41,2.93.91,4.61.43s1.68-2.2,3-3c1.74-1,1.67,2.33,1.08,3.3-1.23,2.05-4.29,3.3-6.58,3.42a8.78,8.78,0,0,1-3.68-.15c-.83-.29-2.51-1.35-1.71-2.46" transform="translate(-45.54 -30.8)"/><path class="cls-6" d="M144.58,200s22.68,9.58,22.86,14.78c.15-.63-11.6-7.06-21.44-5.25,4.57.83,16.56,5,19.24,8.91-.64-.51-19.56-12.38-37.22-4.13-4,2.58-11.13,8.71-13.92,13-.74,0-5.78,1.41-5.78,1.41s10.37-14.26,26.23-18.71c-5.11-.17-11.89-.33-24.66,9.73,6.31-6.93,16.71-15.66,47.61-11.38C153.25,206.08,144.58,200,144.58,200Z" transform="translate(-45.54 -30.8)"/><path class="cls-17" d="M203.39,213.89s-8.08,1.9-8.32,0,1.9-4,8.32-8.55c0,0,17.82-16.87,50.6,0-.71.23-5.23-2.86-10,2.61C240.45,212.22,225.24,222.68,203.39,213.89Z" transform="translate(-45.54 -30.8)"/><path class="cls-11" d="M203.38,213.94a33.18,33.18,0,0,1-5.17,1,11.73,11.73,0,0,1-1.33.06,4,4,0,0,1-1.38-.24,1.15,1.15,0,0,1-.63-.55,1.52,1.52,0,0,1-.08-.42,2,2,0,0,1,0-.35,3.25,3.25,0,0,1,.43-1.37,9.58,9.58,0,0,1,1.71-2.11,25.68,25.68,0,0,1,2-1.76c1.37-1.11,2.79-2.14,4.22-3.16l-.05,0a22.21,22.21,0,0,1,2.74-2.05,32.25,32.25,0,0,1,3-1.66l1.53-.71c.52-.24,1.06-.41,1.58-.61s1.05-.42,1.59-.58l1.63-.44a29,29,0,0,1,3.3-.71,27,27,0,0,1,3.34-.42l1.68-.15c.56,0,1.12,0,1.68,0h1.68a10.49,10.49,0,0,1,1.68.06l3.34.28c1.11.12,2.21.36,3.31.53a24.28,24.28,0,0,1,3.29.67l3.25.84.81.21.8.27,1.58.56,3.17,1.11c2.06.89,4.09,1.82,6.14,2.74l1.15.53-1.21.24a1.13,1.13,0,0,1-.4,0l-.25,0-.44-.12-.8-.22a10,10,0,0,0-1.6-.23,6.52,6.52,0,0,0-3.1.63,8.73,8.73,0,0,0-2.58,1.92c-.37.39-.77.82-1.15,1.24s-.86.81-1.28,1.22l-1.36,1.09-1.43,1a33.38,33.38,0,0,1-3,1.71c-1,.54-2.1,1-3.16,1.4s-2.18.78-3.29,1.08a29.94,29.94,0,0,1-3.38.74l-1.71.27c-.57.08-1.14.09-1.72.14l-1.72.13-1.72,0c-.58,0-1.15,0-1.73,0l-1.71-.18-1.71-.18-1.69-.32-1.69-.33c-.56-.1-1.1-.29-1.65-.44l-1.65-.48-.82-.24-.8-.31Zm0-.1,3.26,1.06.81.26.82.19,1.66.4c.55.12,1.09.29,1.65.37l1.68.26,1.67.26,1.69.12,1.69.11c.56,0,1.13,0,1.69,0l1.69,0,1.68-.16c.55-.06,1.12-.09,1.67-.18l1.66-.3c1.11-.16,2.18-.51,3.28-.77s2.14-.68,3.19-1.06,2.07-.85,3.06-1.38a30,30,0,0,0,2.91-1.67l1.38-.94,1.32-1c.4-.38.81-.7,1.2-1.12s.77-.82,1.19-1.25a9.74,9.74,0,0,1,2.9-2.08,7.28,7.28,0,0,1,3.53-.67,9.34,9.34,0,0,1,1.77.29l1.41.41,0,.77-6-2.89-3.1-1.2-1.56-.59-.78-.3-.8-.23-3.21-.91a25.79,25.79,0,0,0-3.25-.71c-1.1-.17-2.19-.44-3.29-.54l-3.33-.24a10.23,10.23,0,0,0-1.66,0l-1.67,0c-.55,0-1.11,0-1.66.06l-1.65.21a26.05,26.05,0,0,0-3.28.53,27.41,27.41,0,0,0-3.21.81c-1.06.32-2.11.64-3.13,1.06-.51.21-1,.38-1.53.62l-1.49.71c-.51.22-1,.52-1.45.78s-1,.53-1.42.84a20.55,20.55,0,0,0-2.65,1.91l0,0h0c-1.44,1-2.86,2-4.23,3.08-.68.53-1.35,1.08-2,1.66a9,9,0,0,0-1.66,1.9,2.83,2.83,0,0,0-.4,1.1,1.74,1.74,0,0,0,0,.53.59.59,0,0,0,.34.29,3.45,3.45,0,0,0,1.19.24,9.24,9.24,0,0,0,1.29,0,38.16,38.16,0,0,0,5.19-.66Z" transform="translate(-45.54 -30.8)"/><path class="cls-18" d="M234.51,206.93c0,5-5.32,9.09-11.88,9.09s-11.88-4.07-11.88-9.09,5.32-9.09,11.88-9.09S234.51,201.91,234.51,206.93Z" transform="translate(-45.54 -30.8)"/><path class="cls-19" d="M225.77,206.93c0,2.28-2.13,4.13-4.75,4.13s-4.75-1.85-4.75-4.13,2.13-4.12,4.75-4.12S225.77,204.65,225.77,206.93Z" transform="translate(-45.54 -30.8)"/><path class="cls-6" d="M227.2,206.48c0,2-2,3.67-4.39,3.67s-4.39-1.64-4.39-3.67,2-3.67,4.39-3.67S227.2,204.45,227.2,206.48Z" transform="translate(-45.54 -30.8)"/><path class="cls-6" d="M204.86,221.09s27.76,12.8,43.19-3.66C244,227.91,222.88,234.73,204.86,221.09Z" transform="translate(-45.54 -30.8)"/><path class="cls-20" d="M218.11,212.29c-.18-1.78,2.21-2.32,3.53-2,1.65.41,3,.9,4.75.43s1.73-2.17,3.1-2.93c1.79-1,1.72,2.28,1.12,3.25-1.28,2-4.42,3.24-6.79,3.36a9.67,9.67,0,0,1-3.79-.15c-.85-.28-2.58-1.33-1.76-2.43" transform="translate(-45.54 -30.8)"/><path class="cls-9" d="M202.14,216s26.43,10.77,47.58-5.87C249.72,210.15,235.41,237.16,202.14,216Z" transform="translate(-45.54 -30.8)"/><path class="cls-6" d="M187.33,209.73s20-13.32,24.67-13.64,28.9.58,33.61,1.75c-1-1.26-10.88-5-14.29-10.52,4.39,3.09,15.75,10.56,21.27,13.48a60.68,60.68,0,0,1,8,4.81s-10.13-.33-17.41,3.27c.87-.93,6.47-6,2.13-7.4s-25.37-8.24-44.11,5.45c-2.75,2.14-6.13,5.27-6.09,7-.93-1.24-.76-6.34,19.85-16a61.06,61.06,0,0,0-6.65,1S188.62,209.41,187.33,209.73Z" transform="translate(-45.54 -30.8)"/><path class="cls-16" d="M114.13,58s57.24-47.81,142.5,3.14C268.2,71.33,278.39,80,280,80.38s-7.33,2.4-9.94,0,30.53,13,35,75.6c-1.14,10.6-4.73,17.58,0,26.24a47.23,47.23,0,0,1-10.28-23.73c-1.45,4.17-.76,22.31,5.66,32.85,2,7.14-4.74,16.72-4.74,16.72s-25.21-42.33-18.69-71.7c-3.28,4.74-3.38,25.82-3.38,25.82s-10.87-21.92-7.74-33.65-11.33,19.76-9.21,30.9c-3.33-4.61-11.17-25.28-11.56-42s-7.64,24.18-3.92,30.14-6.64-14.3-6.64-14.3-2.82,20.66,0,25.21-7.06-40.12-18.24-53.84c-1,0-4.65,31.86-2.82,36.9-1.31-.05-13.72-23.36-13.2-27.19.52,5.58,4,23.7,4.61,25.42-2.13-.24-10.68-10.44-10.91-19.06.16,0-1.47,21.16,1.5,27.83-1.73-.39-8.91-16.6-9-24-.13-.32-7.47,13.56-5.23,20.92,0,2.28-5.56-11.62-2.19-23.29,0,0-14.58,17.26-13.74,34.28-2.1-2.83-6.53-10.07,0-34.28-4.45,4-15.83,16.9-15,27.92-1.56-6.27-4.7-15,2.75-35.15l5.09-15s-25.87,22-33.32,51c-1.56-4.7-1.17-37.28,5.49-51.37-14.5,17.27-36,28.7-38.2,73.75-4.53-10.62-9.28-18.83-6.12-41.58-1.93.78-14.24,12.35-16.71,27.73-1.69,1.27-1.63-28,22.45-50-.23-2.8-6.71-1.22-12.09,2.89-.68-1.77,14.43-23.47,30-34a78.78,78.78,0,0,0-9.9,0S106.16,63.37,114.13,58Z" transform="translate(-45.54 -30.8)"/><path class="cls-16" d="M278,86S297.49,103.23,305,102.4c-2.71,0-5.71,4.41-13.53-2.87-4.83.79,17.69,15.63,25,18.86-2.8-.33-10.33-1-16.91-6.09-1,2.53,6.05,17.46,13.61,21.13.61,2.6-21-8.86-21-8.86Z" transform="translate(-45.54 -30.8)"/><path class="cls-13" d="M151,319.32s5.52,6.37,23.31-3.73c0-.74-18.84,11,2.92,35.44,2.08,2.34,10.81,7.53,10.81,7.53S156.44,341,151,319.32Z" transform="translate(-45.54 -30.8)"/><path class="cls-13" d="M273.66,293.67s-4.82,21.49-43.63,12c0,.07,32.43,5.72,19.69,37.37C264.24,324.45,269.43,313.77,273.66,293.67Z" transform="translate(-45.54 -30.8)"/><path class="cls-13" d="M183.23,341.67c2.61-3.32,2.62-6,7.34-8,4-1.72,10.31-2.88,14.66-3.37,7.47-.83,15.55,3.56,21.89,6.82,4.82,14.94-46.48,20.37-43.22,3.21" transform="translate(-45.54 -30.8)"/><path class="cls-6" d="M188.15,332.4s7.26-4.92,28.5-2.6C208,331,203,333.85,188.15,332.4Z" transform="translate(-45.54 -30.8)"/><path class="cls-13" d="M165.24,332.8s19.45,31.78,36.9,16.19c2.61,1.88,22.32-5.94,22.32-5.94S239.34,354.61,254,330.2c2-1.4.09,4.4.09,4.4s-13.56,31.69-35.66,31.26C206.74,367,171.26,360.28,165.24,332.8Z" transform="translate(-45.54 -30.8)"/><path class="cls-6" d="M218.05,258.2l1.29,1.77,1.49,2,1.95,2.56,1.15,1.43c.39.5.78,1,1.22,1.52.88,1,1.77,2.1,2.78,3.12.5.52,1,1.06,1.51,1.58s1.11,1,1.66,1.46,1.15,1,1.76,1.52,1.23,1.08,1.84,1.62a42.79,42.79,0,0,1,3.32,3.56,36.31,36.31,0,0,1,2.78,3.82c.4.65.81,1.3,1.15,1.95s.68,1.3,1,2a20.78,20.78,0,0,1,1.3,3.76,17.49,17.49,0,0,1,.53,3.32c0,.5,0,1,0,1.4s-.08.82-.11,1.18a9.19,9.19,0,0,1-.32,1.61l-.14.55,0-.57a11.91,11.91,0,0,0-.11-1.59l-.16-1.12c-.1-.4-.19-.83-.3-1.28a22.28,22.28,0,0,0-1-3,31,31,0,0,0-1.67-3.29c-.65-1.13-1.45-2.27-2.28-3.43a55.36,55.36,0,0,0-6-6.7c-.57-.51-1.07-1-1.68-1.54s-1.17-1-1.77-1.6-1.18-1.12-1.74-1.68-1-1.2-1.5-1.79a33,33,0,0,1-2.59-3.53c-.8-1.13-1.4-2.3-2-3.33s-1.07-2.05-1.5-2.92-.75-1.67-1-2.31C218.3,259,218.05,258.2,218.05,258.2Z" transform="translate(-45.54 -30.8)"/><path class="cls-10" d="M184.09,177.18a49.55,49.55,0,0,1-11.32-26.85" transform="translate(-45.54 -30.8)"/><path class="cls-6" d="M184.09,177.18a11,11,0,0,1-1.13-.72c-.34-.26-.76-.56-1.19-1a15.8,15.8,0,0,1-1.44-1.35,26.48,26.48,0,0,1-3.08-3.82,31.34,31.34,0,0,1-2.66-5c-.39-.88-.69-1.79-1-2.69a10.91,10.91,0,0,1-.39-1.35c-.11-.45-.23-.89-.32-1.33a25,25,0,0,1-.42-2.57,19,19,0,0,1-.15-2.32c0-.72,0-1.38,0-2s.12-1.1.18-1.52c.12-.83.23-1.31.23-1.31s.24.45.56,1.22c.16.38.36.84.54,1.37s.49,1.12.73,1.76.49,1.33.8,2,.55,1.49.89,2.26.61,1.58,1,2.38.64,1.65,1,2.45c.68,1.64,1.41,3.27,2.08,4.8l1.88,4.24,1.35,3.1C183.91,176.72,184.09,177.18,184.09,177.18Z" transform="translate(-45.54 -30.8)"/><path class="cls-6" d="M189.8,122.86s-.06.69-.21,1.88-.41,2.87-.75,4.87-.8,4.31-1.33,6.76c-.25,1.23-.53,2.5-.82,3.78s-.58,2.58-.87,3.88-.6,2.59-.89,3.87c-.14.64-.29,1.27-.44,1.89s-.27,1.24-.41,1.85-.26,1.2-.41,1.78-.24,1.16-.35,1.71c-.26,1.12-.46,2.17-.64,3.15-.09.49-.19,1-.28,1.4s-.12.88-.18,1.28a21.07,21.07,0,0,0-.28,2.09c-.09,1.17-.18,1.88-.18,1.88s-.25-.63-.61-1.81a12.1,12.1,0,0,1-.46-2.15c-.07-.42-.14-.87-.22-1.34s-.06-1-.1-1.49-.05-1.06-.08-1.63,0-1.13,0-1.73,0-1.2.07-1.82.12-1.25.18-1.89c.12-1.29.31-2.6.55-3.93s.51-2.67.79-4a79.14,79.14,0,0,1,4.71-14.2c.84-1.87,1.62-3.4,2.21-4.45S189.8,122.86,189.8,122.86Z" transform="translate(-45.54 -30.8)"/><path class="cls-21" d="M191.05,319.68a4.21,4.21,0,0,1-1.34,4.09c-2,1.61,2.72-1.22,3.47-4.09,1.17-.83,2.22.23,2.64.93s.56,4.91.56,4.91.21-5.26,1.9-5.19,4.12,6,4.12,6-1.88-5.75,0-6.62,4.94,2.26,5.29,3.88-1.89-5.38-.65-6,6.76,3.51,6.76,3.51-4.36-4.28-2.46-4.92,5.76,1.06,5.76,1.06l-2.3-3.2S205.44,320.44,191.05,319.68Z" transform="translate(-45.54 -30.8)"/><path class="cls-22" d="M160.47,315.51s7.14-2,18.25,0,18.52,4.76,27.64,1.46,28.84-15.08,34-11.91c1.06.93.27.8-3.17.93s-20.76,6.91-31.74,12.38c-5,2-7,1.77-23.81-1.27-5.46-1-10.31-2.75-17.59-.71C161,316.84,159.68,316.57,160.47,315.51Z" transform="translate(-45.54 -30.8)"/></svg>