<svg id="Layer_1" data-name="Layer 1" xmlns="http://www.w3.org/2000/svg" viewBox="0 0 357.86 429.12"><defs><style>.cls-1,.cls-4{fill:#f4cebb;}.cls-1,.cls-10,.cls-16,.cls-25,.cls-27,.cls-31{stroke:#231f20;}.cls-1,.cls-10,.cls-13,.cls-16,.cls-23,.cls-25,.cls-26,.cls-27,.cls-28,.cls-31{stroke-miterlimit:10;}.cls-2,.cls-26,.cls-31{fill:#231f20;}.cls-3{fill:#d99b87;}.cls-5{fill:#e2b4a2;}.cls-6{fill:#cdd1cd;}.cls-7{fill:#edeee4;}.cls-8{fill:#f1f2f2;}.cls-27,.cls-28,.cls-9{fill:#231f1f;}.cls-10{fill:#107264;}.cls-11{fill:#fff;}.cls-12{fill:#00a79d;}.cls-13{fill:#010101;}.cls-13,.cls-23,.cls-26,.cls-28{stroke:#231f1f;}.cls-13,.cls-16,.cls-23{stroke-width:0.25px;}.cls-14{fill:#eb9f9c;}.cls-15{fill:#d98382;}.cls-16{fill:none;}.cls-17{fill:#d3dbe2;}.cls-18{fill:#596a79;}.cls-19{fill:#3c8ebd;}.cls-20{fill:#317490;}.cls-21{fill:#c1cbd4;}.cls-22,.cls-25{fill:#58595b;}.cls-23,.cls-24{fill:#414042;}.cls-26,.cls-28{stroke-width:3px;}.cls-27{stroke-width:2px;}.cls-29{fill:#c2b297;}.cls-30{fill:#d28682;}</style></defs><title>upset_guy</title><path class="cls-1" d="M132.38,204.85s-18.63,35.48,20.67,46.53c.16.8-5.61-51.17-5.61-51.17Z" transform="translate(-40.3 -26.09)"/><path class="cls-2" d="M147,239s-6.17,9-14.39-10.83C133.35,230.48,139.74,240.59,147,239Z" transform="translate(-40.3 -26.09)"/><path class="cls-3" d="M318.52,112.25s16.7,56.89,14.22,90.91c.62,16.69,2.48,50.7-2.47,75.44s-23.5,74.82-81,79.77c-31.54-4.95-69.26-29.68-87.19-74.82-8-17.32-16.7-54.42-11.13-111.93S223.29,33.72,318.52,112.25Z" transform="translate(-40.3 -26.09)"/><path class="cls-4" d="M315.18,115.32C284.67,87.7,203.39,174.06,204.4,172.18c-2.48,6.41-9.13,10.14-13.88,13.9-5.52,4.35-9.9,9.21-14.8,14.08-5.15,5.12-8.38,9.22-9.85,17.75-1.67,9.66,3.42,12.89,5.73,21.2-4.35-.45-10.42-1.94-14.33-4.3.62,11,1.07,30.63,4.56,41.37,4.22,13,16.66,35.31,25,45.5,14.48,17.66,28.27,22.36,48.26,31.62,22.08,10.22,44.34,1.36,61.26-18C310.58,319,319.55,305.38,327.1,285c8.12-21.93,2.7-58.41,2.75-82.31,0-11.84-4.12-21.48-4.67-33.21a153.93,153.93,0,0,0-5.48-36.1c-1.88-6.75-2.07-14.55-6.52-20.22" transform="translate(-40.3 -26.09)"/><path class="cls-5" d="M282.6,196.69s-5.21,4.83,0,14.48,6.13,9,7.48,12.6,2.68,6.57,8,7.93a59.06,59.06,0,0,0,10.54,1.59s-6.12-3.63-2-4.31,11.35,2.5,11.35,2.5-6.8-4.54-4.53-5.44,5.89-1.36,7.93-2.95,5.9-4.41,7.26-8.1,7.71,0,7.71,0a58.42,58.42,0,0,0-8.85-3.82c-4.53-1.46-3.85-3.16,1.59-3.22s7.26,0,7.26,0h2.82a12.76,12.76,0,0,0-3.43-4.92,77.69,77.69,0,0,0-7.78-4.87s5.38,4.66,1.13,5.25-14-2.6-17.49-2.88-13.76-6.59-14.47-6.83S290.77,188.42,282.6,196.69Z" transform="translate(-40.3 -26.09)"/><path class="cls-5" d="M269.68,192.19s7.48,7.27-.91,14.1-15.87,16.35-17.68,19.52-14.36,5.89-18,5.89-5.07-2.72-10.79,0-32.7-16.12-36.78-22.68c-1.36.69,5.67-9.82,16.32-13.86S255,177.83,269,192" transform="translate(-40.3 -26.09)"/><path class="cls-6" d="M316.43,110.55s17.29,61,17.17,87.66c-.64,10.55,0,32.15,0,32.15s9.07-8.65,10.92-17.31v11.13s4.95-17.31,7.42-24.74c-1.85,0,2.48,7.43,6.81,11.75-1.24.62-6.19-6.18-5-16.07l5,5.56a47.26,47.26,0,0,1,0-20.41c2.47-11.13,1.85-83.29-35.87-100.7-1.24-1.33,18.55,7.33,24.73,6.71-.61-.62-20.4-8.66-34-20.41,8,3.71,16.92,6.19,23,4.95-.12-1.24-21.14-7.42-35.36-17.93-9.28-3.71-19.18-6.8-19.18-6.8s-27.2-39-99.56-6.19C143.52,59.69,107,80.71,124.35,116.58,123.73,117.82,110.92,85,149.17,64,134.24,82.57,113,129,119.92,166.67c-3,6.18-9.18,39.58,2,55,1.24,6.8-1.85,30.3-11.13,32.77-1.24,1.86,11.13,1.24,13.61-11.75,0,3.1-8,18.34-8,18.34s6.18-1.64,8.65-6c.31.62-.31,3.56-1,6.34s-1.47,5.41-1.47,5.41h3.09l3.71,4.33,5-6.18,4.33,2.47,1.85-3.71,12.63,4.66v-17s-24.38-3.61-23.76-32.41c-.62-2.83,3.09-14,3.09-14l.62,14s6.19-6.54,6.19-10.87-1,18.16-4.95,20.41c0,.62,9.89-4.95,11.13-14.22-1.24,1.23.67,18-6.18,20.4,1.85,1.86,10.64-1.73,10.31-13.54,0-.64,7,16,19.37,13.54-1.86,0-16.7-11.13-11.13-27.82,1.24,5.56,1.24,13.6,6.18,17.31-2.61,4-8-19.79,10.51-53.8-.61,2.47-5.24,27.83-9.27,35.87,1.85-3.71,7.42-6.8,8-8s-1.24,6.18-1.24,6.18,24.12-20.4,30.92-35.25c1.24,4.33-2.47,14.23-5.56,18.56s20.4-27.83,22.88-44.53c-.62,6.8-11.75,29.07-6.81,39-.61,2.47,12.08-20.54,28-33.15a34.77,34.77,0,0,0,11.58-8.9S238.13,156.78,248,184c-4.94-1.86-1.23-26.59,16.08-45.15,3.09-2.47-4.33,10.14-4.33,10.14s11.75-9.52,14.84-16.94c0,1.86-21.64,29.68-19.78,42.67,0,1.86,6.8-15.46,22.26-32.16C287,132,294.14,122.15,295,109.16c-.62-4.33,9.28,8.66,7.42,17.93s3.32-7.7.62-17.93c.62-1.85,6.8,15.46,6.8,15.46l-1.23-14.22,4.32,8.66S321.22,114.29,316.43,110.55Z" transform="translate(-40.3 -26.09)"/><path class="cls-7" d="M255.16,185.08a13.72,13.72,0,0,1-12.55,7.1c-9.09-.17-36.17-1-46.24,7.43,11.72-10.24,22.46-13.87,35.67-15.19A86.42,86.42,0,0,1,255.16,185.08Z" transform="translate(-40.3 -26.09)"/><path class="cls-8" d="M287.64,211.29s-7.48,2.34-7.48,1.4,7.95-10.76,13.1-11.23,17.54,6.07,29.24,5.73C322.74,208.24,312,225.32,287.64,211.29Z" transform="translate(-40.3 -26.09)"/><path class="cls-9" d="M287.64,211.34c-1.08.4-2.18.75-3.28,1.08a20,20,0,0,1-3.42.77h-.49a1.12,1.12,0,0,1-.3-.08A.44.44,0,0,1,280,213a.29.29,0,0,1-.08-.13.42.42,0,0,1,0-.22,3.14,3.14,0,0,1,.41-.88c.31-.51.65-1,1-1.45.7-.94,1.48-1.81,2.25-2.67s1.61-1.69,2.48-2.47a22.47,22.47,0,0,1,2.75-2.2,12.92,12.92,0,0,1,3.19-1.61,4.5,4.5,0,0,1,.9-.19,3.06,3.06,0,0,1,.48-.07h.43a12.17,12.17,0,0,1,1.78.17,67,67,0,0,1,6.71,1.87c2.2.7,4.41,1.38,6.64,1.93a57.87,57.87,0,0,0,6.77,1.34c1.14.13,2.28.28,3.42.31s2.28.06,3.42,0h.39l0,.33a1.36,1.36,0,0,1,0,.35l-.06.19a3.27,3.27,0,0,1-.14.33c-.09.2-.2.39-.3.58a9.86,9.86,0,0,1-.72,1.06,16,16,0,0,1-1.67,1.91,18.91,18.91,0,0,1-1.9,1.67,19.78,19.78,0,0,1-2.11,1.4,19.22,19.22,0,0,1-4.66,1.94c-.4.12-.82.21-1.23.29s-.83.17-1.24.23a21.45,21.45,0,0,1-2.52.23,21,21,0,0,1-2.51-.06c-.84-.05-1.67-.17-2.49-.3a30.67,30.67,0,0,1-4.84-1.24c-.79-.25-1.55-.59-2.32-.89s-1.52-.68-2.27-1l-2.18-1.16Zm0-.11,2.22,1.12,2.25,1c.76.3,1.52.61,2.29.89s1.54.55,2.32.76,1.57.45,2.37.61,1.59.31,2.39.44,1.61.19,2.42.22c.4,0,.8,0,1.21,0l1.2,0a21.43,21.43,0,0,0,2.4-.24c.4-.06.79-.13,1.18-.22s.79-.17,1.17-.29a18.48,18.48,0,0,0,2.27-.79,21.51,21.51,0,0,0,2.16-1,18.74,18.74,0,0,0,2-1.3,18.06,18.06,0,0,0,1.83-1.55,14.22,14.22,0,0,0,1.61-1.78,10.58,10.58,0,0,0,.68-1,5,5,0,0,0,.29-.5,2,2,0,0,0,.1-.23l0-.11s0,0,0,0l.43.33c-1.17,0-2.34,0-3.5-.15s-2.31-.29-3.45-.47-2.28-.44-3.41-.72-2.24-.57-3.36-.87c-2.23-.61-4.44-1.29-6.66-1.92a52.76,52.76,0,0,0-6.69-1.58,11.47,11.47,0,0,0-1.67-.08l-.44,0c-.08,0-.25,0-.37.07a4.51,4.51,0,0,0-.78.21,12.2,12.2,0,0,0-2.94,1.55c-.91.67-1.81,1.37-2.66,2.12s-1.67,1.56-2.47,2.38-1.55,1.68-2.27,2.57c-.36.44-.71.89-1,1.35a2.41,2.41,0,0,0-.35.66c0-.2-.09-.17,0-.17l.11,0h.39a25.1,25.1,0,0,0,3.36-.57c1.12-.25,2.24-.53,3.36-.81Z" transform="translate(-40.3 -26.09)"/><path class="cls-2" d="M275,209.12s11.47-10.54,18-9.57,26,7.63,40,9.57c-.7.53-9.59,1.64-10.53.76s1.18-2.19-3.47-2.79-24.43-6.65-27-5.36-11.4,8.39-11.87,11-.46-4,8.42-11.25C289.05,201.69,282.5,202.74,275,209.12Z" transform="translate(-40.3 -26.09)"/><path class="cls-9" d="M327.18,214.33s-7.72,14-23.16,14C311,228.6,324.84,225.32,327.18,214.33Z" transform="translate(-40.3 -26.09)"/><path class="cls-10" d="M297.76,202.14s-5.53,12.62,7,14.65c5.64-.56,10.29-1.66,10.09-10.22C314.58,206.53,305.34,202.27,297.76,202.14Z" transform="translate(-40.3 -26.09)"/><path class="cls-11" d="M307.37,207.67a3.38,3.38,0,1,1-3.35-2.95A3.17,3.17,0,0,1,307.37,207.67Z" transform="translate(-40.3 -26.09)"/><path class="cls-2" d="M309.05,208.34a3.37,3.37,0,1,1-3.34-3A3.16,3.16,0,0,1,309.05,208.34Z" transform="translate(-40.3 -26.09)"/><path class="cls-12" d="M297.85,208.64c.58-1.24,2.44-.84,3.22-.12.54,2,3.25,3.67,5.18,3.81,1.63.11,1.87-.79,3.14-1.45,1-.5,2.45-.67,2.33,1-.2,2.83-3.49,3-5.61,3a8.65,8.65,0,0,1-7.12-3.2c-.59-.84-1.42-2.67-.7-3.58" transform="translate(-40.3 -26.09)"/><path class="cls-13" d="M286.89,205.39s-8.38,7.2-6.73,7.3,7.48-1.4,7.48-1.4-5.08-.38-3.15-1.83,3.15-2.33,3.15-2.33a7.59,7.59,0,0,0,.94,3.78C289.58,212.35,285.8,210.37,286.89,205.39Z" transform="translate(-40.3 -26.09)"/><path class="cls-8" d="M249.87,209s8.6,2.81,7.25,0-9.29-6.91-12.91-6.73S225.41,208,208,209C207.08,209.43,227.91,225.1,249.87,209Z" transform="translate(-40.3 -26.09)"/><path class="cls-9" d="M249.88,208.91c1.22.32,2.44.62,3.67.83a16.45,16.45,0,0,0,1.84.21,5.35,5.35,0,0,0,.9,0,1,1,0,0,0,.64-.27c.1-.09,0-.37-.09-.57a4.4,4.4,0,0,0-.53-.74,9.78,9.78,0,0,0-1.33-1.22,22.88,22.88,0,0,0-3.11-2,26.31,26.31,0,0,0-3.38-1.53,16.64,16.64,0,0,0-3.53-.9,6,6,0,0,0-.84,0l-.93.15a13.77,13.77,0,0,0-1.83.36c-1.2.27-2.42.54-3.64.84l-3.68.85-3.68.83q-3.69.82-7.39,1.53c-1.24.24-2.47.5-3.72.68l-3.73.6c-1.24.24-2.5.32-3.75.47l-3.77.38.17-.05a.31.31,0,0,0,.18-.24.2.2,0,0,0,0-.13s0,0,0,0a.44.44,0,0,0,.07.08,2.13,2.13,0,0,0,.21.22c.16.14.34.29.52.42.36.28.75.54,1.14.79a25.92,25.92,0,0,0,2.41,1.38,34.59,34.59,0,0,0,5.16,2.13,35.86,35.86,0,0,0,11,1.8,34.49,34.49,0,0,0,5.55-.42,35,35,0,0,0,5.43-1.34,40.89,40.89,0,0,0,10-5.05l0,0Zm0,.1a40.61,40.61,0,0,1-4.68,3.19,35.67,35.67,0,0,1-5.15,2.44,32.77,32.77,0,0,1-11.22,2.1,34.49,34.49,0,0,1-11.3-1.84,34.92,34.92,0,0,1-5.26-2.27c-.85-.45-1.68-.93-2.48-1.46-.39-.27-.79-.56-1.17-.86-.19-.16-.37-.31-.56-.49l-.28-.29-.14-.2a1,1,0,0,1-.08-.2.45.45,0,0,1,0-.23.45.45,0,0,1,.23-.3l.08,0H208l3.75-.26c1.24-.1,2.5-.12,3.74-.31l3.74-.46c1.25-.13,2.48-.4,3.71-.61s2.48-.42,3.7-.71l3.67-.86c1.23-.26,2.43-.64,3.64-1l3.64-1c1.2-.34,2.42-.68,3.66-1a13.87,13.87,0,0,1,1.87-.4l.92-.16a6,6,0,0,1,1,0,14,14,0,0,1,3.76,1,25.87,25.87,0,0,1,3.45,1.63,20.58,20.58,0,0,1,3.18,2.14,9.21,9.21,0,0,1,1.39,1.4,5.34,5.34,0,0,1,.53.81,1.85,1.85,0,0,1,.19.56.89.89,0,0,1-.15.65,1.42,1.42,0,0,1-1,.46,5.44,5.44,0,0,1-1,0,14.48,14.48,0,0,1-1.88-.33A31.18,31.18,0,0,1,249.88,209Z" transform="translate(-40.3 -26.09)"/><path class="cls-2" d="M190.2,212s18.25-3.87,24.1-5.21,24.09-3.45,30.88-6,8.89-5.61,8.89-5.61-2.66,4-5.38,5.61c-.24,0,10.23,7,8.43,8.19,0,0-7.72-10.27-21.76-4.67C228.42,206,210,211.18,209,210.07s-9.22,1.23-20,1.93" transform="translate(-40.3 -26.09)"/><path class="cls-9" d="M197.45,213.4s16.94,10.06,27.42,9.59C214.53,223.7,201.2,220,197.45,213.4Z" transform="translate(-40.3 -26.09)"/><path class="cls-10" d="M240.84,202.85s2.11,11.79-9.26,12.72c-6.64.45-8.44-3.82-10.45-8.14C221,207,238.06,202.18,240.84,202.85Z" transform="translate(-40.3 -26.09)"/><path class="cls-11" d="M234.17,208.22a3.12,3.12,0,1,1-3.11-2.88A3,3,0,0,1,234.17,208.22Z" transform="translate(-40.3 -26.09)"/><path class="cls-2" d="M235.33,208.22a3.12,3.12,0,1,1-3.11-2.88A3,3,0,0,1,235.33,208.22Z" transform="translate(-40.3 -26.09)"/><path class="cls-12" d="M225.68,210.94c.32-1.49,2.39-1.29,3.37-.68,1.22.76,2.19,1.53,3.71,1.6s2-1.28,3.26-1.53c1.71-.33.78,2.29,0,2.9-1.56,1.29-4.41,1.44-6.34.91a8.06,8.06,0,0,1-3-1.12c-.61-.46-1.72-1.76-.78-2.42" transform="translate(-40.3 -26.09)"/><path class="cls-13" d="M250.47,204s.56,4.27-1.79,5.76c1.19-.84,3-2.38,3-3.75s5.38,2.24,3.16,3a8.35,8.35,0,0,1-4.25.19s7.54,2.62,6.69.6S252.08,204.65,250.47,204Z" transform="translate(-40.3 -26.09)"/><path class="cls-3" d="M255.16,235s-13.07,19.14,1,26c-2.55-.74-9.14-5.21-8.29-10.52-.85,1.27-12.34,15.52-17.55,17.44.74-.22-5.61,3.19-5.61,3.19s12.38-10,16.71-21.7S253.75,235.23,255.16,235Z" transform="translate(-40.3 -26.09)"/><path class="cls-3" d="M288.88,230.34s.85,8.08,3.41,13.19,6.38,10.42-3.41,14.25c3.2-.43,4.93-3,7.89,0s13.47,16.37,13.47,16.37l3.1,3.62s-6.41-18.5-11.07-23.72S289.25,235.56,288.88,230.34Z" transform="translate(-40.3 -26.09)"/><path class="cls-3" d="M293.36,250.33a4.52,4.52,0,0,1-5.67,3.72c-5-1-8.16-1.76-12,.13s-14.68-3.61-18.08-1.92-6.59,5.72-1.49,8.81,10.85-.1,15.53,1.81,10.24,3.48,18.36-5.35c3.64-2.62,7.28-3.52,4.27-10C294.43,247.9,295.35,247.15,293.36,250.33Z" transform="translate(-40.3 -26.09)"/><path class="cls-2" d="M271.66,258.2s-9.58-5.95-15.53-.85c0,0,2.28-1.34,3.63-.91a1.68,1.68,0,0,0,0,2.79c1.7,1.27,9.15.48,9.15-1.52C268.91,257.36,270.52,257.52,271.66,258.2Z" transform="translate(-40.3 -26.09)"/><path class="cls-3" d="M241.39,276s-.36,1.05-6.28,4.6-18.18,13.17-17.59,15.27-3.52,5.43,0,6.06,14.8-5.65,18.77-10,8.57-6.69,10.25-7.1-1.47-.42-2.3-2.93,2.78-5,2.78-5-3.41,1.94-3.83,1S242.77,274.62,241.39,276Z" transform="translate(-40.3 -26.09)"/><path class="cls-3" d="M296.29,272.83s3.77,12.33,1,12.54,0,4.81,0,4.81,10.9,7.41,10.9,11.75a4.76,4.76,0,0,0,3.76,5s2.51-13-.83-17c2.51,1.77,4,6.79,4,6.79A31.38,31.38,0,0,0,296.29,272.83Z" transform="translate(-40.3 -26.09)"/><path class="cls-14" d="M240.4,285.71s13.66-11.23,19.93-10.17,5.71,2.57,11.33,2.23,5.82-3.42,14.39,0,14.6,11,14.6,11-9.31-7.23-29-5.19C266.18,283.38,250.79,280.82,240.4,285.71Z" transform="translate(-40.3 -26.09)"/><path class="cls-15" d="M236.08,289.87s8.83,4.07,17.38,3.87,28.41-.62,32.59,0,14.12-1.83,15.06-3c-.37-.24-7.78-7.85-25.53-5.67-4.16-.24-16.9-1.48-23.77-.61S238.58,288.06,236.08,289.87Z" transform="translate(-40.3 -26.09)"/><path class="cls-3" d="M258.45,306.91s19.24-5.65,27.18.83-4.83,19.24-11.2,21.54S237.76,319.24,258.45,306.91Z" transform="translate(-40.3 -26.09)"/><path class="cls-9" d="M249.05,308.16s26.34-7.73,36.58-.42c1.48,1.6,4.23,3.77,3.25,5.44S284.17,302.1,249.05,308.16Z" transform="translate(-40.3 -26.09)"/><path class="cls-16" d="M270.5,104.74" transform="translate(-40.3 -26.09)"/><path class="cls-9" d="M283.06,347s1.95-2,3.9,1.59,2.54,5.13,4.7,6,2.78,1.23,13.94,10.89c.43.77.06-2.29.06-2.29a27,27,0,0,0-14-10c-1.39-1.23-6.64-11.29-8.64-5.65" transform="translate(-40.3 -26.09)"/><path class="cls-4" d="M192.48,322.71v33.93s29,51.81,50.9,43.15S286,347.61,286,347.61Z" transform="translate(-40.3 -26.09)"/><path class="cls-17" d="M190.42,368.66l28.82,85h78.05S289.7,357.47,284.48,350c-7.81,25.84-48.5,47.54-48.5,47.54l-43.5-55.27S186.94,358.39,190.42,368.66Z" transform="translate(-40.3 -26.09)"/><path class="cls-18" d="M285.09,351.24l.13,1.12,12.07,101.35H283.77s-.31-91.22-5.37-93.35c-.08,6.64,10,50.29-16.42,58.59-5.49,0-42.19,4.8-52.7-10.44,1.9,6.17,13.52,45.2,13.52,45.2h-3.56s-30.08-84.78-30-90.46,3.21-21,3.21-21L239.31,398Z" transform="translate(-40.3 -26.09)"/><path class="cls-19" d="M236,411.12l-7.46,42.59h38.41L251.8,409.23S246.55,406.85,236,411.12Z" transform="translate(-40.3 -26.09)"/><path class="cls-20" d="M236.5,413s4.25-2.61,6.78-1.42a6.18,6.18,0,0,0,6.09-.31,2,2,0,0,1,2.43,0v-2.06S243,407.09,236,411.12c.52,1.9-7.46,42.59-7.46,42.59h2.82Z" transform="translate(-40.3 -26.09)"/><path class="cls-19" d="M230.45,389.54,236,411.12s9.47-4,15.82-1.89l6.41-19.69S252.81,379.1,230.45,389.54Z" transform="translate(-40.3 -26.09)"/><path class="cls-20" d="M234.1,389.3l4.69,20.54L236,411.12l-5.53-21.58s17.15-10.92,27.76,0C258.21,389.54,248,380.52,234.1,389.3Z" transform="translate(-40.3 -26.09)"/><path class="cls-17" d="M240.16,384.68l15.2-8.65s16.2-4.58,25-22.58l.57-1.14s4.86,47.81-11.49,54.31C269.06,406.38,264.63,383.87,240.16,384.68Z" transform="translate(-40.3 -26.09)"/><path class="cls-17" d="M192.48,332.3a51.32,51.32,0,0,0,15.85,29.44c14.24,13.32,29.81,21.65,34.95,21.17l-3.12,1.77-4.18.22s-19.62,21.3-18.06,23.76c-.34,2-15-9.64-17.18-13S186.51,347.09,187,343.64,189.89,331.44,192.48,332.3Z" transform="translate(-40.3 -26.09)"/><path class="cls-21" d="M191.49,335.79s9.6,34.77,39,50.42l2.87,1.62L236,384.9l4.18-.22,3.12-1.77s-15.76-1.41-42.91-30.6c-3.91-7-7.89-16.52-7.89-20A9.54,9.54,0,0,0,191.49,335.79Z" transform="translate(-40.3 -26.09)"/><path class="cls-21" d="M241.85,385.12s7.54-.39,12.68,1.23c-.89-.37,9.1-14.26,9.1-14.26s-20.84,11-23.47,12.59S241.85,385.12,241.85,385.12Z" transform="translate(-40.3 -26.09)"/><path class="cls-22" d="M283.06,352.33l10,101.38h98.22s-7.59-30-10.68-47.09c-2.37-13.29-5-16.14-10.91-16.14-7.12-4.5-73.34-29.9-80.19-35.83C287.33,351.58,283.06,352.33,283.06,352.33Z" transform="translate(-40.3 -26.09)"/><path class="cls-22" d="M187,339.18s13,47.74,20.07,69.71,13.7,44.82,13.7,44.82H41.27S59.65,374.65,88.64,375c4.94-1.42,82.72-25.7,88-28.76A94.42,94.42,0,0,0,187,339.18Z" transform="translate(-40.3 -26.09)"/><polygon class="cls-23" points="263.25 337.16 281.93 356.69 272.59 370.36 292.54 382.48 281.23 427.62 274.16 427.62 263.25 366.9 254.13 332.96 263.25 337.16"/><polygon class="cls-24" points="122.83 325.15 109.13 346 122.83 358.81 105.95 366.9 136.85 427.62 152.18 427.62 116.2 370.36 132.81 353.38 115.14 346 130.43 322.51 122.83 325.15"/><path class="cls-25" d="M192.48,332.3s-2.87-.95-11.65,11.34a108,108,0,0,1-12.26,5.73l-17,22.72L167.1,384.9l-17.67,8.84,36.4,60h34.91S177.21,341.19,192.48,332.3Z" transform="translate(-40.3 -26.09)"/><path class="cls-25" d="M283.06,347.61s3.95,28.71,5.31,58.77S293,453.71,293,453.71h28.89l10.6-44.82-20.85-12.44L323,383.14S305,366,301.09,360.07s-10.4-2.55-13.32-10.06C284.48,343.69,283.06,347.61,283.06,347.61Z" transform="translate(-40.3 -26.09)"/><path class="cls-26" d="M92.52,376.42S118,408,110.2,453.71h-3.89S116.56,414.24,92.52,376.42Z" transform="translate(-40.3 -26.09)"/><path class="cls-26" d="M371,393s3.53,3.71,1.41,18.13-3.18,42.59-3.18,42.59S369.63,407.8,371,393Z" transform="translate(-40.3 -26.09)"/><path class="cls-9" d="M167.1,384.9s17-16.11,19.87-21.65C189.27,363.25,173.86,383.56,167.1,384.9Z" transform="translate(-40.3 -26.09)"/><polygon class="cls-9" points="271.36 382.8 280.55 388.98 278.08 388.98 271.36 385.04 271.36 382.8"/><path class="cls-27" d="M88.64,375s-28-6.31-47.37,78.7C41.27,453.71,61,383.61,88.64,375Z" transform="translate(-40.3 -26.09)"/><path class="cls-9" d="M91.74,374.07s83-26,89.09-30.43c2.69-2.29,4.31-9.08,11.65-11.34A82.63,82.63,0,0,0,177.15,350C176.32,350.66,94.11,377.37,91.74,374.07Z" transform="translate(-40.3 -26.09)"/><path class="cls-9" d="M169.36,350l-17.81,22.08S159.33,350,169.36,350Z" transform="translate(-40.3 -26.09)"/><polygon class="cls-9" points="111.25 346 126.8 358.81 113.78 342.86 111.25 346"/><path class="cls-9" d="M146.25,393l20.85-8.09s-16.63,9-15.55,11.55,37.72,57.26,37.72,57.26h-8.79S150.18,402.38,146.25,393Z" transform="translate(-40.3 -26.09)"/><path class="cls-9" d="M189.62,337.5s0,3.9,5.1,29.59,26,86.62,26,86.62l-2.37-.55S180.85,346.88,189.62,337.5Z" transform="translate(-40.3 -26.09)"/><path class="cls-9" d="M283.06,347.61l10,106.1-2.34-.65S279.85,352.52,283.06,347.61Z" transform="translate(-40.3 -26.09)"/><path class="cls-28" d="M305.6,364.18c-.87-1.67,64,26.3,64,26.3s-32.5-24.81-67.32-28.74" transform="translate(-40.3 -26.09)"/><path class="cls-28" d="M371.65,390.62s5.59-.82,8.48,13.72S396,453.71,396,453.71h-5.89S378.24,395.27,371.65,390.62Z" transform="translate(-40.3 -26.09)"/><polygon class="cls-9" points="263.56 338.99 281.93 356.69 272.59 370.36 289.53 357.2 261.38 333.98 263.56 338.99"/><path class="cls-9" d="M332.83,408.57,311.66,396S329.46,398.3,332.83,408.57Z" transform="translate(-40.3 -26.09)"/><polyline class="cls-9" points="281.37 427.62 292.68 382.48 288.56 427.62 280.55 427.62"/><path class="cls-2" d="M192.48,329.75s-.74,13.37,5.83,24.37,35,31.65,46,28.3C243.28,382.89,197.09,372.72,192.48,329.75Z" transform="translate(-40.3 -26.09)"/><path class="cls-2" d="M232.69,388.54l24.43-12.43S241.05,386.61,232.69,388.54Z" transform="translate(-40.3 -26.09)"/><path class="cls-2" d="M217.92,408.66S229,380.2,243.39,384.12C241.61,384,232.81,384.5,217.92,408.66Z" transform="translate(-40.3 -26.09)"/><path class="cls-2" d="M203.51,398.71s11.5,10.6,14.41,10l-17.6-18.18S201.8,397.17,203.51,398.71Z" transform="translate(-40.3 -26.09)"/><path class="cls-2" d="M240.08,385.51s19.51-2.94,29.4,21.11c0,0,11.36-3.28,12.1-34.53-.23-14.7-.33-16.3-.33-16.3s1.08,37.57-10.52,47.19C269.93,404.23,256.64,377.32,240.08,385.51Z" transform="translate(-40.3 -26.09)"/><polygon class="cls-2" points="190.12 364.4 195.68 385.04 192.39 362.45 190.12 364.4"/><path class="cls-2" d="M251.8,409.23s-8.49-2.54-15.82,1.89c2.81-1.28,1.2-3.74,15.82-4.5l.87-.05Z" transform="translate(-40.3 -26.09)"/><polygon class="cls-2" points="188.22 427.62 195.68 385.04 185.59 427.62 188.22 427.62"/><polygon class="cls-2" points="211.5 383.14 226.63 427.62 224.19 427.62 208.95 382.57 211.5 383.14"/><polygon class="cls-2" points="217.79 363.57 211.5 383.14 210.95 382.48 215.45 362.04 217.79 363.57"/><path class="cls-29" d="M192.85,46.74s17.82-10.33,37.24-12.33c-8.24,1.66-16.23,4-18.9,7.33,1-.67,15.56-6.41,34.76-6-13.43,2-22.9,4.33-29.83,11-.94,2.67,8.4-4.67,36.4-5.67-7,1.34-28.26,4.67-33.8,11.67,6.46,0,14-4.07,33.8-5.33-4,2.33-34.3,21-56.15,17.66-.52,1.34,29.63-5.33,33.72-9.33s-11-2-16.26.67-13.48,6.33-13.48,6.33,13.94-12.13,18.37-12.8-22.34,4.41-30.17,13.13c10.3-8.66,20.57-19.41,32-23s-24.16,9.87-24.16,9.87l10-6.87Z" transform="translate(-40.3 -26.09)"/><path class="cls-7" d="M355.37,180.74A95.37,95.37,0,0,1,350,196a52.85,52.85,0,0,1-4.09,7.47c-2.18,3.28-4.73,6-7.63,7.44.57-.55,8.55-4.3,8.55-4.3l-2.34,7.81s4.93-7,6.9-12.74a12,12,0,0,0,.79-4.33c-.31-5.77,3.19-7.32,3.19-7.32l2.55,5.93Z" transform="translate(-40.3 -26.09)"/><path class="cls-14" d="M240.4,289.87s6.84-7.51,24.54-3.89c1.5.31,7.55,3.06,4.13,3.89S250.52,296,240.4,289.87Z" transform="translate(-40.3 -26.09)"/><path class="cls-14" d="M272.39,292c2.61.19,4.69-3.18,6.75-4.29,2.4-1.3,5.54-1.4,8.28-1.54,2.23-.11,5.62.39,7.39,1.8,3.12,2.47-1.21,4.12-3.26,4.33a45.14,45.14,0,0,1-8.7.12c-2.84-.27-6.68-1.31-9.54-.42" transform="translate(-40.3 -26.09)"/><path class="cls-30" d="M246.17,283.55c2.45-.63,4.53-2,7.06-2.76a35.85,35.85,0,0,1,8.27-1.38c2.87-.14,5.05,1.25,7.81,1.38a14.5,14.5,0,0,0,3.85-.14c1.39-.35,2.14-1.07,3.67-.93,2.09.19,3.74,1.32,5.83,1.5,1,.09,2.18-.12,3.22,0s1.87.8,2.9.76c-.21-1.66-1.75-2.3-2.39-3.64,1.18-.26,2.95,1.4,3.93,2s2.21,1,3.22,1.8c1.34,1,5.16,3.43,4.71,5.35-1.32.1-2.7-.94-3.79-1.54a13.27,13.27,0,0,0-4.75-1.17,66.64,66.64,0,0,0-10.24-.95c-3.35,0-6.67-.14-10-.31-1.89-.09-3.74-.16-5.63-.33-2.29-.21-3,.92-5.28.49-3.23-.63-9.74-1.94-12.26.15" transform="translate(-40.3 -26.09)"/><path class="cls-7" d="M296.11,52.66A27,27,0,0,1,300.05,54a28.6,28.6,0,0,1,4.84,2.62c4.28,2.93,22.15,11.6,27.27,12.75-1.15.42-12.63-3.24-16.3-6-.21.84,11,6.9,19.22,7.11-2.3.61-19.54-3.45-26.75-8.47-2-1.25-5.33-3.44-9.82-3.65,1.25-.11,5.54,1.88,11.81,7.1s25.11,17.14,32.83,18.6a83.19,83.19,0,0,1-21.34-9.19c.32.31,10,8.15,21.95,10.13-8.1-1.31-19.85-6.27-25-9.51a27.72,27.72,0,0,0-16.61-4c3.34-2.09,7.83-1.67,11.08-.73-1.16-.73-5.34-2.4-8.68-2s3.63-2.14,6.79-1.15c-3-1.47-6.27-3.35-8.88-3.35s1.27-1.8,2.41-2-4-2.3-6.48-2.09.77-.94.77-.94l-3.6-1.57s3.45-1.88,8.36.21c.32-.32-6.16-3.76-8.88-3.24s3.56-.42,3.56-.42Z" transform="translate(-40.3 -26.09)"/><path class="cls-9" d="M287.81,244.34s5.31,17.34-10.24,17.75c-3.55-.27-8.7-4.38-8.7-4.38S289.86,269.39,287.81,244.34Z" transform="translate(-40.3 -26.09)"/><path class="cls-9" d="M289.09,238.65s12.77,16.1-1.4,16.63C288,255.25,298.66,255.23,289.09,238.65Z" transform="translate(-40.3 -26.09)"/><path class="cls-9" d="M252.24,240.35s-9.24,13.47,3.89,20.72C256.13,261.07,245.47,253.62,252.24,240.35Z" transform="translate(-40.3 -26.09)"/><path class="cls-9" d="M342.7,500.18" transform="translate(-40.3 -26.09)"/><path class="cls-9" d="M132.38,205s-13.78,37.27,20.67,46.37C153.05,251.38,128.59,241.27,132.38,205Z" transform="translate(-40.3 -26.09)"/><path class="cls-9" d="M149.5,221.15c.25,4.06.73,8.1,1.3,12.12s1.25,8,2,12,1.71,7.91,2.71,11.83,2.13,7.8,3.37,11.64,2.6,7.63,4.1,11.37,3.07,7.43,4.82,11a140.43,140.43,0,0,0,12.21,20.63c2.33,3.23,4.81,6.35,7.44,9.32,1.31,1.5,2.68,2.93,4.06,4.35l2.15,1.93,2.25,1.95c3,2.59,6.17,5.06,9.4,7.34a94.13,94.13,0,0,0,10,6.28,78.53,78.53,0,0,0,22,7.94,105.64,105.64,0,0,0,11.7,1.69q5.93.56,11.93.71l-.61,0a85.13,85.13,0,0,0,16-4,59,59,0,0,0,7.48-3.24,57,57,0,0,0,6.95-4.19,58.13,58.13,0,0,0,6.31-5.1c1-.89,2-1.88,2.94-2.83s1.88-2,2.74-3a84.31,84.31,0,0,0,9.4-13.55,124.32,124.32,0,0,0,7.15-15.11c2.07-5.2,3.9-10.53,5.51-15.94.43-1.34.77-2.71,1.17-4.07l1.18-4.16.29-1,.24-1,.49-2c.28-1.36.59-2.72.84-4.09a159.82,159.82,0,0,0,2.15-16.72c.44-5.63.73-11.29.83-17s0-11.37-.15-17.06c-.4-11.37-1.17-22.76-2.38-34.11-.63-5.67-1.29-11.34-2.06-17s-1.62-11.31-2.58-17-2-11.27-3.06-16.89-2.27-11.23-3.52-16.82c1.64,5.49,3.26,11,4.71,16.55s2.81,11.13,4.06,16.74,2.38,11.23,3.43,16.89,2,11.32,2.82,17,1.55,11.41,2.18,17.13,1.1,11.47,1.45,17.23.59,11.52.63,17.31,0,11.57-.4,17.37a168.65,168.65,0,0,1-1.94,17.4c-.25,1.45-.54,2.89-.83,4.34l-.5,2.21-.25,1.1-.28,1L332.32,284c-.38,1.4-.72,2.81-1.14,4.21a163,163,0,0,1-5.52,16.6,130.71,130.71,0,0,1-7.46,16,91.27,91.27,0,0,1-10.08,14.71,67.19,67.19,0,0,1-13.31,12.15,64.51,64.51,0,0,1-7.79,4.64,68,68,0,0,1-8.29,3.55,93.23,93.23,0,0,1-17.32,4.2l-.3.05h-.31A134,134,0,0,1,236,357.21a84.77,84.77,0,0,1-23.57-8.94,95,95,0,0,1-10.53-6.85c-3.34-2.49-6.54-5.15-9.61-7.92l-2.3-2.1-2.33-2.22c-1.41-1.53-2.8-3.08-4.13-4.68a121.87,121.87,0,0,1-7.49-9.94,137.94,137.94,0,0,1-11.82-21.75,164.19,164.19,0,0,1-8.11-23.25,191.94,191.94,0,0,1-4.88-24c-.55-4.05-1-8.1-1.3-12.17S149.46,225.22,149.5,221.15Z" transform="translate(-40.3 -26.09)"/><path class="cls-9" d="M282,46.09a19.74,19.74,0,0,0-1.65-1.75,42.17,42.17,0,0,0-5.28-4.2,59.31,59.31,0,0,0-22-8.79,85.8,85.8,0,0,0-15.8-1.44,115.43,115.43,0,0,0-17.68,1.46A162.23,162.23,0,0,0,201,35.54L196.33,37l-1.18.36-.15,0s-.18.06.07,0l-.08,0-.29.11-.58.23-2.33.91c-3.1,1.22-6.09,2.47-9.13,3.83A196.09,196.09,0,0,0,165,51.23a162.37,162.37,0,0,0-16.06,10.23A112,112,0,0,0,135.48,73a63.77,63.77,0,0,0-9.67,12.44,37.85,37.85,0,0,0-4.69,12.35,28,28,0,0,0,.12,10.24,20,20,0,0,0,.49,2,14.19,14.19,0,0,0,.52,1.73,25.33,25.33,0,0,0,1,2.67c.68,1.42,1,2.17,1,2.17l-1.29-2a28.85,28.85,0,0,1-2.78-6.28,27.6,27.6,0,0,1-1.06-10.73,37.77,37.77,0,0,1,4.06-13.46,58.2,58.2,0,0,1,4.11-6.92,72.46,72.46,0,0,1,5.36-6.7A100.7,100.7,0,0,1,146.29,58,141.79,141.79,0,0,1,162.61,47a199.12,199.12,0,0,1,18-9.15c3.08-1.35,6.28-2.66,9.39-3.85l2.34-.88.58-.22.29-.11.29-.1.15,0,1.21-.35,4.82-1.42A146.66,146.66,0,0,1,219,27a104.93,104.93,0,0,1,18.39-.83,78.57,78.57,0,0,1,16.34,2.37,60.18,60.18,0,0,1,13,4.93,48.85,48.85,0,0,1,8.95,5.86,36.57,36.57,0,0,1,4.89,4.81A18.34,18.34,0,0,1,282,46.09Z" transform="translate(-40.3 -26.09)"/><path class="cls-9" d="M149.17,64S148.33,65.44,147,68c-.7,1.26-1.49,2.81-2.43,4.57s-1.9,3.78-3,6-2.18,4.59-3.33,7.13S136,90.9,134.78,93.7s-2.27,5.73-3.33,8.73-2.09,6.06-3,9.14q-.69,2.33-1.37,4.64c-.39,1.55-.87,3.09-1.24,4.63-.77,3.08-1.48,6.13-2.08,9.09s-1.12,5.85-1.56,8.6q-.3,2.07-.57,4c-.16,1.3-.32,2.56-.46,3.77s-.23,2.37-.34,3.48-.24,2.16-.3,3.16c-.09,2-.28,3.72-.33,5.15-.11,2.87-.23,4.52-.23,4.52s-.32-1.61-.77-4.48c-.21-1.43-.39-3.17-.58-5.19s-.31-4.29-.32-6.78c0-1.24,0-2.54,0-3.89s.13-2.73.2-4.16c.19-2.85.44-5.86.9-8.95s1-6.27,1.73-9.47c.35-1.6.77-3.2,1.18-4.81s.9-3.2,1.37-4.8c1-3.17,2.07-6.33,3.29-9.37.59-1.53,1.22-3,1.86-4.5s1.31-2.91,2-4.32c1.34-2.81,2.75-5.47,4.15-8s2.82-4.79,4.16-6.87a103,103,0,0,1,7.09-9.68C148,65.18,149.17,64,149.17,64Z" transform="translate(-40.3 -26.09)"/><path class="cls-9" d="M119.92,157.53s-.35,4.11-.87,10.27S117.82,182,117.7,190c-.06,2,0,4,0,6,0,1,.06,2,.09,2.92s.11,1.91.16,2.85.15,1.85.23,2.74.19,1.77.29,2.62.23,1.68.35,2.48.26,1.57.39,2.31c.31,1.46.57,2.83.89,4s.64,2.22.87,3.09c.57,1.7.9,2.71.9,2.71l-.48-.58c-.29-.38-.79-.92-1.31-1.68a29.74,29.74,0,0,1-1.75-2.83c-.3-.57-.66-1.16-1-1.82s-.61-1.36-.94-2.08-.57-1.53-.86-2.33-.52-1.66-.79-2.54-.45-1.79-.68-2.72-.36-1.89-.55-2.87c-.31-2-.57-4-.69-6.07s-.19-4.18-.15-6.28a84.19,84.19,0,0,1,1.13-12.24,87.23,87.23,0,0,1,2.37-10.41c.9-3,1.81-5.44,2.51-7.12S119.92,157.53,119.92,157.53Z" transform="translate(-40.3 -26.09)"/><path class="cls-9" d="M119.52,219a12.39,12.39,0,0,1,1.08,1.45,23.83,23.83,0,0,1,2.21,4.21,28.22,28.22,0,0,1,1.78,6.54c.08.62.16,1.25.2,1.9s.07,1.31.06,2a23.38,23.38,0,0,1-.36,4.06,21.94,21.94,0,0,1-1.1,4,19.49,19.49,0,0,1-1.79,3.6c-.37.53-.73,1.07-1.11,1.56s-.8.94-1.2,1.38L118,250.8c-.42.35-.85.67-1.26,1a17.77,17.77,0,0,1-2.35,1.41,19.66,19.66,0,0,1-1.94.81c-1.1.35-1.74.49-1.74.49s.43-.52,1.2-1.32c.38-.4.79-.95,1.29-1.5.26-.28.48-.61.74-.93s.54-.65.78-1,.52-.74.79-1.13.51-.81.77-1.24L117,246l.66-1.42c.18-.5.42-1,.59-1.49s.38-1,.51-1.56a27,27,0,0,0,.77-3.28,42.17,42.17,0,0,0,.61-6.77c0-2.22-.07-4.34-.17-6.19s-.25-3.41-.34-4.53S119.52,219,119.52,219Z" transform="translate(-40.3 -26.09)"/><path class="cls-9" d="M353.77,195.12s.19.31.45.82a22.58,22.58,0,0,1,.93,2.08c.34.83.67,1.79,1,2.78s.57,2,.85,3c.09.52.27,1,.37,1.49s.26.94.35,1.42.26.88.36,1.33.26.81.36,1.22.28.72.4,1.07a7.8,7.8,0,0,0,.37.88c.24.51.38.87.38.87a4.52,4.52,0,0,1-.95-.06,4.21,4.21,0,0,1-1.09-.25,11.67,11.67,0,0,1-1.31-.63,15.76,15.76,0,0,1-1.33-1.06,16.11,16.11,0,0,1-1.18-1.45c-.18-.27-.33-.55-.49-.84a4.52,4.52,0,0,1-.44-.88,12.5,12.5,0,0,1-.64-1.87,11.79,11.79,0,0,1-.34-1.91,11.56,11.56,0,0,1-.06-1.85,12.22,12.22,0,0,1,.54-3.22,10.09,10.09,0,0,1,1-2.19,6.57,6.57,0,0,1,.38-.58A1.75,1.75,0,0,1,353.77,195.12Z" transform="translate(-40.3 -26.09)"/><path class="cls-9" d="M111.89,254.05l.24-.13c.15-.08.37-.23.63-.38s.59-.36.94-.57.73-.44,1.12-.71.81-.55,1.24-.81.85-.58,1.26-.93c.21-.18.43-.33.64-.48s.41-.36.62-.53c.44-.31.81-.73,1.23-1.07s.78-.78,1.19-1.15.75-.8,1.13-1.2.71-.82,1.08-1.2.66-.8,1-1.16.66-.7.91-1,.53-.6.75-.83c.44-.46.75-.72.75-.72a7.2,7.2,0,0,1,.2,1c0,.32.1.72.13,1.17a7,7,0,0,1-.06,1.5,14.17,14.17,0,0,1-.32,1.77c-.2.6-.43,1.24-.7,1.89a18.84,18.84,0,0,1-1.13,1.89,20.33,20.33,0,0,1-1.52,1.72,13.77,13.77,0,0,1-1.86,1.38,9.46,9.46,0,0,1-2,1,10.55,10.55,0,0,1-2,.52,9.8,9.8,0,0,1-1.84.09,7.72,7.72,0,0,1-2.67-.53A4.26,4.26,0,0,1,111.89,254.05Z" transform="translate(-40.3 -26.09)"/><path class="cls-9" d="M115.18,261.07l.28-.21.77-.59c.32-.25.69-.57,1.11-.92s.88-.74,1.34-1.19,1-.94,1.47-1.42,1-1,1.46-1.65c.23-.3.5-.56.72-.88s.44-.63.68-.93a7.92,7.92,0,0,0,.65-1l.64-1c.36-.7.77-1.38,1.13-2.09s.69-1.42,1-2.14.57-1.42.87-2.1.46-1.36.7-2q.2-.47.36-.9l.28-.83c.17-.53.36-1,.51-1.38.3-.78.53-1.24.53-1.24s.2.45.46,1.25c.13.41.29.9.43,1.48.07.29.14.59.21.92s.06.67.1,1c.06.73.11,1.52.11,2.36s-.17,1.73-.31,2.65a7.72,7.72,0,0,1-.34,1.38c-.13.47-.27.94-.43,1.41a26,26,0,0,1-1.29,2.73,20.2,20.2,0,0,1-1.82,2.45,13.09,13.09,0,0,1-2.15,2,15.12,15.12,0,0,1-2.3,1.48,16,16,0,0,1-2.26.89,12.27,12.27,0,0,1-2,.43,10.11,10.11,0,0,1-1.56.09A6.07,6.07,0,0,1,115.18,261.07Z" transform="translate(-40.3 -26.09)"/><path class="cls-9" d="M134.34,243.13s.06.47.1,1.25.1,1.88.12,3.15,0,2.72,0,4.22V254c0,.77,0,1.54.06,2.3s.08,1.49.15,2.21.17,1.4.31,2a16.3,16.3,0,0,0,.47,1.86l.3.85.35.78.39.72c.13.23.28.43.41.65.26.42.55.75.77,1.07.5.56.81,1,.81,1h-.34a8.94,8.94,0,0,1-.95-.08,8.52,8.52,0,0,1-1.45-.4q-.42-.17-.87-.39c-.29-.17-.59-.36-.91-.57s-.59-.48-.91-.75-.56-.6-.85-.93a10.88,10.88,0,0,1-1.41-2.31,8.71,8.71,0,0,1-.52-1.31,10.83,10.83,0,0,1-.38-1.38,16.77,16.77,0,0,1-.37-2.81,20.19,20.19,0,0,1,2.14-9.68,16.44,16.44,0,0,1,1.75-2.78,8,8,0,0,1,.61-.71A3,3,0,0,1,134.34,243.13Z" transform="translate(-40.3 -26.09)"/><path class="cls-9" d="M139.1,247.56l.35,1.29c.1.4.26.88.41,1.41s.34,1.13.57,1.75.47,1.29.7,2,.53,1.4.88,2.1c.17.35.33.71.48,1.07s.39.7.56,1.07c.34.73.8,1.4,1.2,2.11s.92,1.33,1.33,2,1,1.27,1.45,1.91,1,1.18,1.48,1.76,1,1.07,1.43,1.59.84,1,1.24,1.39.73.78,1,1.1c.55.63.86,1.05.86,1.05a13.25,13.25,0,0,1-1.34-.18c-.42-.08-.94-.17-1.52-.32a10,10,0,0,1-1.9-.66,18.48,18.48,0,0,1-2.16-1c-.72-.46-1.47-1-2.23-1.53s-1.42-1.3-2.1-2A27.66,27.66,0,0,1,140,263a18.81,18.81,0,0,1-1.35-2.74c-.19-.47-.37-.93-.51-1.4s-.25-.95-.34-1.42a17.66,17.66,0,0,1-.35-2.71,18.72,18.72,0,0,1,.11-2.43,14.19,14.19,0,0,1,.39-2,11.81,11.81,0,0,1,.52-1.48A6.53,6.53,0,0,1,139.1,247.56Z" transform="translate(-40.3 -26.09)"/><path class="cls-9" d="M295,109.16a10.28,10.28,0,0,1,.48,2.71,26,26,0,0,1-.06,2.79,25.75,25.75,0,0,1-.43,2.75,21,21,0,0,1-.67,2.71l-.41,1.34-.48,1.3c-.34.86-.64,1.75-1.05,2.58s-.78,1.68-1.2,2.51l-1.35,2.42c-.43.83-1,1.59-1.45,2.36s-1,1.55-1.52,2.32l-1.64,2.21c-.55.73-1.09,1.49-1.68,2.18l-1.77,2.1c-.61.69-1.18,1.41-1.81,2.07-1.24,1.34-2.52,2.64-3.79,4l.18-.19c-3.77,4.58-7.67,8.94-11.52,13.34L262,163.93c-1,1.1-1.85,2.24-2.78,3.37-.45.56-.9,1.13-1.33,1.72s-.85,1.17-1.25,1.77a18.25,18.25,0,0,0-1.09,1.87,6.08,6.08,0,0,0-.7,2.05,5.79,5.79,0,0,1,0-2.27,15.26,15.26,0,0,1,.61-2.2,33.56,33.56,0,0,1,1.82-4.16c.66-1.35,1.44-2.63,2.2-3.92s1.57-2.55,2.4-3.78c3.31-4.95,7-9.61,10.59-14.2l.05-.07.13-.13c1.2-1.28,2.4-2.57,3.63-3.84.62-.62,1.17-1.31,1.76-2l1.76-2c.61-.64,1.12-1.35,1.69-2l1.7-2c1-1.39,2.17-2.74,3.17-4.17l1.51-2.13c.49-.73.94-1.46,1.42-2.2s.91-1.48,1.35-2.23l.66-1.14.58-1.16.58-1.17.53-1.2c.39-.79.63-1.62,1-2.45a21.67,21.67,0,0,0,.71-2.54A12.25,12.25,0,0,0,295,109.16Z" transform="translate(-40.3 -26.09)"/><path class="cls-9" d="M264.1,138.84s-.39.72-1.07,1.94l-2.81,5c-1.15,2.05-2.48,4.43-3.81,7-.68,1.27-1.33,2.6-2,3.94s-1.29,2.72-1.86,4.11-1.14,2.78-1.62,4.16-.9,2.76-1.27,4.11c-.16.67-.31,1.34-.47,2s-.23,1.3-.34,1.92-.18,1.25-.24,1.85-.09,1.18-.13,1.74,0,1.11,0,1.62.05,1,.06,1.48a10.57,10.57,0,0,0,.1,1.31c0,.41.08.79.11,1.13.24,1.35.36,2.18.36,2.18l-.35-.47c-.21-.31-.57-.75-.94-1.37a20.29,20.29,0,0,1-1.17-2.34c-.18-.47-.38-1-.56-1.52s-.31-1.14-.47-1.75-.22-1.27-.33-1.95-.11-1.37-.17-2.1,0-1.47,0-2.24.12-1.53.2-2.31a33.52,33.52,0,0,1,1-4.73,39.25,39.25,0,0,1,1.65-4.67,48.58,48.58,0,0,1,2.17-4.4c.8-1.4,1.63-2.75,2.51-4a50.19,50.19,0,0,1,5.28-6.41,43.13,43.13,0,0,1,4.37-3.91C263.4,139.27,264.1,138.84,264.1,138.84Z" transform="translate(-40.3 -26.09)"/><path class="cls-9" d="M252,141.2s-.65.67-1.81,1.8l-4.76,4.59-3.16,3c-1.12,1.08-2.3,2.2-3.5,3.38-.59.6-1.23,1.16-1.84,1.78s-1.22,1.24-1.85,1.85-1.25,1.25-1.86,1.88l-1.87,1.91-3.62,3.87c-1.12,1.34-2.31,2.58-3.37,3.86s-2.11,2.5-3,3.72-1.81,2.36-2.59,3.45-1.44,2.13-2.07,3a12.52,12.52,0,0,0-.82,1.31l-.68,1.13c-.82,1.37-1.35,2.16-1.35,2.16s.11-.91.42-2.52c.08-.4.17-.85.27-1.33a8.17,8.17,0,0,1,.42-1.55c.36-1.07.77-2.3,1.27-3.63s1.25-2.65,2-4.1,1.7-2.84,2.64-4.34c.45-.76,1-1.44,1.56-2.17s1.1-1.45,1.67-2.18c1.18-1.4,2.42-2.81,3.7-4.17s2.61-2.67,4-3.85,2.73-2.39,4.12-3.45,2.73-2,4-3,2.6-1.68,3.77-2.41a62.42,62.42,0,0,1,6-3.12C251.12,141.5,252,141.2,252,141.2Z" transform="translate(-40.3 -26.09)"/><path class="cls-9" d="M216.08,155.75s0,.62-.22,1.66c-.1.51-.2,1.15-.37,1.86s-.37,1.5-.62,2.35a52.3,52.3,0,0,1-2.06,5.69c-.44,1-.93,2-1.45,3.07s-1.05,2.09-1.66,3.1a56.29,56.29,0,0,1-3.83,5.75c-.67.88-1.35,1.71-2,2.49a25.33,25.33,0,0,1-2,2.11,42.28,42.28,0,0,1-3.26,2.87c-.82.66-1.33,1-1.33,1s.16-.61.53-1.59.93-2.37,1.68-3.93c.4-.77.76-1.66,1.19-2.55s.9-1.83,1.41-2.77q.39-.71.78-1.44c.25-.49.51-1,.78-1.48.53-1,1.11-2,1.69-3s1.14-2,1.74-2.94,1.2-1.9,1.79-2.8c1.14-1.83,2.35-3.47,3.38-4.89s2-2.55,2.67-3.35c.33-.4.63-.7.81-.92Z" transform="translate(-40.3 -26.09)"/><path class="cls-9" d="M203,165.6a21.08,21.08,0,0,1-.53,2.27,54.39,54.39,0,0,1-2,5.79c-.5,1.16-1,2.43-1.66,3.73s-1.33,2.67-2.14,4-1.64,2.77-2.57,4.14-2,2.73-3,4.1-2.2,2.6-3.31,3.85c-.59.6-1.19,1.18-1.78,1.76s-1.15,1.16-1.78,1.66c-1.25,1-2.42,2-3.63,2.88s-2.4,1.58-3.51,2.22-2.23,1.08-3.18,1.51a7.4,7.4,0,0,1-1.36.52l-1.19.35c-1.44.43-2.26.6-2.26.6s.66-.58,1.8-1.48l.94-.74c.17-.13.35-.26.53-.41l.54-.49c.74-.68,1.57-1.42,2.48-2.21l2.77-2.74c1-1,1.92-2.1,3-3.17s2-2.33,3-3.49,2-2.45,3-3.73,2-2.51,2.95-3.8c.47-.64,1-1.27,1.43-1.88L193,179l5-6.74c.72-1,1.43-1.9,2-2.72s1.15-1.51,1.58-2.1C202.46,166.27,203,165.6,203,165.6Z" transform="translate(-40.3 -26.09)"/><path class="cls-9" d="M173.87,171.44s-.22.86-.64,2.33-1,3.55-1.75,6-1.59,5.3-2.5,8.37-1.82,6.28-2.63,9.53-1.53,6.5-2,9.57a67.25,67.25,0,0,0-.91,8.44c-.05.63,0,1.22,0,1.8s0,1.12,0,1.63c0,1,.13,1.92.2,2.68s.19,1.33.24,1.74.08.63.08.63l-.35-.53a15.83,15.83,0,0,1-.92-1.55,19.56,19.56,0,0,1-1.12-2.59,23,23,0,0,1-1-3.55,32,32,0,0,1-.59-4.32,39.07,39.07,0,0,1,0-4.85c0-.84.1-1.69.2-2.55.05-.43.1-.86.14-1.29s.14-.86.2-1.29c.26-1.74.65-3.47,1.06-5.19s.94-3.41,1.51-5.05,1.16-3.24,1.8-4.75a69.09,69.09,0,0,1,4-8,58.44,58.44,0,0,1,3.51-5.3C173.26,172.1,173.87,171.44,173.87,171.44Z" transform="translate(-40.3 -26.09)"/><path class="cls-9" d="M159.85,200.9s-.1.67-.22,1.79-.24,2.69-.3,4.53c0,.92,0,1.9,0,2.93s.1,2.1.23,3.2.32,2.2.52,3.32A30,30,0,0,0,161,220a31.76,31.76,0,0,0,1.2,3.22c.24.52.48,1,.71,1.54l.77,1.49c.55,1,1.08,1.89,1.65,2.76.26.45.57.85.84,1.27s.53.81.81,1.18c.55.75,1,1.47,1.52,2.07s.85,1.19,1.21,1.62c.7.89,1.08,1.45,1.08,1.45s-.63-.21-1.7-.67a18.39,18.39,0,0,1-1.86-.95,21.62,21.62,0,0,1-2.3-1.47,24.88,24.88,0,0,1-2.49-2.09,24.33,24.33,0,0,1-2.46-2.73,24.6,24.6,0,0,1-2.15-3.35,23.36,23.36,0,0,1-2.5-7.86,23.3,23.3,0,0,1,1.19-10.81,19.18,19.18,0,0,1,2.21-4.31A9.44,9.44,0,0,1,159.85,200.9Z" transform="translate(-40.3 -26.09)"/><path class="cls-9" d="M278.18,45.07s1,0,2.87.22c.9.12,2,.25,3.26.48s2.67.5,4.19.87,3.16.84,4.88,1.37,3.49,1.21,5.33,1.92,3.66,1.61,5.54,2.48,3.66,2,5.5,3.05l.34.2.15.09.08.06.16.11.64.43,1.27.85,2.47,1.59c1.68,1,3.34,2.05,5,3s3.23,1.84,4.76,2.66,3,1.59,4.34,2.29,2.61,1.32,3.73,1.85,2.11,1,2.94,1.32,1.49.59,1.95.73l.72.2-.75.09a16.74,16.74,0,0,1-2.15,0,33,33,0,0,1-3.3-.46l-2-.42c-.7-.16-1.43-.35-2.19-.56-1.51-.42-3.14-.93-4.83-1.55s-3.47-1.33-5.25-2.16S314.2,64,312.39,63c-.91-.52-1.84-1.07-2.73-1.62l-1.29-.84-.65-.42-.16-.11-.08,0,0,0h0l-.05,0-.32-.18c-1.73-1-3.47-2-5.15-3s-3.47-1.84-5.13-2.75-3.33-1.66-4.87-2.46l-4.44-2.13c-1.39-.64-2.67-1.23-3.8-1.78s-2.14-1-3-1.34-1.47-.66-1.92-.86Z" transform="translate(-40.3 -26.09)"/><path class="cls-9" d="M295.58,57.78s1,.1,2.71.43c.86.18,1.9.39,3.07.7s2.49.67,3.92,1.14,2.94,1,4.53,1.71a48.12,48.12,0,0,1,4.92,2.4,34.58,34.58,0,0,1,5,3.33l1.2,1,.5.42.55.48.55.48.53.4,1,.8c1.49,1.09,3.05,2.13,4.64,3.13s3.16,2,4.72,2.84,3.07,1.77,4.53,2.58,2.83,1.58,4.11,2.27l3.5,1.91,2.74,1.44c.77.37,1.36.72,1.79.9l.64.31a20.63,20.63,0,0,1-2.74-.26c-.86-.15-1.92-.31-3.09-.6s-2.52-.59-3.95-1-3-.93-4.58-1.53-3.28-1.27-5-2c-.86-.38-1.72-.8-2.58-1.24s-1.73-.89-2.6-1.39a52.49,52.49,0,0,1-5.12-3.27l-1.28-1-.62-.51-.55-.49-1.13-1-1-.9c-.31-.31-.68-.57-1-.86s-.67-.58-1-.84c-.73-.53-1.42-1.08-2.15-1.57-1.43-1-2.89-1.94-4.29-2.82s-2.75-1.67-4-2.41Z" transform="translate(-40.3 -26.09)"/><path class="cls-9" d="M322.85,79.57l.38.08,1.08.29,1.72.63c.66.28,1.4.64,2.25,1s1.69,1,2.66,1.55,1.9,1.35,3,2.11S335.93,87,337,88c.27.24.56.48.83.75l.76.84,1.59,1.74a41.84,41.84,0,0,1,3.13,3.91c.52.69,1,1.4,1.57,2.13s.94,1.53,1.41,2.32,1,1.59,1.44,2.4c.25.4.49.81.74,1.22l.63,1.29c.85,1.72,1.69,3.51,2.55,5.32s1.44,3.76,2.17,5.69c.35,1,.71,1.94,1.07,2.91l.84,3,1.69,6.1c.45,2.06.82,4.15,1.24,6.23l.59,3.12.29,1.56c.09.52.13,1,.2,1.57q.38,3.14.73,6.24a121.86,121.86,0,0,1,.84,12.16c.07,2,.17,3.91.21,5.81v.5l0,.35-.05.7c0,.47-.06.92-.11,1.41-.09,1-.19,1.9-.31,2.79-.43,3.61-1,6.95-1.48,10s-.85,5.89-1.1,8.4a59.76,59.76,0,0,0-.32,6.5,32.23,32.23,0,0,0,.3,4.2c.16,1,.25,1.48.25,1.48s-.19-.49-.53-1.42c-.18-.46-.31-1-.51-1.74a21.92,21.92,0,0,1-.5-2.43,45.3,45.3,0,0,1-.6-6.65c-.08-2.58,0-5.49.16-8.64s.39-6.49.61-10.07c.06-.89.08-1.76.11-2.64,0-.43,0-.9,0-1.37v-1.26c-.2-1.86-.35-3.76-.52-5.69s-.33-3.89-.5-5.88l-.12-1.49-.21-1.49c-.14-1-.27-2-.41-3q-.4-3-.81-6.07c-.07-.5-.11-1-.21-1.52l-.29-1.51-.59-3c-.39-2-.74-4.05-1.16-6.05s-1-3.94-1.52-5.89c-.24-1-.49-2-.74-2.92s-.62-1.89-.93-2.82c-.64-1.86-1.2-3.73-1.85-5.53s-1.47-3.49-2.15-5.2c-.17-.43-.34-.85-.52-1.28l-.61-1.2-1.21-2.37c-.4-.78-.79-1.55-1.18-2.3l-1.33-2.13a36.94,36.94,0,0,0-2.6-4,56.58,56.58,0,0,0-5.35-6.41c-.91-.84-1.74-1.67-2.55-2.39s-1.61-1.32-2.33-1.86l-2-1.35-1.55-.89-1-.49Z" transform="translate(-40.3 -26.09)"/><path class="cls-9" d="M350.75,203.88s0,.44,0,1.15a24,24,0,0,1-.3,2.87,37.93,37.93,0,0,1-.8,3.81c-.17.67-.36,1.37-.57,2.06s-.44,1.38-.66,2.08c-.47,1.37-1,2.72-1.43,4s-.9,2.4-1.22,3.38a9.52,9.52,0,0,0-.53,2.46c0,.16,0,.3,0,.44a2.19,2.19,0,0,0,.06.33l.06.3a2,2,0,0,1-.28-.12,2.16,2.16,0,0,1-.75-.52,4.38,4.38,0,0,1-.85-1.18,7.32,7.32,0,0,1-.63-1.73,13.12,13.12,0,0,1-.27-2.07,14.29,14.29,0,0,1,.07-2.25,18.79,18.79,0,0,1,.37-2.31,23.65,23.65,0,0,1,.64-2.29,26,26,0,0,1,1.88-4.21,22.17,22.17,0,0,1,2.27-3.33,16.82,16.82,0,0,1,2-2.11A8.5,8.5,0,0,1,350.75,203.88Z" transform="translate(-40.3 -26.09)"/><path class="cls-9" d="M346,209.59a6.66,6.66,0,0,1,.2,1,13.8,13.8,0,0,1,.09,2.7,17.43,17.43,0,0,1-.62,3.65,13.75,13.75,0,0,1-.65,2,21.27,21.27,0,0,1-.87,2c-.35.64-.71,1.27-1.1,1.87a20.12,20.12,0,0,1-1.29,1.68,17.32,17.32,0,0,1-1.4,1.43c-.5.42-1,.8-1.44,1.12s-.94.57-1.35.78a7.06,7.06,0,0,1-1.14.44,7.19,7.19,0,0,1-1,.27,9.31,9.31,0,0,1,.36-1c.11-.31.27-.64.42-1s.33-.85.53-1.31.39-1,.62-1.49.45-1.08.72-1.61.5-1.14.8-1.7.57-1.14.86-1.73a44.82,44.82,0,0,1,3.87-6.26,24.55,24.55,0,0,1,1.67-2C345.65,209.86,346,209.59,346,209.59Z" transform="translate(-40.3 -26.09)"/><path class="cls-9" d="M303.06,109.16a7.45,7.45,0,0,1,.66.8,12.82,12.82,0,0,1,1.31,2.27,17,17,0,0,1,1.46,7.53,14.74,14.74,0,0,1-.73,4.19,10.37,10.37,0,0,1-1.87,3.42,7.37,7.37,0,0,1-1.16,1.1,6.35,6.35,0,0,1-1.06.63,3.23,3.23,0,0,1-.75.25,1.65,1.65,0,0,1-.27.06l.08-.27c0-.17.12-.4.19-.7a10,10,0,0,0,.2-1c.06-.39.11-.81.14-1.27s.07-.93.09-1.44,0-1,.06-1.59c0-1.13.06-2.33.09-3.53l.09-1.83c0-.61.08-1.22.14-1.82.1-1.19.26-2.32.44-3.32a21.45,21.45,0,0,1,.58-2.47C302.92,109.53,303.06,109.16,303.06,109.16Z" transform="translate(-40.3 -26.09)"/><path class="cls-9" d="M308.63,110.4a5.49,5.49,0,0,1,.62.66,10.26,10.26,0,0,1,1.27,1.84,13.56,13.56,0,0,1,1.16,2.76,14.17,14.17,0,0,1,.39,1.62c.11.56.16,1.13.22,1.71a16.83,16.83,0,0,1,0,1.74,12.27,12.27,0,0,1-.2,1.71,10.4,10.4,0,0,1-.4,1.6,8.65,8.65,0,0,1-.6,1.42,6.28,6.28,0,0,1-.73,1.13,4.48,4.48,0,0,1-.74.76,3.74,3.74,0,0,1-.79.5s-.06-.39-.13-.88a8.84,8.84,0,0,0-.2-.89c-.06-.31-.17-.69-.27-1.08s-.19-.8-.29-1.25-.21-.9-.28-1.38-.18-1-.22-1.48-.12-1-.15-1.56-.06-1-.06-1.58,0-1,0-1.56a19.67,19.67,0,0,1,.38-2.85,16.17,16.17,0,0,1,.61-2.11A7.91,7.91,0,0,1,308.63,110.4Z" transform="translate(-40.3 -26.09)"/><path class="cls-9" d="M311.85,111.15a3.14,3.14,0,0,1,.89.07,5.43,5.43,0,0,1,1,.25,7.57,7.57,0,0,1,1.17.51c.39.22.81.48,1.24.78a13.37,13.37,0,0,1,2.32,2.35c.33.46.62,1,.92,1.46a9.5,9.5,0,0,1,.73,1.55c.19.53.35,1.07.48,1.59a12.82,12.82,0,0,1,.31,1.52c0,.5,0,1,0,1.43a11.29,11.29,0,0,1-.26,2.18,6.6,6.6,0,0,1-.24.84,6.37,6.37,0,0,1-.71-.55,12.19,12.19,0,0,1-1.52-1.49c-.27-.32-.54-.66-.81-1s-.59-.73-.86-1.12a13,13,0,0,1-.78-1.24c-.23-.44-.5-.85-.75-1.27s-.47-.86-.66-1.32-.43-.84-.61-1.28-.33-.88-.51-1.26-.32-.8-.45-1.19-.25-.75-.36-1.06-.2-.63-.27-.88-.14-.47-.2-.61Z" transform="translate(-40.3 -26.09)"/><path class="cls-31" d="M221,297.5s8.57-4.18,11.5-7.63,15.68-6.59,19.23-7.22,14.64,1.26,21.12.84,15.47-.63,20.7,1.67,13.17,6.28,15.26,11.5c.42.42-8.57-8-17.15-10.66-3.76-.84-9.82-.42-21.74-1.25-6.9.62-17.35-4-33.87,5.12C230,294.78,221,297.5,221,297.5Z" transform="translate(-40.3 -26.09)"/><path class="cls-3" d="M287.14,189.2s-9-.26,0-19.52-6.32,14.75,6.22,19.52C293.36,193.19,287.14,189.2,287.14,189.2Z" transform="translate(-40.3 -26.09)"/><path class="cls-7" d="M284.67,186.89s8.11,8.73,15.21,7.41,21.82,1.18,25.79,4.48,7.12,5.62,7.12,5.62-1.18-11.06-12.08-14.7S289.13,183.92,284.67,186.89Z" transform="translate(-40.3 -26.09)"/><path class="cls-9" d="M284.67,186.89a1.56,1.56,0,0,1-.21-.21A4.89,4.89,0,0,1,284,186a8.23,8.23,0,0,1-.59-1.16,9.71,9.71,0,0,1-.5-1.62,12.86,12.86,0,0,1-.3-2,16.6,16.6,0,0,1,0-2.22,14.67,14.67,0,0,1,.34-2.34,18.78,18.78,0,0,1,.63-2.34,23.15,23.15,0,0,1,.88-2.24,18.07,18.07,0,0,1,1-2.06,17.68,17.68,0,0,1,1.14-1.82c.39-.56.78-1.08,1.14-1.55a13.86,13.86,0,0,1,1.08-1.22c.33-.36.64-.65.88-.9a11,11,0,0,1,.82-.74s-.1.4-.31,1.06c-.11.33-.24.73-.41,1.17s-.37.94-.55,1.49-.41,1.13-.65,1.74-.47,1.25-.73,1.91-.53,1.33-.76,2-.54,1.38-.73,2.09-.48,1.39-.66,2.08l-.3,1c-.08.34-.15.68-.24,1-.19.67-.26,1.31-.41,1.93s-.2,1.21-.23,1.76-.08,1-.1,1.51,0,.87,0,1.2A8.15,8.15,0,0,0,284.67,186.89Z" transform="translate(-40.3 -26.09)"/><path class="cls-9" d="M289.38,233.73s.54.59,1.41,1.67,2.12,2.62,3.54,4.53c.71.95,1.48,2,2.26,3.09s1.63,2.26,2.46,3.49,1.71,2.48,2.55,3.78c.42.66.85,1.31,1.28,2s.87,1.33,1.31,2q1.29,2.06,2.41,4.12c.77,1.37,1.45,2.75,2.12,4.09A75.53,75.53,0,0,1,312,270a28.44,28.44,0,0,1,1.57,5.61,5.14,5.14,0,0,1,0,1.66,1.42,1.42,0,0,1-.24.54,1.27,1.27,0,0,0,.07-.55,6.13,6.13,0,0,0-.42-1.5,50.7,50.7,0,0,0-2.57-5.05c-1.15-2-2.53-4.41-4-6.95q-1.14-1.89-2.32-3.89c-.8-1.32-1.6-2.67-2.42-4l-1.25-2-1.23-2c-.83-1.32-1.58-2.65-2.34-3.93s-1.45-2.53-2.11-3.71-1.28-2.32-1.84-3.37c-1.12-2.1-2-3.89-2.59-5.14S289.38,233.73,289.38,233.73Z" transform="translate(-40.3 -26.09)"/><path class="cls-9" d="M255.16,235a22.11,22.11,0,0,0-2.32,1.21,25.64,25.64,0,0,0-2.13,1.44c-.67.52-1.31,1.06-1.93,1.62l-.88.9c-.29.29-.53.63-.82.93a8.76,8.76,0,0,0-.76,1c-.23.34-.5.65-.7,1l-.63,1.05c-.22.34-.37.73-.56,1.09a11.14,11.14,0,0,0-.51,1.11l-.43,1.14a11.29,11.29,0,0,0-.35,1.17l-.34,1.17-.06.2-.05.1c-.56,1.08-1.07,2.19-1.68,3.24L240.1,255c-.29.53-.64,1-1,1.55l-1,1.52c-.33.51-.73,1-1.09,1.47L235.9,261c-.37.48-.8.92-1.2,1.39l-1.24,1.35c-.39.46-.87.86-1.3,1.28l-1.35,1.23-.69.61-.73.55c-.48.37-1,.73-1.47,1.09a17.35,17.35,0,0,1-1.51,1c-1.07.59-2.12,1.18-3.2,1.71.87-.86,1.75-1.66,2.62-2.46a14.87,14.87,0,0,0,1.24-1.27c.4-.44.8-.87,1.22-1.28l.61-.63.55-.69c.37-.46.75-.91,1.13-1.35s.77-.87,1.1-1.36l1-1.41c.35-.47.73-.91,1.05-1.4l1-1.45c.32-.49.66-1,1-1.46l.92-1.49c.29-.5.63-1,.91-1.49l.86-1.53c.61-1,1.12-2,1.68-3.07l-.11.29.42-1.33a8.9,8.9,0,0,1,.47-1.31l.58-1.27a12.24,12.24,0,0,1,.67-1.23c.24-.39.44-.81.72-1.19l.84-1.11c.27-.38.61-.7.91-1.05a11.33,11.33,0,0,1,1-1,11.19,11.19,0,0,1,1-.9l1.1-.82,1.15-.73c.39-.23.81-.42,1.2-.63a18.35,18.35,0,0,1,2.5-1A13.06,13.06,0,0,1,255.16,235Z" transform="translate(-40.3 -26.09)"/><path class="cls-7" d="M264.94,39.71S310,55.9,294.43,95.3C283.89,118,278.73,115.15,274.61,132l-.18-15.46s-20,16.85-17.31,24.62c-.85-4.82,3.71-21.91,3.71-21.91s-38.29,30.06-40.3,42.28c-1.08-3.43-.17-11.21,5.23-20.71s-10.51,8.59-16.64,16.67-26.57,29.6-32,30.17l-5.4.56S180,161.58,185.08,149c-.77-4.23-33.74,33.93-35.91,62-3.8,3.34-13.08-28.3-3.2-55.2-4.34,1.55-14.2,30-7.4,44.26-6.19,4.84-17.57-24.2-10.6-51a24.64,24.64,0,0,1,4.64-10.14s-2-54.32,36.53-80.9S234.82,24.66,264.94,39.71Z" transform="translate(-40.3 -26.09)"/><path class="cls-7" d="M305.62,79.57S339,77,350.75,134.71c2.59,31-.13,50.26-10.1,70.3,5.26-1.5-2.21-90.39-30.74-108.8,1.59,1.68,15.66-1.91,24.94,14.94C334.1,109.6,322.32,85.52,305.62,79.57Z" transform="translate(-40.3 -26.09)"/><path class="cls-9" d="M191.49,333s16.18,39.91,52.52,49.78C237.11,381.67,198,375.28,191.49,333Z" transform="translate(-40.3 -26.09)"/><path class="cls-9" d="M281,352.31S255,381.39,240.4,383.76C243.39,384.12,284,365.17,281,352.31Z" transform="translate(-40.3 -26.09)"/><path class="cls-9" d="M313.23,396.73s-17.94-12.74-18.8-17.19" transform="translate(-40.3 -26.09)"/><path class="cls-9" d="M312.65,397.54s-5.12-3.94-9.92-8.26a64.59,64.59,0,0,1-6.26-6.29,13.28,13.28,0,0,1-1.67-2.41,4.82,4.82,0,0,1-.3-.76c0-.18-.07-.28-.07-.28s0,.09.1.27a3.28,3.28,0,0,0,.35.73,13.63,13.63,0,0,0,1.82,2.24,64.2,64.2,0,0,0,6.67,5.73c2.54,1.95,5.16,3.8,7.13,5.17s3.31,2.23,3.31,2.23Z" transform="translate(-40.3 -26.09)"/></svg>